%TF.GenerationSoftware,KiCad,Pcbnew,10.0.5*%
%TF.CreationDate,2026-07-30T16:29:28+07:00*%
%TF.ProjectId,HCKeyboard,48434b65-7962-46f6-9172-642e6b696361,rev?*%
%TF.SameCoordinates,Original*%
%TF.FileFunction,Soldermask,Top*%
%TF.FilePolarity,Negative*%
%FSLAX46Y46*%
G04 Gerber Fmt 4.6, Leading zero omitted, Abs format (unit mm)*
G04 Created by KiCad (PCBNEW 10.0.5) date 2026-07-30 16:29:28*
%MOMM*%
%LPD*%
G01*
G04 APERTURE LIST*
G04 Aperture macros list*
%AMRoundRect*
0 Rectangle with rounded corners*
0 $1 Rounding radius*
0 $2 $3 $4 $5 $6 $7 $8 $9 X,Y pos of 4 corners*
0 Add a 4 corners polygon primitive as box body*
4,1,4,$2,$3,$4,$5,$6,$7,$8,$9,$2,$3,0*
0 Add four circle primitives for the rounded corners*
1,1,$1+$1,$2,$3*
1,1,$1+$1,$4,$5*
1,1,$1+$1,$6,$7*
1,1,$1+$1,$8,$9*
0 Add four rect primitives between the rounded corners*
20,1,$1+$1,$2,$3,$4,$5,0*
20,1,$1+$1,$4,$5,$6,$7,0*
20,1,$1+$1,$6,$7,$8,$9,0*
20,1,$1+$1,$8,$9,$2,$3,0*%
%AMFreePoly0*
4,1,37,0.603843,0.796157,0.639018,0.796157,0.711114,0.766294,0.766294,0.711114,0.796157,0.639018,0.796157,0.603843,0.800000,0.600000,0.800000,-0.600000,0.796157,-0.603843,0.796157,-0.639018,0.766294,-0.711114,0.711114,-0.766294,0.639018,-0.796157,0.603843,-0.796157,0.600000,-0.800000,0.000000,-0.800000,0.000000,-0.796148,-0.078414,-0.796148,-0.232228,-0.765552,-0.377117,-0.705537,
-0.507515,-0.618408,-0.618408,-0.507515,-0.705537,-0.377117,-0.765552,-0.232228,-0.796148,-0.078414,-0.796148,0.078414,-0.765552,0.232228,-0.705537,0.377117,-0.618408,0.507515,-0.507515,0.618408,-0.377117,0.705537,-0.232228,0.765552,-0.078414,0.796148,0.000000,0.796148,0.000000,0.800000,0.600000,0.800000,0.603843,0.796157,0.603843,0.796157,$1*%
%AMFreePoly1*
4,1,37,0.000000,0.796148,0.078414,0.796148,0.232228,0.765552,0.377117,0.705537,0.507515,0.618408,0.618408,0.507515,0.705537,0.377117,0.765552,0.232228,0.796148,0.078414,0.796148,-0.078414,0.765552,-0.232228,0.705537,-0.377117,0.618408,-0.507515,0.507515,-0.618408,0.377117,-0.705537,0.232228,-0.765552,0.078414,-0.796148,0.000000,-0.796148,0.000000,-0.800000,-0.600000,-0.800000,
-0.603843,-0.796157,-0.639018,-0.796157,-0.711114,-0.766294,-0.766294,-0.711114,-0.796157,-0.639018,-0.796157,-0.603843,-0.800000,-0.600000,-0.800000,0.600000,-0.796157,0.603843,-0.796157,0.639018,-0.766294,0.711114,-0.711114,0.766294,-0.639018,0.796157,-0.603843,0.796157,-0.600000,0.800000,0.000000,0.800000,0.000000,0.796148,0.000000,0.796148,$1*%
G04 Aperture macros list end*
%ADD10C,1.750000*%
%ADD11C,3.987800*%
%ADD12C,1.600000*%
%ADD13RoundRect,0.250000X0.550000X-0.550000X0.550000X0.550000X-0.550000X0.550000X-0.550000X-0.550000X0*%
%ADD14RoundRect,0.200000X-0.600000X-0.600000X0.600000X-0.600000X0.600000X0.600000X-0.600000X0.600000X0*%
%ADD15FreePoly0,0.000000*%
%ADD16FreePoly1,0.000000*%
G04 APERTURE END LIST*
D10*
%TO.C,SW69*%
X317105000Y-128587500D03*
D11*
X312025000Y-128587500D03*
D10*
X306945000Y-128587500D03*
%TD*%
%TO.C,SW79*%
X336073750Y-147637500D03*
D11*
X330993750Y-147637500D03*
D10*
X325913750Y-147637500D03*
%TD*%
%TO.C,SW78*%
X317023750Y-147637500D03*
D11*
X311943750Y-147637500D03*
D10*
X306863750Y-147637500D03*
%TD*%
%TO.C,SW77*%
X297973750Y-147637500D03*
D11*
X292893750Y-147637500D03*
D10*
X287813750Y-147637500D03*
%TD*%
%TO.C,SW76*%
X274161250Y-142875000D03*
D11*
X269081250Y-142875000D03*
D10*
X264001250Y-142875000D03*
%TD*%
%TO.C,SW75*%
X255111250Y-142875000D03*
D11*
X250031250Y-142875000D03*
D10*
X244951250Y-142875000D03*
%TD*%
%TO.C,SW74*%
X236061250Y-142875000D03*
D11*
X230981250Y-142875000D03*
D10*
X225901250Y-142875000D03*
%TD*%
%TO.C,SW73*%
X167005000Y-142875000D03*
D11*
X161925000Y-142875000D03*
D10*
X156845000Y-142875000D03*
%TD*%
%TO.C,SW72*%
X93186250Y-142875000D03*
D11*
X88106250Y-142875000D03*
D10*
X83026250Y-142875000D03*
%TD*%
%TO.C,SW71*%
X69373750Y-142875000D03*
D11*
X64293750Y-142875000D03*
D10*
X59213750Y-142875000D03*
%TD*%
%TO.C,SW70*%
X45561250Y-142875000D03*
D11*
X40481250Y-142875000D03*
D10*
X35401250Y-142875000D03*
%TD*%
%TO.C,SW68*%
X283686250Y-123825000D03*
D11*
X278606250Y-123825000D03*
D10*
X273526250Y-123825000D03*
%TD*%
%TO.C,SW67*%
X257492500Y-123825000D03*
D11*
X252412500Y-123825000D03*
D10*
X247332500Y-123825000D03*
%TD*%
%TO.C,SW66*%
X238442500Y-123825000D03*
D11*
X233362500Y-123825000D03*
D10*
X228282500Y-123825000D03*
%TD*%
%TO.C,SW65*%
X219392500Y-123825000D03*
D11*
X214312500Y-123825000D03*
D10*
X209232500Y-123825000D03*
%TD*%
%TO.C,SW64*%
X200342500Y-123825000D03*
D11*
X195262500Y-123825000D03*
D10*
X190182500Y-123825000D03*
%TD*%
%TO.C,SW63*%
X181292500Y-123825000D03*
D11*
X176212500Y-123825000D03*
D10*
X171132500Y-123825000D03*
%TD*%
%TO.C,SW62*%
X162242500Y-123825000D03*
D11*
X157162500Y-123825000D03*
D10*
X152082500Y-123825000D03*
%TD*%
%TO.C,SW61*%
X143192500Y-123825000D03*
D11*
X138112500Y-123825000D03*
D10*
X133032500Y-123825000D03*
%TD*%
%TO.C,SW60*%
X124142500Y-123825000D03*
D11*
X119062500Y-123825000D03*
D10*
X113982500Y-123825000D03*
%TD*%
%TO.C,SW59*%
X105092500Y-123825000D03*
D11*
X100012500Y-123825000D03*
D10*
X94932500Y-123825000D03*
%TD*%
%TO.C,SW58*%
X86042500Y-123825000D03*
D11*
X80962500Y-123825000D03*
D10*
X75882500Y-123825000D03*
%TD*%
%TO.C,SW57*%
X55086250Y-123825000D03*
D11*
X50006250Y-123825000D03*
D10*
X44926250Y-123825000D03*
%TD*%
%TO.C,SW56*%
X297973750Y-104775000D03*
D11*
X292893750Y-104775000D03*
D10*
X287813750Y-104775000D03*
%TD*%
%TO.C,SW55*%
X267017500Y-104775000D03*
D11*
X261937500Y-104775000D03*
D10*
X256857500Y-104775000D03*
%TD*%
%TO.C,SW54*%
X247967500Y-104775000D03*
D11*
X242887500Y-104775000D03*
D10*
X237807500Y-104775000D03*
%TD*%
%TO.C,SW53*%
X228917500Y-104775000D03*
D11*
X223837500Y-104775000D03*
D10*
X218757500Y-104775000D03*
%TD*%
%TO.C,SW52*%
X209867500Y-104775000D03*
D11*
X204787500Y-104775000D03*
D10*
X199707500Y-104775000D03*
%TD*%
%TO.C,SW51*%
X190817500Y-104775000D03*
D11*
X185737500Y-104775000D03*
D10*
X180657500Y-104775000D03*
%TD*%
%TO.C,SW50*%
X171767500Y-104775000D03*
D11*
X166687500Y-104775000D03*
D10*
X161607500Y-104775000D03*
%TD*%
%TO.C,SW49*%
X152717500Y-104775000D03*
D11*
X147637500Y-104775000D03*
D10*
X142557500Y-104775000D03*
%TD*%
%TO.C,SW48*%
X133667500Y-104775000D03*
D11*
X128587500Y-104775000D03*
D10*
X123507500Y-104775000D03*
%TD*%
%TO.C,SW47*%
X114617500Y-104775000D03*
D11*
X109537500Y-104775000D03*
D10*
X104457500Y-104775000D03*
%TD*%
%TO.C,SW46*%
X95567500Y-104775000D03*
D11*
X90487500Y-104775000D03*
D10*
X85407500Y-104775000D03*
%TD*%
%TO.C,SW45*%
X76517500Y-104775000D03*
D11*
X71437500Y-104775000D03*
D10*
X66357500Y-104775000D03*
%TD*%
%TO.C,SW44*%
X50323750Y-104775000D03*
D11*
X45243750Y-104775000D03*
D10*
X40163750Y-104775000D03*
%TD*%
%TO.C,SW43*%
X305117500Y-85725000D03*
D11*
X300037500Y-85725000D03*
D10*
X294957500Y-85725000D03*
%TD*%
%TO.C,SW42*%
X281305000Y-85725000D03*
D11*
X276225000Y-85725000D03*
D10*
X271145000Y-85725000D03*
%TD*%
%TO.C,SW41*%
X262255000Y-85725000D03*
D11*
X257175000Y-85725000D03*
D10*
X252095000Y-85725000D03*
%TD*%
%TO.C,SW40*%
X243205000Y-85725000D03*
D11*
X238125000Y-85725000D03*
D10*
X233045000Y-85725000D03*
%TD*%
%TO.C,SW39*%
X224155000Y-85725000D03*
D11*
X219075000Y-85725000D03*
D10*
X213995000Y-85725000D03*
%TD*%
%TO.C,SW38*%
X205105000Y-85725000D03*
D11*
X200025000Y-85725000D03*
D10*
X194945000Y-85725000D03*
%TD*%
%TO.C,SW37*%
X186055000Y-85725000D03*
D11*
X180975000Y-85725000D03*
D10*
X175895000Y-85725000D03*
%TD*%
%TO.C,SW36*%
X167005000Y-85725000D03*
D11*
X161925000Y-85725000D03*
D10*
X156845000Y-85725000D03*
%TD*%
%TO.C,SW35*%
X147955000Y-85725000D03*
D11*
X142875000Y-85725000D03*
D10*
X137795000Y-85725000D03*
%TD*%
%TO.C,SW34*%
X128905000Y-85725000D03*
D11*
X123825000Y-85725000D03*
D10*
X118745000Y-85725000D03*
%TD*%
%TO.C,SW33*%
X109855000Y-85725000D03*
D11*
X104775000Y-85725000D03*
D10*
X99695000Y-85725000D03*
%TD*%
%TO.C,SW32*%
X90805000Y-85725000D03*
D11*
X85725000Y-85725000D03*
D10*
X80645000Y-85725000D03*
%TD*%
%TO.C,SW31*%
X71755000Y-85725000D03*
D11*
X66675000Y-85725000D03*
D10*
X61595000Y-85725000D03*
%TD*%
%TO.C,SW30*%
X47942500Y-85725000D03*
D11*
X42862500Y-85725000D03*
D10*
X37782500Y-85725000D03*
%TD*%
%TO.C,SW29*%
X300355000Y-66675000D03*
D11*
X295275000Y-66675000D03*
D10*
X290195000Y-66675000D03*
%TD*%
%TO.C,SW28*%
X271780000Y-66675000D03*
D11*
X266700000Y-66675000D03*
D10*
X261620000Y-66675000D03*
%TD*%
%TO.C,SW27*%
X252730000Y-66675000D03*
D11*
X247650000Y-66675000D03*
D10*
X242570000Y-66675000D03*
%TD*%
%TO.C,SW26*%
X233680000Y-66675000D03*
D11*
X228600000Y-66675000D03*
D10*
X223520000Y-66675000D03*
%TD*%
%TO.C,SW25*%
X214630000Y-66675000D03*
D11*
X209550000Y-66675000D03*
D10*
X204470000Y-66675000D03*
%TD*%
%TO.C,SW24*%
X195580000Y-66675000D03*
D11*
X190500000Y-66675000D03*
D10*
X185420000Y-66675000D03*
%TD*%
%TO.C,SW23*%
X176530000Y-66675000D03*
D11*
X171450000Y-66675000D03*
D10*
X166370000Y-66675000D03*
%TD*%
%TO.C,SW22*%
X157480000Y-66675000D03*
D11*
X152400000Y-66675000D03*
D10*
X147320000Y-66675000D03*
%TD*%
%TO.C,SW21*%
X138430000Y-66675000D03*
D11*
X133350000Y-66675000D03*
D10*
X128270000Y-66675000D03*
%TD*%
%TO.C,SW20*%
X119380000Y-66675000D03*
D11*
X114300000Y-66675000D03*
D10*
X109220000Y-66675000D03*
%TD*%
%TO.C,SW19*%
X100330000Y-66675000D03*
D11*
X95250000Y-66675000D03*
D10*
X90170000Y-66675000D03*
%TD*%
%TO.C,SW18*%
X81280000Y-66675000D03*
D11*
X76200000Y-66675000D03*
D10*
X71120000Y-66675000D03*
%TD*%
%TO.C,SW17*%
X62230000Y-66675000D03*
D11*
X57150000Y-66675000D03*
D10*
X52070000Y-66675000D03*
%TD*%
%TO.C,SW16*%
X43180000Y-66675000D03*
D11*
X38100000Y-66675000D03*
D10*
X33020000Y-66675000D03*
%TD*%
%TO.C,SW14*%
X309880000Y-42862500D03*
D11*
X304800000Y-42862500D03*
D10*
X299720000Y-42862500D03*
%TD*%
%TO.C,SW13*%
X286067500Y-42862500D03*
D11*
X280987500Y-42862500D03*
D10*
X275907500Y-42862500D03*
%TD*%
%TO.C,SW12*%
X267017500Y-42862500D03*
D11*
X261937500Y-42862500D03*
D10*
X256857500Y-42862500D03*
%TD*%
%TO.C,SW11*%
X247967500Y-42862500D03*
D11*
X242887500Y-42862500D03*
D10*
X237807500Y-42862500D03*
%TD*%
%TO.C,SW10*%
X228917500Y-42862500D03*
D11*
X223837500Y-42862500D03*
D10*
X218757500Y-42862500D03*
%TD*%
%TO.C,SW9*%
X205105000Y-42862500D03*
D11*
X200025000Y-42862500D03*
D10*
X194945000Y-42862500D03*
%TD*%
%TO.C,SW8*%
X186055000Y-42862500D03*
D11*
X180975000Y-42862500D03*
D10*
X175895000Y-42862500D03*
%TD*%
%TO.C,SW7*%
X167005000Y-42862500D03*
D11*
X161925000Y-42862500D03*
D10*
X156845000Y-42862500D03*
%TD*%
%TO.C,SW6*%
X147955000Y-42862500D03*
D11*
X142875000Y-42862500D03*
D10*
X137795000Y-42862500D03*
%TD*%
%TO.C,SW5*%
X124142500Y-42862500D03*
D11*
X119062500Y-42862500D03*
D10*
X113982500Y-42862500D03*
%TD*%
%TO.C,SW4*%
X105092500Y-42862500D03*
D11*
X100012500Y-42862500D03*
D10*
X94932500Y-42862500D03*
%TD*%
%TO.C,SW3*%
X86042500Y-42862500D03*
D11*
X80962500Y-42862500D03*
D10*
X75882500Y-42862500D03*
%TD*%
%TO.C,SW2*%
X66992500Y-42862500D03*
D11*
X61912500Y-42862500D03*
D10*
X56832500Y-42862500D03*
%TD*%
%TO.C,SW1*%
X43180000Y-42862500D03*
D11*
X38100000Y-42862500D03*
D10*
X33020000Y-42862500D03*
%TD*%
D11*
%TO.C,Space1*%
X111918750Y-134620000D03*
X211931250Y-134620000D03*
%TD*%
%TO.C,LShift1*%
X38100000Y-115570000D03*
X61912500Y-115570000D03*
%TD*%
%TO.C,Enter1*%
X280987500Y-96520000D03*
X304800000Y-96520000D03*
%TD*%
%TO.C,Backspace1*%
X307181250Y-74930000D03*
X283368750Y-74930000D03*
%TD*%
D12*
%TO.C,D14*%
X295275000Y-40005000D03*
D13*
X295275000Y-47625000D03*
%TD*%
D14*
%TO.C,A1*%
X321220000Y-31460000D03*
D12*
X321220000Y-34000000D03*
D15*
X321220000Y-36540000D03*
D12*
X321220000Y-39080000D03*
X321220000Y-41620000D03*
X321220000Y-44160000D03*
X321220000Y-46700000D03*
D15*
X321220000Y-49240000D03*
D12*
X321220000Y-51780000D03*
X321220000Y-54320000D03*
X321220000Y-56860000D03*
X321220000Y-59400000D03*
D15*
X321220000Y-61940000D03*
D12*
X321220000Y-64480000D03*
X321220000Y-67020000D03*
X321220000Y-69560000D03*
X321220000Y-72100000D03*
D15*
X321220000Y-74640000D03*
D12*
X321220000Y-77180000D03*
X321220000Y-79720000D03*
X339000000Y-79720000D03*
X339000000Y-77180000D03*
D16*
X339000000Y-74640000D03*
D12*
X339000000Y-72100000D03*
X339000000Y-69560000D03*
X339000000Y-67020000D03*
X339000000Y-64480000D03*
D16*
X339000000Y-61940000D03*
D12*
X339000000Y-59400000D03*
X339000000Y-56860000D03*
X339000000Y-54320000D03*
X339000000Y-51780000D03*
D16*
X339000000Y-49240000D03*
D12*
X339000000Y-46700000D03*
X339000000Y-44160000D03*
X339000000Y-41620000D03*
X339000000Y-39080000D03*
D16*
X339000000Y-36540000D03*
D12*
X339000000Y-34000000D03*
X339000000Y-31460000D03*
%TD*%
D13*
%TO.C,D51*%
X195262500Y-109537500D03*
D12*
X195262500Y-101917500D03*
%TD*%
D13*
%TO.C,D47*%
X119062500Y-109537500D03*
D12*
X119062500Y-101917500D03*
%TD*%
D13*
%TO.C,D65*%
X223837500Y-128587500D03*
D12*
X223837500Y-120967500D03*
%TD*%
D13*
%TO.C,D68*%
X288131250Y-128587500D03*
D12*
X288131250Y-120967500D03*
%TD*%
D13*
%TO.C,D36*%
X171450000Y-90487500D03*
D12*
X171450000Y-82867500D03*
%TD*%
D13*
%TO.C,D28*%
X276225000Y-71437500D03*
D12*
X276225000Y-63817500D03*
%TD*%
D13*
%TO.C,D48*%
X138112500Y-109537500D03*
D12*
X138112500Y-101917500D03*
%TD*%
D13*
%TO.C,D34*%
X133350000Y-90487500D03*
D12*
X133350000Y-82867500D03*
%TD*%
D13*
%TO.C,D21*%
X142875000Y-71437500D03*
D12*
X142875000Y-63817500D03*
%TD*%
D13*
%TO.C,D4*%
X109537500Y-47625000D03*
D12*
X109537500Y-40005000D03*
%TD*%
D13*
%TO.C,D64*%
X204787500Y-128587500D03*
D12*
X204787500Y-120967500D03*
%TD*%
D13*
%TO.C,D29*%
X304800000Y-71437500D03*
D12*
X304800000Y-63817500D03*
%TD*%
D13*
%TO.C,D75*%
X259556250Y-147637500D03*
D12*
X259556250Y-140017500D03*
%TD*%
D13*
%TO.C,D8*%
X190500000Y-47625000D03*
D12*
X190500000Y-40005000D03*
%TD*%
D13*
%TO.C,D6*%
X152400000Y-47625000D03*
D12*
X152400000Y-40005000D03*
%TD*%
D13*
%TO.C,D70*%
X52387500Y-147637500D03*
D12*
X52387500Y-140017500D03*
%TD*%
D13*
%TO.C,D61*%
X147637500Y-128587500D03*
D12*
X147637500Y-120967500D03*
%TD*%
D13*
%TO.C,D78*%
X321468750Y-151209375D03*
D12*
X321468750Y-143589375D03*
%TD*%
D13*
%TO.C,D7*%
X171450000Y-47625000D03*
D12*
X171450000Y-40005000D03*
%TD*%
D13*
%TO.C,D50*%
X176212500Y-109537500D03*
D12*
X176212500Y-101917500D03*
%TD*%
D13*
%TO.C,D39*%
X228600000Y-90487500D03*
D12*
X228600000Y-82867500D03*
%TD*%
D13*
%TO.C,D19*%
X104775000Y-71437500D03*
D12*
X104775000Y-63817500D03*
%TD*%
D13*
%TO.C,D71*%
X76200000Y-147637500D03*
D12*
X76200000Y-140017500D03*
%TD*%
D13*
%TO.C,D62*%
X166687500Y-128587500D03*
D12*
X166687500Y-120967500D03*
%TD*%
D13*
%TO.C,D66*%
X242887500Y-128587500D03*
D12*
X242887500Y-120967500D03*
%TD*%
D13*
%TO.C,D38*%
X209550000Y-90487500D03*
D12*
X209550000Y-82867500D03*
%TD*%
D13*
%TO.C,D5*%
X130968750Y-47625000D03*
D12*
X130968750Y-40005000D03*
%TD*%
D13*
%TO.C,D27*%
X257175000Y-71437500D03*
D12*
X257175000Y-63817500D03*
%TD*%
D13*
%TO.C,D24*%
X200025000Y-71437500D03*
D12*
X200025000Y-63817500D03*
%TD*%
D13*
%TO.C,D17*%
X66675000Y-71437500D03*
D12*
X66675000Y-63817500D03*
%TD*%
D13*
%TO.C,D2*%
X71437500Y-47625000D03*
D12*
X71437500Y-40005000D03*
%TD*%
D13*
%TO.C,D35*%
X152400000Y-90487500D03*
D12*
X152400000Y-82867500D03*
%TD*%
D13*
%TO.C,D79*%
X340518750Y-151209375D03*
D12*
X340518750Y-143589375D03*
%TD*%
D13*
%TO.C,D58*%
X90487500Y-128587500D03*
D12*
X90487500Y-120967500D03*
%TD*%
D13*
%TO.C,D18*%
X85725000Y-71437500D03*
D12*
X85725000Y-63817500D03*
%TD*%
D13*
%TO.C,D72*%
X100012500Y-147637500D03*
D12*
X100012500Y-140017500D03*
%TD*%
D13*
%TO.C,D60*%
X128587500Y-128587500D03*
D12*
X128587500Y-120967500D03*
%TD*%
D13*
%TO.C,D10*%
X233362500Y-47625000D03*
D12*
X233362500Y-40005000D03*
%TD*%
D13*
%TO.C,D31*%
X76200000Y-90487500D03*
D12*
X76200000Y-82867500D03*
%TD*%
D13*
%TO.C,D32*%
X95250000Y-90487500D03*
D12*
X95250000Y-82867500D03*
%TD*%
D13*
%TO.C,D67*%
X261937500Y-128587500D03*
D12*
X261937500Y-120967500D03*
%TD*%
D13*
%TO.C,D76*%
X278606250Y-147637500D03*
D12*
X278606250Y-140017500D03*
%TD*%
D13*
%TO.C,D23*%
X180975000Y-71437500D03*
D12*
X180975000Y-63817500D03*
%TD*%
D13*
%TO.C,D41*%
X266700000Y-90487500D03*
D12*
X266700000Y-82867500D03*
%TD*%
D13*
%TO.C,D11*%
X252412500Y-47625000D03*
D12*
X252412500Y-40005000D03*
%TD*%
D13*
%TO.C,D53*%
X233362500Y-109537500D03*
D12*
X233362500Y-101917500D03*
%TD*%
D13*
%TO.C,D77*%
X302418750Y-151209375D03*
D12*
X302418750Y-143589375D03*
%TD*%
D13*
%TO.C,D44*%
X57150000Y-109537500D03*
D12*
X57150000Y-101917500D03*
%TD*%
D13*
%TO.C,D59*%
X109537500Y-128587500D03*
D12*
X109537500Y-120967500D03*
%TD*%
D13*
%TO.C,D55*%
X271462500Y-109537500D03*
D12*
X271462500Y-101917500D03*
%TD*%
D13*
%TO.C,D37*%
X190500000Y-90487500D03*
D12*
X190500000Y-82867500D03*
%TD*%
D13*
%TO.C,D54*%
X252412500Y-109537500D03*
D12*
X252412500Y-101917500D03*
%TD*%
D13*
%TO.C,D57*%
X68072000Y-128587500D03*
D12*
X68072000Y-120967500D03*
%TD*%
D13*
%TO.C,D22*%
X161925000Y-71437500D03*
D12*
X161925000Y-63817500D03*
%TD*%
D13*
%TO.C,D49*%
X157162500Y-109537500D03*
D12*
X157162500Y-101917500D03*
%TD*%
D13*
%TO.C,D13*%
X290512500Y-47625000D03*
D12*
X290512500Y-40005000D03*
%TD*%
D13*
%TO.C,D52*%
X214312500Y-109537500D03*
D12*
X214312500Y-101917500D03*
%TD*%
D13*
%TO.C,D46*%
X100012500Y-109537500D03*
D12*
X100012500Y-101917500D03*
%TD*%
D13*
%TO.C,D25*%
X219075000Y-71437500D03*
D12*
X219075000Y-63817500D03*
%TD*%
D13*
%TO.C,D63*%
X185737500Y-128587500D03*
D12*
X185737500Y-120967500D03*
%TD*%
D13*
%TO.C,D9*%
X211931250Y-47625000D03*
D12*
X211931250Y-40005000D03*
%TD*%
D13*
%TO.C,D3*%
X90487500Y-47625000D03*
D12*
X90487500Y-40005000D03*
%TD*%
D13*
%TO.C,D26*%
X238125000Y-71437500D03*
D12*
X238125000Y-63817500D03*
%TD*%
D13*
%TO.C,D16*%
X47625000Y-71437500D03*
D12*
X47625000Y-63817500D03*
%TD*%
D13*
%TO.C,D69*%
X321468750Y-133350000D03*
D12*
X321468750Y-125730000D03*
%TD*%
D13*
%TO.C,D20*%
X123825000Y-71437500D03*
D12*
X123825000Y-63817500D03*
%TD*%
D13*
%TO.C,D12*%
X271462500Y-47625000D03*
D12*
X271462500Y-40005000D03*
%TD*%
D13*
%TO.C,D33*%
X114300000Y-90487500D03*
D12*
X114300000Y-82867500D03*
%TD*%
D13*
%TO.C,D56*%
X309562500Y-109537500D03*
D12*
X309562500Y-101917500D03*
%TD*%
D13*
%TO.C,D73*%
X176212500Y-147637500D03*
D12*
X176212500Y-140017500D03*
%TD*%
D13*
%TO.C,D1*%
X50006250Y-47625000D03*
D12*
X50006250Y-40005000D03*
%TD*%
D13*
%TO.C,D30*%
X52387500Y-90487500D03*
D12*
X52387500Y-82867500D03*
%TD*%
D13*
%TO.C,D74*%
X240506250Y-147637500D03*
D12*
X240506250Y-140017500D03*
%TD*%
D13*
%TO.C,D43*%
X309880000Y-90487500D03*
D12*
X309880000Y-82867500D03*
%TD*%
D13*
%TO.C,D42*%
X285750000Y-90487500D03*
D12*
X285750000Y-82867500D03*
%TD*%
D13*
%TO.C,D45*%
X80962500Y-109537500D03*
D12*
X80962500Y-101917500D03*
%TD*%
D13*
%TO.C,D40*%
X247650000Y-90487500D03*
D12*
X247650000Y-82867500D03*
%TD*%
M02*
