M48
; DRILL file KiCad 10.0.5 date 2026-07-26T20:58:01
; FORMAT={-:-/ absolute / metric / decimal}
; #@! TF.CreationDate,2026-07-26T20:58:01+07:00
; #@! TF.GenerationSoftware,Kicad,Pcbnew,10.0.5
; #@! TF.FileFunction,Plated,1,2,PTH
FMAT,2
METRIC
; #@! TA.AperFunction,Plated,PTH,ComponentDrill
T1C0.800
; #@! TA.AperFunction,Plated,PTH,ComponentDrill
T2C1.000
; #@! TA.AperFunction,Plated,PTH,ComponentDrill
T3C1.524
; #@! TA.AperFunction,Plated,PTH,ComponentDrill
T4C3.048
%
G90
G05
T1
X47.625Y-63.817
X47.625Y-71.438
X50.006Y-40.005
X50.006Y-47.625
X52.387Y-82.867
X52.387Y-90.487
X52.387Y-140.017
X52.387Y-147.637
X57.15Y-101.917
X57.15Y-109.537
X66.675Y-63.817
X66.675Y-71.438
X68.072Y-120.968
X68.072Y-128.588
X71.438Y-40.005
X71.438Y-47.625
X76.2Y-82.867
X76.2Y-90.487
X76.2Y-140.017
X76.2Y-147.637
X80.962Y-101.917
X80.962Y-109.537
X85.725Y-63.817
X85.725Y-71.438
X90.487Y-40.005
X90.487Y-47.625
X90.487Y-120.968
X90.487Y-128.588
X95.25Y-82.867
X95.25Y-90.487
X100.012Y-101.917
X100.012Y-109.537
X100.012Y-140.017
X100.012Y-147.637
X104.775Y-63.817
X104.775Y-71.438
X109.537Y-40.005
X109.537Y-47.625
X109.537Y-120.968
X109.537Y-128.588
X114.3Y-82.867
X114.3Y-90.487
X119.062Y-101.917
X119.062Y-109.537
X123.825Y-63.817
X123.825Y-71.438
X128.588Y-120.968
X128.588Y-128.588
X130.969Y-40.005
X130.969Y-47.625
X133.35Y-82.867
X133.35Y-90.487
X138.112Y-101.917
X138.112Y-109.537
X142.875Y-63.817
X142.875Y-71.438
X147.637Y-120.968
X147.637Y-128.588
X152.4Y-40.005
X152.4Y-47.625
X152.4Y-82.867
X152.4Y-90.487
X157.162Y-101.917
X157.162Y-109.537
X161.925Y-63.817
X161.925Y-71.438
X166.688Y-120.968
X166.688Y-128.588
X171.45Y-40.005
X171.45Y-47.625
X171.45Y-82.867
X171.45Y-90.487
X176.213Y-101.917
X176.213Y-109.537
X176.213Y-140.017
X176.213Y-147.637
X180.975Y-63.817
X180.975Y-71.438
X185.737Y-120.968
X185.737Y-128.588
X190.5Y-40.005
X190.5Y-47.625
X190.5Y-82.867
X190.5Y-90.487
X195.262Y-101.917
X195.262Y-109.537
X200.025Y-63.817
X200.025Y-71.438
X204.787Y-120.968
X204.787Y-128.588
X209.55Y-82.867
X209.55Y-90.487
X211.931Y-40.005
X211.931Y-47.625
X214.312Y-101.917
X214.312Y-109.537
X219.075Y-63.817
X219.075Y-71.438
X223.837Y-120.968
X223.837Y-128.588
X228.6Y-82.867
X228.6Y-90.487
X233.362Y-40.005
X233.362Y-47.625
X233.362Y-101.917
X233.362Y-109.537
X238.125Y-63.817
X238.125Y-71.438
X240.506Y-140.017
X240.506Y-147.637
X242.887Y-120.968
X242.887Y-128.588
X247.65Y-82.867
X247.65Y-90.487
X252.412Y-40.005
X252.412Y-47.625
X252.412Y-101.917
X252.412Y-109.537
X257.175Y-63.817
X257.175Y-71.438
X259.556Y-140.017
X259.556Y-147.637
X261.938Y-120.968
X261.938Y-128.588
X266.7Y-82.867
X266.7Y-90.487
X271.462Y-40.005
X271.462Y-47.625
X271.462Y-101.917
X271.462Y-109.537
X276.225Y-63.817
X276.225Y-71.438
X278.606Y-140.017
X278.606Y-147.637
X285.75Y-82.867
X285.75Y-90.487
X288.131Y-120.968
X288.131Y-128.588
X290.512Y-40.005
X290.512Y-47.625
X304.8Y-63.817
X304.8Y-71.438
X309.562Y-101.917
X309.562Y-109.537
X309.88Y-82.867
X309.88Y-90.487
X314.325Y-40.005
X314.325Y-47.625
X319.087Y-140.017
X319.087Y-147.637
X338.137Y-120.968
X338.137Y-128.588
X338.137Y-140.017
X338.137Y-147.637
X357.188Y-140.017
X357.188Y-147.637
T2
X329.692Y-26.416
X329.692Y-28.956
X329.692Y-31.496
X329.692Y-34.036
X329.692Y-36.576
X329.692Y-39.116
X329.692Y-41.656
X329.692Y-44.196
X329.692Y-46.736
X329.692Y-49.276
X329.692Y-51.816
X329.692Y-54.356
X329.692Y-56.896
X329.692Y-59.436
X329.692Y-61.976
X329.692Y-64.516
X329.692Y-67.056
X329.692Y-69.596
X329.692Y-72.136
X329.692Y-74.676
X347.472Y-26.416
X347.472Y-28.956
X347.472Y-31.496
X347.472Y-34.036
X347.472Y-36.576
X347.472Y-39.116
X347.472Y-41.656
X347.472Y-44.196
X347.472Y-46.736
X347.472Y-49.276
X347.472Y-51.816
X347.472Y-54.356
X347.472Y-56.896
X347.472Y-59.436
X347.472Y-61.976
X347.472Y-64.516
X347.472Y-67.056
X347.472Y-69.596
X347.472Y-72.136
X347.472Y-74.676
T3
X34.29Y-40.322
X34.29Y-64.135
X36.671Y-140.335
X39.052Y-83.185
X40.64Y-37.782
X40.64Y-61.595
X41.434Y-102.235
X43.021Y-137.795
X45.402Y-80.645
X46.196Y-121.285
X47.784Y-99.695
X52.546Y-118.745
X53.34Y-64.135
X58.102Y-40.322
X59.69Y-61.595
X60.484Y-140.335
X62.865Y-83.185
X64.453Y-37.782
X66.834Y-137.795
X67.627Y-102.235
X69.215Y-80.645
X72.39Y-64.135
X73.977Y-99.695
X77.153Y-40.322
X77.153Y-121.285
X78.74Y-61.595
X81.915Y-83.185
X83.502Y-37.782
X83.502Y-118.745
X84.296Y-140.335
X86.677Y-102.235
X88.265Y-80.645
X90.646Y-137.795
X91.44Y-64.135
X93.027Y-99.695
X96.203Y-40.322
X96.203Y-121.285
X97.79Y-61.595
X100.965Y-83.185
X102.552Y-37.782
X102.552Y-118.745
X105.727Y-102.235
X107.315Y-80.645
X110.49Y-64.135
X112.078Y-99.695
X115.252Y-40.322
X115.252Y-121.285
X116.84Y-61.595
X120.015Y-83.185
X121.602Y-37.782
X121.602Y-118.745
X124.777Y-102.235
X126.365Y-80.645
X129.54Y-64.135
X131.127Y-99.695
X134.302Y-121.285
X135.89Y-61.595
X139.065Y-40.322
X139.065Y-83.185
X140.653Y-118.745
X143.827Y-102.235
X145.415Y-37.782
X145.415Y-80.645
X148.59Y-64.135
X150.177Y-99.695
X153.352Y-121.285
X154.94Y-61.595
X158.115Y-40.322
X158.115Y-83.185
X158.115Y-140.335
X159.702Y-118.745
X162.877Y-102.235
X164.465Y-37.782
X164.465Y-80.645
X164.465Y-137.795
X167.64Y-64.135
X169.227Y-99.695
X172.403Y-121.285
X173.99Y-61.595
X177.165Y-40.322
X177.165Y-83.185
X178.752Y-118.745
X181.927Y-102.235
X183.515Y-37.782
X183.515Y-80.645
X186.69Y-64.135
X188.278Y-99.695
X191.452Y-121.285
X193.04Y-61.595
X196.215Y-40.322
X196.215Y-83.185
X197.802Y-118.745
X200.977Y-102.235
X202.565Y-37.782
X202.565Y-80.645
X205.74Y-64.135
X207.327Y-99.695
X210.502Y-121.285
X212.09Y-61.595
X215.265Y-83.185
X216.852Y-118.745
X220.028Y-40.322
X220.028Y-102.235
X221.615Y-80.645
X224.79Y-64.135
X226.377Y-37.782
X226.377Y-99.695
X227.171Y-140.335
X229.552Y-121.285
X231.14Y-61.595
X233.521Y-137.795
X234.315Y-83.185
X235.903Y-118.745
X239.077Y-40.322
X239.077Y-102.235
X240.665Y-80.645
X243.84Y-64.135
X245.427Y-37.782
X245.427Y-99.695
X246.221Y-140.335
X248.602Y-121.285
X250.19Y-61.595
X252.571Y-137.795
X253.365Y-83.185
X254.952Y-118.745
X258.127Y-40.322
X258.127Y-102.235
X259.715Y-80.645
X262.89Y-64.135
X264.477Y-37.782
X264.477Y-99.695
X265.271Y-140.335
X269.24Y-61.595
X271.621Y-137.795
X272.415Y-83.185
X274.796Y-121.285
X277.178Y-40.322
X278.765Y-80.645
X281.146Y-118.745
X283.527Y-37.782
X289.084Y-102.235
X291.465Y-64.135
X295.434Y-99.695
X296.227Y-83.185
X297.815Y-61.595
X300.99Y-40.322
X302.577Y-80.645
X305.752Y-140.335
X307.34Y-37.782
X312.102Y-137.795
X324.803Y-121.285
X324.803Y-140.335
X331.152Y-118.745
X331.152Y-137.795
X343.852Y-140.335
X350.202Y-137.795
T4
X38.1Y-130.81
X61.912Y-130.81
X111.919Y-149.86
X211.931Y-149.86
X280.988Y-111.76
X283.369Y-59.69
X304.8Y-111.76
X307.181Y-59.69
M30
