%TF.GenerationSoftware,KiCad,Pcbnew,10.0.5*%
%TF.CreationDate,2026-07-30T16:29:28+07:00*%
%TF.ProjectId,HCKeyboard,48434b65-7962-46f6-9172-642e6b696361,rev?*%
%TF.SameCoordinates,Original*%
%TF.FileFunction,Legend,Top*%
%TF.FilePolarity,Positive*%
%FSLAX46Y46*%
G04 Gerber Fmt 4.6, Leading zero omitted, Abs format (unit mm)*
G04 Created by KiCad (PCBNEW 10.0.5) date 2026-07-30 16:29:28*
%MOMM*%
%LPD*%
G01*
G04 APERTURE LIST*
%ADD10C,0.150000*%
%ADD11C,0.120000*%
G04 APERTURE END LIST*
D10*
X293609819Y-45029285D02*
X292609819Y-45029285D01*
X292609819Y-45029285D02*
X292609819Y-44791190D01*
X292609819Y-44791190D02*
X292657438Y-44648333D01*
X292657438Y-44648333D02*
X292752676Y-44553095D01*
X292752676Y-44553095D02*
X292847914Y-44505476D01*
X292847914Y-44505476D02*
X293038390Y-44457857D01*
X293038390Y-44457857D02*
X293181247Y-44457857D01*
X293181247Y-44457857D02*
X293371723Y-44505476D01*
X293371723Y-44505476D02*
X293466961Y-44553095D01*
X293466961Y-44553095D02*
X293562200Y-44648333D01*
X293562200Y-44648333D02*
X293609819Y-44791190D01*
X293609819Y-44791190D02*
X293609819Y-45029285D01*
X293609819Y-43505476D02*
X293609819Y-44076904D01*
X293609819Y-43791190D02*
X292609819Y-43791190D01*
X292609819Y-43791190D02*
X292752676Y-43886428D01*
X292752676Y-43886428D02*
X292847914Y-43981666D01*
X292847914Y-43981666D02*
X292895533Y-44076904D01*
X292943152Y-42648333D02*
X293609819Y-42648333D01*
X292562200Y-42886428D02*
X293276485Y-43124523D01*
X293276485Y-43124523D02*
X293276485Y-42505476D01*
X293929819Y-47886904D02*
X292929819Y-47886904D01*
X293929819Y-47315476D02*
X293358390Y-47744047D01*
X292929819Y-47315476D02*
X293501247Y-47886904D01*
X342146660Y-80524104D02*
X342622850Y-80524104D01*
X342051422Y-80809819D02*
X342384755Y-79809819D01*
X342384755Y-79809819D02*
X342718088Y-80809819D01*
X343575231Y-80809819D02*
X343003803Y-80809819D01*
X343289517Y-80809819D02*
X343289517Y-79809819D01*
X343289517Y-79809819D02*
X343194279Y-79952676D01*
X343194279Y-79952676D02*
X343099041Y-80047914D01*
X343099041Y-80047914D02*
X343003803Y-80095533D01*
X193597319Y-106941785D02*
X192597319Y-106941785D01*
X192597319Y-106941785D02*
X192597319Y-106703690D01*
X192597319Y-106703690D02*
X192644938Y-106560833D01*
X192644938Y-106560833D02*
X192740176Y-106465595D01*
X192740176Y-106465595D02*
X192835414Y-106417976D01*
X192835414Y-106417976D02*
X193025890Y-106370357D01*
X193025890Y-106370357D02*
X193168747Y-106370357D01*
X193168747Y-106370357D02*
X193359223Y-106417976D01*
X193359223Y-106417976D02*
X193454461Y-106465595D01*
X193454461Y-106465595D02*
X193549700Y-106560833D01*
X193549700Y-106560833D02*
X193597319Y-106703690D01*
X193597319Y-106703690D02*
X193597319Y-106941785D01*
X192597319Y-105465595D02*
X192597319Y-105941785D01*
X192597319Y-105941785D02*
X193073509Y-105989404D01*
X193073509Y-105989404D02*
X193025890Y-105941785D01*
X193025890Y-105941785D02*
X192978271Y-105846547D01*
X192978271Y-105846547D02*
X192978271Y-105608452D01*
X192978271Y-105608452D02*
X193025890Y-105513214D01*
X193025890Y-105513214D02*
X193073509Y-105465595D01*
X193073509Y-105465595D02*
X193168747Y-105417976D01*
X193168747Y-105417976D02*
X193406842Y-105417976D01*
X193406842Y-105417976D02*
X193502080Y-105465595D01*
X193502080Y-105465595D02*
X193549700Y-105513214D01*
X193549700Y-105513214D02*
X193597319Y-105608452D01*
X193597319Y-105608452D02*
X193597319Y-105846547D01*
X193597319Y-105846547D02*
X193549700Y-105941785D01*
X193549700Y-105941785D02*
X193502080Y-105989404D01*
X193597319Y-104465595D02*
X193597319Y-105037023D01*
X193597319Y-104751309D02*
X192597319Y-104751309D01*
X192597319Y-104751309D02*
X192740176Y-104846547D01*
X192740176Y-104846547D02*
X192835414Y-104941785D01*
X192835414Y-104941785D02*
X192883033Y-105037023D01*
X193917319Y-109799404D02*
X192917319Y-109799404D01*
X193917319Y-109227976D02*
X193345890Y-109656547D01*
X192917319Y-109227976D02*
X193488747Y-109799404D01*
X117397319Y-106941785D02*
X116397319Y-106941785D01*
X116397319Y-106941785D02*
X116397319Y-106703690D01*
X116397319Y-106703690D02*
X116444938Y-106560833D01*
X116444938Y-106560833D02*
X116540176Y-106465595D01*
X116540176Y-106465595D02*
X116635414Y-106417976D01*
X116635414Y-106417976D02*
X116825890Y-106370357D01*
X116825890Y-106370357D02*
X116968747Y-106370357D01*
X116968747Y-106370357D02*
X117159223Y-106417976D01*
X117159223Y-106417976D02*
X117254461Y-106465595D01*
X117254461Y-106465595D02*
X117349700Y-106560833D01*
X117349700Y-106560833D02*
X117397319Y-106703690D01*
X117397319Y-106703690D02*
X117397319Y-106941785D01*
X116730652Y-105513214D02*
X117397319Y-105513214D01*
X116349700Y-105751309D02*
X117063985Y-105989404D01*
X117063985Y-105989404D02*
X117063985Y-105370357D01*
X116397319Y-105084642D02*
X116397319Y-104417976D01*
X116397319Y-104417976D02*
X117397319Y-104846547D01*
X117717319Y-109799404D02*
X116717319Y-109799404D01*
X117717319Y-109227976D02*
X117145890Y-109656547D01*
X116717319Y-109227976D02*
X117288747Y-109799404D01*
X222172319Y-125991785D02*
X221172319Y-125991785D01*
X221172319Y-125991785D02*
X221172319Y-125753690D01*
X221172319Y-125753690D02*
X221219938Y-125610833D01*
X221219938Y-125610833D02*
X221315176Y-125515595D01*
X221315176Y-125515595D02*
X221410414Y-125467976D01*
X221410414Y-125467976D02*
X221600890Y-125420357D01*
X221600890Y-125420357D02*
X221743747Y-125420357D01*
X221743747Y-125420357D02*
X221934223Y-125467976D01*
X221934223Y-125467976D02*
X222029461Y-125515595D01*
X222029461Y-125515595D02*
X222124700Y-125610833D01*
X222124700Y-125610833D02*
X222172319Y-125753690D01*
X222172319Y-125753690D02*
X222172319Y-125991785D01*
X221172319Y-124563214D02*
X221172319Y-124753690D01*
X221172319Y-124753690D02*
X221219938Y-124848928D01*
X221219938Y-124848928D02*
X221267557Y-124896547D01*
X221267557Y-124896547D02*
X221410414Y-124991785D01*
X221410414Y-124991785D02*
X221600890Y-125039404D01*
X221600890Y-125039404D02*
X221981842Y-125039404D01*
X221981842Y-125039404D02*
X222077080Y-124991785D01*
X222077080Y-124991785D02*
X222124700Y-124944166D01*
X222124700Y-124944166D02*
X222172319Y-124848928D01*
X222172319Y-124848928D02*
X222172319Y-124658452D01*
X222172319Y-124658452D02*
X222124700Y-124563214D01*
X222124700Y-124563214D02*
X222077080Y-124515595D01*
X222077080Y-124515595D02*
X221981842Y-124467976D01*
X221981842Y-124467976D02*
X221743747Y-124467976D01*
X221743747Y-124467976D02*
X221648509Y-124515595D01*
X221648509Y-124515595D02*
X221600890Y-124563214D01*
X221600890Y-124563214D02*
X221553271Y-124658452D01*
X221553271Y-124658452D02*
X221553271Y-124848928D01*
X221553271Y-124848928D02*
X221600890Y-124944166D01*
X221600890Y-124944166D02*
X221648509Y-124991785D01*
X221648509Y-124991785D02*
X221743747Y-125039404D01*
X221172319Y-123563214D02*
X221172319Y-124039404D01*
X221172319Y-124039404D02*
X221648509Y-124087023D01*
X221648509Y-124087023D02*
X221600890Y-124039404D01*
X221600890Y-124039404D02*
X221553271Y-123944166D01*
X221553271Y-123944166D02*
X221553271Y-123706071D01*
X221553271Y-123706071D02*
X221600890Y-123610833D01*
X221600890Y-123610833D02*
X221648509Y-123563214D01*
X221648509Y-123563214D02*
X221743747Y-123515595D01*
X221743747Y-123515595D02*
X221981842Y-123515595D01*
X221981842Y-123515595D02*
X222077080Y-123563214D01*
X222077080Y-123563214D02*
X222124700Y-123610833D01*
X222124700Y-123610833D02*
X222172319Y-123706071D01*
X222172319Y-123706071D02*
X222172319Y-123944166D01*
X222172319Y-123944166D02*
X222124700Y-124039404D01*
X222124700Y-124039404D02*
X222077080Y-124087023D01*
X222492319Y-128849404D02*
X221492319Y-128849404D01*
X222492319Y-128277976D02*
X221920890Y-128706547D01*
X221492319Y-128277976D02*
X222063747Y-128849404D01*
X286466069Y-125991785D02*
X285466069Y-125991785D01*
X285466069Y-125991785D02*
X285466069Y-125753690D01*
X285466069Y-125753690D02*
X285513688Y-125610833D01*
X285513688Y-125610833D02*
X285608926Y-125515595D01*
X285608926Y-125515595D02*
X285704164Y-125467976D01*
X285704164Y-125467976D02*
X285894640Y-125420357D01*
X285894640Y-125420357D02*
X286037497Y-125420357D01*
X286037497Y-125420357D02*
X286227973Y-125467976D01*
X286227973Y-125467976D02*
X286323211Y-125515595D01*
X286323211Y-125515595D02*
X286418450Y-125610833D01*
X286418450Y-125610833D02*
X286466069Y-125753690D01*
X286466069Y-125753690D02*
X286466069Y-125991785D01*
X285466069Y-124563214D02*
X285466069Y-124753690D01*
X285466069Y-124753690D02*
X285513688Y-124848928D01*
X285513688Y-124848928D02*
X285561307Y-124896547D01*
X285561307Y-124896547D02*
X285704164Y-124991785D01*
X285704164Y-124991785D02*
X285894640Y-125039404D01*
X285894640Y-125039404D02*
X286275592Y-125039404D01*
X286275592Y-125039404D02*
X286370830Y-124991785D01*
X286370830Y-124991785D02*
X286418450Y-124944166D01*
X286418450Y-124944166D02*
X286466069Y-124848928D01*
X286466069Y-124848928D02*
X286466069Y-124658452D01*
X286466069Y-124658452D02*
X286418450Y-124563214D01*
X286418450Y-124563214D02*
X286370830Y-124515595D01*
X286370830Y-124515595D02*
X286275592Y-124467976D01*
X286275592Y-124467976D02*
X286037497Y-124467976D01*
X286037497Y-124467976D02*
X285942259Y-124515595D01*
X285942259Y-124515595D02*
X285894640Y-124563214D01*
X285894640Y-124563214D02*
X285847021Y-124658452D01*
X285847021Y-124658452D02*
X285847021Y-124848928D01*
X285847021Y-124848928D02*
X285894640Y-124944166D01*
X285894640Y-124944166D02*
X285942259Y-124991785D01*
X285942259Y-124991785D02*
X286037497Y-125039404D01*
X285894640Y-123896547D02*
X285847021Y-123991785D01*
X285847021Y-123991785D02*
X285799402Y-124039404D01*
X285799402Y-124039404D02*
X285704164Y-124087023D01*
X285704164Y-124087023D02*
X285656545Y-124087023D01*
X285656545Y-124087023D02*
X285561307Y-124039404D01*
X285561307Y-124039404D02*
X285513688Y-123991785D01*
X285513688Y-123991785D02*
X285466069Y-123896547D01*
X285466069Y-123896547D02*
X285466069Y-123706071D01*
X285466069Y-123706071D02*
X285513688Y-123610833D01*
X285513688Y-123610833D02*
X285561307Y-123563214D01*
X285561307Y-123563214D02*
X285656545Y-123515595D01*
X285656545Y-123515595D02*
X285704164Y-123515595D01*
X285704164Y-123515595D02*
X285799402Y-123563214D01*
X285799402Y-123563214D02*
X285847021Y-123610833D01*
X285847021Y-123610833D02*
X285894640Y-123706071D01*
X285894640Y-123706071D02*
X285894640Y-123896547D01*
X285894640Y-123896547D02*
X285942259Y-123991785D01*
X285942259Y-123991785D02*
X285989878Y-124039404D01*
X285989878Y-124039404D02*
X286085116Y-124087023D01*
X286085116Y-124087023D02*
X286275592Y-124087023D01*
X286275592Y-124087023D02*
X286370830Y-124039404D01*
X286370830Y-124039404D02*
X286418450Y-123991785D01*
X286418450Y-123991785D02*
X286466069Y-123896547D01*
X286466069Y-123896547D02*
X286466069Y-123706071D01*
X286466069Y-123706071D02*
X286418450Y-123610833D01*
X286418450Y-123610833D02*
X286370830Y-123563214D01*
X286370830Y-123563214D02*
X286275592Y-123515595D01*
X286275592Y-123515595D02*
X286085116Y-123515595D01*
X286085116Y-123515595D02*
X285989878Y-123563214D01*
X285989878Y-123563214D02*
X285942259Y-123610833D01*
X285942259Y-123610833D02*
X285894640Y-123706071D01*
X286786069Y-128849404D02*
X285786069Y-128849404D01*
X286786069Y-128277976D02*
X286214640Y-128706547D01*
X285786069Y-128277976D02*
X286357497Y-128849404D01*
X169784819Y-87891785D02*
X168784819Y-87891785D01*
X168784819Y-87891785D02*
X168784819Y-87653690D01*
X168784819Y-87653690D02*
X168832438Y-87510833D01*
X168832438Y-87510833D02*
X168927676Y-87415595D01*
X168927676Y-87415595D02*
X169022914Y-87367976D01*
X169022914Y-87367976D02*
X169213390Y-87320357D01*
X169213390Y-87320357D02*
X169356247Y-87320357D01*
X169356247Y-87320357D02*
X169546723Y-87367976D01*
X169546723Y-87367976D02*
X169641961Y-87415595D01*
X169641961Y-87415595D02*
X169737200Y-87510833D01*
X169737200Y-87510833D02*
X169784819Y-87653690D01*
X169784819Y-87653690D02*
X169784819Y-87891785D01*
X168784819Y-86987023D02*
X168784819Y-86367976D01*
X168784819Y-86367976D02*
X169165771Y-86701309D01*
X169165771Y-86701309D02*
X169165771Y-86558452D01*
X169165771Y-86558452D02*
X169213390Y-86463214D01*
X169213390Y-86463214D02*
X169261009Y-86415595D01*
X169261009Y-86415595D02*
X169356247Y-86367976D01*
X169356247Y-86367976D02*
X169594342Y-86367976D01*
X169594342Y-86367976D02*
X169689580Y-86415595D01*
X169689580Y-86415595D02*
X169737200Y-86463214D01*
X169737200Y-86463214D02*
X169784819Y-86558452D01*
X169784819Y-86558452D02*
X169784819Y-86844166D01*
X169784819Y-86844166D02*
X169737200Y-86939404D01*
X169737200Y-86939404D02*
X169689580Y-86987023D01*
X168784819Y-85510833D02*
X168784819Y-85701309D01*
X168784819Y-85701309D02*
X168832438Y-85796547D01*
X168832438Y-85796547D02*
X168880057Y-85844166D01*
X168880057Y-85844166D02*
X169022914Y-85939404D01*
X169022914Y-85939404D02*
X169213390Y-85987023D01*
X169213390Y-85987023D02*
X169594342Y-85987023D01*
X169594342Y-85987023D02*
X169689580Y-85939404D01*
X169689580Y-85939404D02*
X169737200Y-85891785D01*
X169737200Y-85891785D02*
X169784819Y-85796547D01*
X169784819Y-85796547D02*
X169784819Y-85606071D01*
X169784819Y-85606071D02*
X169737200Y-85510833D01*
X169737200Y-85510833D02*
X169689580Y-85463214D01*
X169689580Y-85463214D02*
X169594342Y-85415595D01*
X169594342Y-85415595D02*
X169356247Y-85415595D01*
X169356247Y-85415595D02*
X169261009Y-85463214D01*
X169261009Y-85463214D02*
X169213390Y-85510833D01*
X169213390Y-85510833D02*
X169165771Y-85606071D01*
X169165771Y-85606071D02*
X169165771Y-85796547D01*
X169165771Y-85796547D02*
X169213390Y-85891785D01*
X169213390Y-85891785D02*
X169261009Y-85939404D01*
X169261009Y-85939404D02*
X169356247Y-85987023D01*
X170104819Y-90749404D02*
X169104819Y-90749404D01*
X170104819Y-90177976D02*
X169533390Y-90606547D01*
X169104819Y-90177976D02*
X169676247Y-90749404D01*
X274559819Y-68841785D02*
X273559819Y-68841785D01*
X273559819Y-68841785D02*
X273559819Y-68603690D01*
X273559819Y-68603690D02*
X273607438Y-68460833D01*
X273607438Y-68460833D02*
X273702676Y-68365595D01*
X273702676Y-68365595D02*
X273797914Y-68317976D01*
X273797914Y-68317976D02*
X273988390Y-68270357D01*
X273988390Y-68270357D02*
X274131247Y-68270357D01*
X274131247Y-68270357D02*
X274321723Y-68317976D01*
X274321723Y-68317976D02*
X274416961Y-68365595D01*
X274416961Y-68365595D02*
X274512200Y-68460833D01*
X274512200Y-68460833D02*
X274559819Y-68603690D01*
X274559819Y-68603690D02*
X274559819Y-68841785D01*
X273655057Y-67889404D02*
X273607438Y-67841785D01*
X273607438Y-67841785D02*
X273559819Y-67746547D01*
X273559819Y-67746547D02*
X273559819Y-67508452D01*
X273559819Y-67508452D02*
X273607438Y-67413214D01*
X273607438Y-67413214D02*
X273655057Y-67365595D01*
X273655057Y-67365595D02*
X273750295Y-67317976D01*
X273750295Y-67317976D02*
X273845533Y-67317976D01*
X273845533Y-67317976D02*
X273988390Y-67365595D01*
X273988390Y-67365595D02*
X274559819Y-67937023D01*
X274559819Y-67937023D02*
X274559819Y-67317976D01*
X273988390Y-66746547D02*
X273940771Y-66841785D01*
X273940771Y-66841785D02*
X273893152Y-66889404D01*
X273893152Y-66889404D02*
X273797914Y-66937023D01*
X273797914Y-66937023D02*
X273750295Y-66937023D01*
X273750295Y-66937023D02*
X273655057Y-66889404D01*
X273655057Y-66889404D02*
X273607438Y-66841785D01*
X273607438Y-66841785D02*
X273559819Y-66746547D01*
X273559819Y-66746547D02*
X273559819Y-66556071D01*
X273559819Y-66556071D02*
X273607438Y-66460833D01*
X273607438Y-66460833D02*
X273655057Y-66413214D01*
X273655057Y-66413214D02*
X273750295Y-66365595D01*
X273750295Y-66365595D02*
X273797914Y-66365595D01*
X273797914Y-66365595D02*
X273893152Y-66413214D01*
X273893152Y-66413214D02*
X273940771Y-66460833D01*
X273940771Y-66460833D02*
X273988390Y-66556071D01*
X273988390Y-66556071D02*
X273988390Y-66746547D01*
X273988390Y-66746547D02*
X274036009Y-66841785D01*
X274036009Y-66841785D02*
X274083628Y-66889404D01*
X274083628Y-66889404D02*
X274178866Y-66937023D01*
X274178866Y-66937023D02*
X274369342Y-66937023D01*
X274369342Y-66937023D02*
X274464580Y-66889404D01*
X274464580Y-66889404D02*
X274512200Y-66841785D01*
X274512200Y-66841785D02*
X274559819Y-66746547D01*
X274559819Y-66746547D02*
X274559819Y-66556071D01*
X274559819Y-66556071D02*
X274512200Y-66460833D01*
X274512200Y-66460833D02*
X274464580Y-66413214D01*
X274464580Y-66413214D02*
X274369342Y-66365595D01*
X274369342Y-66365595D02*
X274178866Y-66365595D01*
X274178866Y-66365595D02*
X274083628Y-66413214D01*
X274083628Y-66413214D02*
X274036009Y-66460833D01*
X274036009Y-66460833D02*
X273988390Y-66556071D01*
X274879819Y-71699404D02*
X273879819Y-71699404D01*
X274879819Y-71127976D02*
X274308390Y-71556547D01*
X273879819Y-71127976D02*
X274451247Y-71699404D01*
X136447319Y-106941785D02*
X135447319Y-106941785D01*
X135447319Y-106941785D02*
X135447319Y-106703690D01*
X135447319Y-106703690D02*
X135494938Y-106560833D01*
X135494938Y-106560833D02*
X135590176Y-106465595D01*
X135590176Y-106465595D02*
X135685414Y-106417976D01*
X135685414Y-106417976D02*
X135875890Y-106370357D01*
X135875890Y-106370357D02*
X136018747Y-106370357D01*
X136018747Y-106370357D02*
X136209223Y-106417976D01*
X136209223Y-106417976D02*
X136304461Y-106465595D01*
X136304461Y-106465595D02*
X136399700Y-106560833D01*
X136399700Y-106560833D02*
X136447319Y-106703690D01*
X136447319Y-106703690D02*
X136447319Y-106941785D01*
X135780652Y-105513214D02*
X136447319Y-105513214D01*
X135399700Y-105751309D02*
X136113985Y-105989404D01*
X136113985Y-105989404D02*
X136113985Y-105370357D01*
X135875890Y-104846547D02*
X135828271Y-104941785D01*
X135828271Y-104941785D02*
X135780652Y-104989404D01*
X135780652Y-104989404D02*
X135685414Y-105037023D01*
X135685414Y-105037023D02*
X135637795Y-105037023D01*
X135637795Y-105037023D02*
X135542557Y-104989404D01*
X135542557Y-104989404D02*
X135494938Y-104941785D01*
X135494938Y-104941785D02*
X135447319Y-104846547D01*
X135447319Y-104846547D02*
X135447319Y-104656071D01*
X135447319Y-104656071D02*
X135494938Y-104560833D01*
X135494938Y-104560833D02*
X135542557Y-104513214D01*
X135542557Y-104513214D02*
X135637795Y-104465595D01*
X135637795Y-104465595D02*
X135685414Y-104465595D01*
X135685414Y-104465595D02*
X135780652Y-104513214D01*
X135780652Y-104513214D02*
X135828271Y-104560833D01*
X135828271Y-104560833D02*
X135875890Y-104656071D01*
X135875890Y-104656071D02*
X135875890Y-104846547D01*
X135875890Y-104846547D02*
X135923509Y-104941785D01*
X135923509Y-104941785D02*
X135971128Y-104989404D01*
X135971128Y-104989404D02*
X136066366Y-105037023D01*
X136066366Y-105037023D02*
X136256842Y-105037023D01*
X136256842Y-105037023D02*
X136352080Y-104989404D01*
X136352080Y-104989404D02*
X136399700Y-104941785D01*
X136399700Y-104941785D02*
X136447319Y-104846547D01*
X136447319Y-104846547D02*
X136447319Y-104656071D01*
X136447319Y-104656071D02*
X136399700Y-104560833D01*
X136399700Y-104560833D02*
X136352080Y-104513214D01*
X136352080Y-104513214D02*
X136256842Y-104465595D01*
X136256842Y-104465595D02*
X136066366Y-104465595D01*
X136066366Y-104465595D02*
X135971128Y-104513214D01*
X135971128Y-104513214D02*
X135923509Y-104560833D01*
X135923509Y-104560833D02*
X135875890Y-104656071D01*
X136767319Y-109799404D02*
X135767319Y-109799404D01*
X136767319Y-109227976D02*
X136195890Y-109656547D01*
X135767319Y-109227976D02*
X136338747Y-109799404D01*
X131684819Y-87891785D02*
X130684819Y-87891785D01*
X130684819Y-87891785D02*
X130684819Y-87653690D01*
X130684819Y-87653690D02*
X130732438Y-87510833D01*
X130732438Y-87510833D02*
X130827676Y-87415595D01*
X130827676Y-87415595D02*
X130922914Y-87367976D01*
X130922914Y-87367976D02*
X131113390Y-87320357D01*
X131113390Y-87320357D02*
X131256247Y-87320357D01*
X131256247Y-87320357D02*
X131446723Y-87367976D01*
X131446723Y-87367976D02*
X131541961Y-87415595D01*
X131541961Y-87415595D02*
X131637200Y-87510833D01*
X131637200Y-87510833D02*
X131684819Y-87653690D01*
X131684819Y-87653690D02*
X131684819Y-87891785D01*
X130684819Y-86987023D02*
X130684819Y-86367976D01*
X130684819Y-86367976D02*
X131065771Y-86701309D01*
X131065771Y-86701309D02*
X131065771Y-86558452D01*
X131065771Y-86558452D02*
X131113390Y-86463214D01*
X131113390Y-86463214D02*
X131161009Y-86415595D01*
X131161009Y-86415595D02*
X131256247Y-86367976D01*
X131256247Y-86367976D02*
X131494342Y-86367976D01*
X131494342Y-86367976D02*
X131589580Y-86415595D01*
X131589580Y-86415595D02*
X131637200Y-86463214D01*
X131637200Y-86463214D02*
X131684819Y-86558452D01*
X131684819Y-86558452D02*
X131684819Y-86844166D01*
X131684819Y-86844166D02*
X131637200Y-86939404D01*
X131637200Y-86939404D02*
X131589580Y-86987023D01*
X131018152Y-85510833D02*
X131684819Y-85510833D01*
X130637200Y-85748928D02*
X131351485Y-85987023D01*
X131351485Y-85987023D02*
X131351485Y-85367976D01*
X132004819Y-90749404D02*
X131004819Y-90749404D01*
X132004819Y-90177976D02*
X131433390Y-90606547D01*
X131004819Y-90177976D02*
X131576247Y-90749404D01*
X141209819Y-68841785D02*
X140209819Y-68841785D01*
X140209819Y-68841785D02*
X140209819Y-68603690D01*
X140209819Y-68603690D02*
X140257438Y-68460833D01*
X140257438Y-68460833D02*
X140352676Y-68365595D01*
X140352676Y-68365595D02*
X140447914Y-68317976D01*
X140447914Y-68317976D02*
X140638390Y-68270357D01*
X140638390Y-68270357D02*
X140781247Y-68270357D01*
X140781247Y-68270357D02*
X140971723Y-68317976D01*
X140971723Y-68317976D02*
X141066961Y-68365595D01*
X141066961Y-68365595D02*
X141162200Y-68460833D01*
X141162200Y-68460833D02*
X141209819Y-68603690D01*
X141209819Y-68603690D02*
X141209819Y-68841785D01*
X140305057Y-67889404D02*
X140257438Y-67841785D01*
X140257438Y-67841785D02*
X140209819Y-67746547D01*
X140209819Y-67746547D02*
X140209819Y-67508452D01*
X140209819Y-67508452D02*
X140257438Y-67413214D01*
X140257438Y-67413214D02*
X140305057Y-67365595D01*
X140305057Y-67365595D02*
X140400295Y-67317976D01*
X140400295Y-67317976D02*
X140495533Y-67317976D01*
X140495533Y-67317976D02*
X140638390Y-67365595D01*
X140638390Y-67365595D02*
X141209819Y-67937023D01*
X141209819Y-67937023D02*
X141209819Y-67317976D01*
X141209819Y-66365595D02*
X141209819Y-66937023D01*
X141209819Y-66651309D02*
X140209819Y-66651309D01*
X140209819Y-66651309D02*
X140352676Y-66746547D01*
X140352676Y-66746547D02*
X140447914Y-66841785D01*
X140447914Y-66841785D02*
X140495533Y-66937023D01*
X141529819Y-71699404D02*
X140529819Y-71699404D01*
X141529819Y-71127976D02*
X140958390Y-71556547D01*
X140529819Y-71127976D02*
X141101247Y-71699404D01*
X107872319Y-44553094D02*
X106872319Y-44553094D01*
X106872319Y-44553094D02*
X106872319Y-44314999D01*
X106872319Y-44314999D02*
X106919938Y-44172142D01*
X106919938Y-44172142D02*
X107015176Y-44076904D01*
X107015176Y-44076904D02*
X107110414Y-44029285D01*
X107110414Y-44029285D02*
X107300890Y-43981666D01*
X107300890Y-43981666D02*
X107443747Y-43981666D01*
X107443747Y-43981666D02*
X107634223Y-44029285D01*
X107634223Y-44029285D02*
X107729461Y-44076904D01*
X107729461Y-44076904D02*
X107824700Y-44172142D01*
X107824700Y-44172142D02*
X107872319Y-44314999D01*
X107872319Y-44314999D02*
X107872319Y-44553094D01*
X107205652Y-43124523D02*
X107872319Y-43124523D01*
X106824700Y-43362618D02*
X107538985Y-43600713D01*
X107538985Y-43600713D02*
X107538985Y-42981666D01*
X108192319Y-47886904D02*
X107192319Y-47886904D01*
X108192319Y-47315476D02*
X107620890Y-47744047D01*
X107192319Y-47315476D02*
X107763747Y-47886904D01*
X203122319Y-125991785D02*
X202122319Y-125991785D01*
X202122319Y-125991785D02*
X202122319Y-125753690D01*
X202122319Y-125753690D02*
X202169938Y-125610833D01*
X202169938Y-125610833D02*
X202265176Y-125515595D01*
X202265176Y-125515595D02*
X202360414Y-125467976D01*
X202360414Y-125467976D02*
X202550890Y-125420357D01*
X202550890Y-125420357D02*
X202693747Y-125420357D01*
X202693747Y-125420357D02*
X202884223Y-125467976D01*
X202884223Y-125467976D02*
X202979461Y-125515595D01*
X202979461Y-125515595D02*
X203074700Y-125610833D01*
X203074700Y-125610833D02*
X203122319Y-125753690D01*
X203122319Y-125753690D02*
X203122319Y-125991785D01*
X202122319Y-124563214D02*
X202122319Y-124753690D01*
X202122319Y-124753690D02*
X202169938Y-124848928D01*
X202169938Y-124848928D02*
X202217557Y-124896547D01*
X202217557Y-124896547D02*
X202360414Y-124991785D01*
X202360414Y-124991785D02*
X202550890Y-125039404D01*
X202550890Y-125039404D02*
X202931842Y-125039404D01*
X202931842Y-125039404D02*
X203027080Y-124991785D01*
X203027080Y-124991785D02*
X203074700Y-124944166D01*
X203074700Y-124944166D02*
X203122319Y-124848928D01*
X203122319Y-124848928D02*
X203122319Y-124658452D01*
X203122319Y-124658452D02*
X203074700Y-124563214D01*
X203074700Y-124563214D02*
X203027080Y-124515595D01*
X203027080Y-124515595D02*
X202931842Y-124467976D01*
X202931842Y-124467976D02*
X202693747Y-124467976D01*
X202693747Y-124467976D02*
X202598509Y-124515595D01*
X202598509Y-124515595D02*
X202550890Y-124563214D01*
X202550890Y-124563214D02*
X202503271Y-124658452D01*
X202503271Y-124658452D02*
X202503271Y-124848928D01*
X202503271Y-124848928D02*
X202550890Y-124944166D01*
X202550890Y-124944166D02*
X202598509Y-124991785D01*
X202598509Y-124991785D02*
X202693747Y-125039404D01*
X202455652Y-123610833D02*
X203122319Y-123610833D01*
X202074700Y-123848928D02*
X202788985Y-124087023D01*
X202788985Y-124087023D02*
X202788985Y-123467976D01*
X203442319Y-128849404D02*
X202442319Y-128849404D01*
X203442319Y-128277976D02*
X202870890Y-128706547D01*
X202442319Y-128277976D02*
X203013747Y-128849404D01*
X303134819Y-68841785D02*
X302134819Y-68841785D01*
X302134819Y-68841785D02*
X302134819Y-68603690D01*
X302134819Y-68603690D02*
X302182438Y-68460833D01*
X302182438Y-68460833D02*
X302277676Y-68365595D01*
X302277676Y-68365595D02*
X302372914Y-68317976D01*
X302372914Y-68317976D02*
X302563390Y-68270357D01*
X302563390Y-68270357D02*
X302706247Y-68270357D01*
X302706247Y-68270357D02*
X302896723Y-68317976D01*
X302896723Y-68317976D02*
X302991961Y-68365595D01*
X302991961Y-68365595D02*
X303087200Y-68460833D01*
X303087200Y-68460833D02*
X303134819Y-68603690D01*
X303134819Y-68603690D02*
X303134819Y-68841785D01*
X302230057Y-67889404D02*
X302182438Y-67841785D01*
X302182438Y-67841785D02*
X302134819Y-67746547D01*
X302134819Y-67746547D02*
X302134819Y-67508452D01*
X302134819Y-67508452D02*
X302182438Y-67413214D01*
X302182438Y-67413214D02*
X302230057Y-67365595D01*
X302230057Y-67365595D02*
X302325295Y-67317976D01*
X302325295Y-67317976D02*
X302420533Y-67317976D01*
X302420533Y-67317976D02*
X302563390Y-67365595D01*
X302563390Y-67365595D02*
X303134819Y-67937023D01*
X303134819Y-67937023D02*
X303134819Y-67317976D01*
X303134819Y-66841785D02*
X303134819Y-66651309D01*
X303134819Y-66651309D02*
X303087200Y-66556071D01*
X303087200Y-66556071D02*
X303039580Y-66508452D01*
X303039580Y-66508452D02*
X302896723Y-66413214D01*
X302896723Y-66413214D02*
X302706247Y-66365595D01*
X302706247Y-66365595D02*
X302325295Y-66365595D01*
X302325295Y-66365595D02*
X302230057Y-66413214D01*
X302230057Y-66413214D02*
X302182438Y-66460833D01*
X302182438Y-66460833D02*
X302134819Y-66556071D01*
X302134819Y-66556071D02*
X302134819Y-66746547D01*
X302134819Y-66746547D02*
X302182438Y-66841785D01*
X302182438Y-66841785D02*
X302230057Y-66889404D01*
X302230057Y-66889404D02*
X302325295Y-66937023D01*
X302325295Y-66937023D02*
X302563390Y-66937023D01*
X302563390Y-66937023D02*
X302658628Y-66889404D01*
X302658628Y-66889404D02*
X302706247Y-66841785D01*
X302706247Y-66841785D02*
X302753866Y-66746547D01*
X302753866Y-66746547D02*
X302753866Y-66556071D01*
X302753866Y-66556071D02*
X302706247Y-66460833D01*
X302706247Y-66460833D02*
X302658628Y-66413214D01*
X302658628Y-66413214D02*
X302563390Y-66365595D01*
X303454819Y-71699404D02*
X302454819Y-71699404D01*
X303454819Y-71127976D02*
X302883390Y-71556547D01*
X302454819Y-71127976D02*
X303026247Y-71699404D01*
X257891069Y-145041785D02*
X256891069Y-145041785D01*
X256891069Y-145041785D02*
X256891069Y-144803690D01*
X256891069Y-144803690D02*
X256938688Y-144660833D01*
X256938688Y-144660833D02*
X257033926Y-144565595D01*
X257033926Y-144565595D02*
X257129164Y-144517976D01*
X257129164Y-144517976D02*
X257319640Y-144470357D01*
X257319640Y-144470357D02*
X257462497Y-144470357D01*
X257462497Y-144470357D02*
X257652973Y-144517976D01*
X257652973Y-144517976D02*
X257748211Y-144565595D01*
X257748211Y-144565595D02*
X257843450Y-144660833D01*
X257843450Y-144660833D02*
X257891069Y-144803690D01*
X257891069Y-144803690D02*
X257891069Y-145041785D01*
X256891069Y-144137023D02*
X256891069Y-143470357D01*
X256891069Y-143470357D02*
X257891069Y-143898928D01*
X256891069Y-142613214D02*
X256891069Y-143089404D01*
X256891069Y-143089404D02*
X257367259Y-143137023D01*
X257367259Y-143137023D02*
X257319640Y-143089404D01*
X257319640Y-143089404D02*
X257272021Y-142994166D01*
X257272021Y-142994166D02*
X257272021Y-142756071D01*
X257272021Y-142756071D02*
X257319640Y-142660833D01*
X257319640Y-142660833D02*
X257367259Y-142613214D01*
X257367259Y-142613214D02*
X257462497Y-142565595D01*
X257462497Y-142565595D02*
X257700592Y-142565595D01*
X257700592Y-142565595D02*
X257795830Y-142613214D01*
X257795830Y-142613214D02*
X257843450Y-142660833D01*
X257843450Y-142660833D02*
X257891069Y-142756071D01*
X257891069Y-142756071D02*
X257891069Y-142994166D01*
X257891069Y-142994166D02*
X257843450Y-143089404D01*
X257843450Y-143089404D02*
X257795830Y-143137023D01*
X258211069Y-147899404D02*
X257211069Y-147899404D01*
X258211069Y-147327976D02*
X257639640Y-147756547D01*
X257211069Y-147327976D02*
X257782497Y-147899404D01*
X188834819Y-44553094D02*
X187834819Y-44553094D01*
X187834819Y-44553094D02*
X187834819Y-44314999D01*
X187834819Y-44314999D02*
X187882438Y-44172142D01*
X187882438Y-44172142D02*
X187977676Y-44076904D01*
X187977676Y-44076904D02*
X188072914Y-44029285D01*
X188072914Y-44029285D02*
X188263390Y-43981666D01*
X188263390Y-43981666D02*
X188406247Y-43981666D01*
X188406247Y-43981666D02*
X188596723Y-44029285D01*
X188596723Y-44029285D02*
X188691961Y-44076904D01*
X188691961Y-44076904D02*
X188787200Y-44172142D01*
X188787200Y-44172142D02*
X188834819Y-44314999D01*
X188834819Y-44314999D02*
X188834819Y-44553094D01*
X188263390Y-43410237D02*
X188215771Y-43505475D01*
X188215771Y-43505475D02*
X188168152Y-43553094D01*
X188168152Y-43553094D02*
X188072914Y-43600713D01*
X188072914Y-43600713D02*
X188025295Y-43600713D01*
X188025295Y-43600713D02*
X187930057Y-43553094D01*
X187930057Y-43553094D02*
X187882438Y-43505475D01*
X187882438Y-43505475D02*
X187834819Y-43410237D01*
X187834819Y-43410237D02*
X187834819Y-43219761D01*
X187834819Y-43219761D02*
X187882438Y-43124523D01*
X187882438Y-43124523D02*
X187930057Y-43076904D01*
X187930057Y-43076904D02*
X188025295Y-43029285D01*
X188025295Y-43029285D02*
X188072914Y-43029285D01*
X188072914Y-43029285D02*
X188168152Y-43076904D01*
X188168152Y-43076904D02*
X188215771Y-43124523D01*
X188215771Y-43124523D02*
X188263390Y-43219761D01*
X188263390Y-43219761D02*
X188263390Y-43410237D01*
X188263390Y-43410237D02*
X188311009Y-43505475D01*
X188311009Y-43505475D02*
X188358628Y-43553094D01*
X188358628Y-43553094D02*
X188453866Y-43600713D01*
X188453866Y-43600713D02*
X188644342Y-43600713D01*
X188644342Y-43600713D02*
X188739580Y-43553094D01*
X188739580Y-43553094D02*
X188787200Y-43505475D01*
X188787200Y-43505475D02*
X188834819Y-43410237D01*
X188834819Y-43410237D02*
X188834819Y-43219761D01*
X188834819Y-43219761D02*
X188787200Y-43124523D01*
X188787200Y-43124523D02*
X188739580Y-43076904D01*
X188739580Y-43076904D02*
X188644342Y-43029285D01*
X188644342Y-43029285D02*
X188453866Y-43029285D01*
X188453866Y-43029285D02*
X188358628Y-43076904D01*
X188358628Y-43076904D02*
X188311009Y-43124523D01*
X188311009Y-43124523D02*
X188263390Y-43219761D01*
X189154819Y-47886904D02*
X188154819Y-47886904D01*
X189154819Y-47315476D02*
X188583390Y-47744047D01*
X188154819Y-47315476D02*
X188726247Y-47886904D01*
X150734819Y-44553094D02*
X149734819Y-44553094D01*
X149734819Y-44553094D02*
X149734819Y-44314999D01*
X149734819Y-44314999D02*
X149782438Y-44172142D01*
X149782438Y-44172142D02*
X149877676Y-44076904D01*
X149877676Y-44076904D02*
X149972914Y-44029285D01*
X149972914Y-44029285D02*
X150163390Y-43981666D01*
X150163390Y-43981666D02*
X150306247Y-43981666D01*
X150306247Y-43981666D02*
X150496723Y-44029285D01*
X150496723Y-44029285D02*
X150591961Y-44076904D01*
X150591961Y-44076904D02*
X150687200Y-44172142D01*
X150687200Y-44172142D02*
X150734819Y-44314999D01*
X150734819Y-44314999D02*
X150734819Y-44553094D01*
X149734819Y-43124523D02*
X149734819Y-43314999D01*
X149734819Y-43314999D02*
X149782438Y-43410237D01*
X149782438Y-43410237D02*
X149830057Y-43457856D01*
X149830057Y-43457856D02*
X149972914Y-43553094D01*
X149972914Y-43553094D02*
X150163390Y-43600713D01*
X150163390Y-43600713D02*
X150544342Y-43600713D01*
X150544342Y-43600713D02*
X150639580Y-43553094D01*
X150639580Y-43553094D02*
X150687200Y-43505475D01*
X150687200Y-43505475D02*
X150734819Y-43410237D01*
X150734819Y-43410237D02*
X150734819Y-43219761D01*
X150734819Y-43219761D02*
X150687200Y-43124523D01*
X150687200Y-43124523D02*
X150639580Y-43076904D01*
X150639580Y-43076904D02*
X150544342Y-43029285D01*
X150544342Y-43029285D02*
X150306247Y-43029285D01*
X150306247Y-43029285D02*
X150211009Y-43076904D01*
X150211009Y-43076904D02*
X150163390Y-43124523D01*
X150163390Y-43124523D02*
X150115771Y-43219761D01*
X150115771Y-43219761D02*
X150115771Y-43410237D01*
X150115771Y-43410237D02*
X150163390Y-43505475D01*
X150163390Y-43505475D02*
X150211009Y-43553094D01*
X150211009Y-43553094D02*
X150306247Y-43600713D01*
X151054819Y-47886904D02*
X150054819Y-47886904D01*
X151054819Y-47315476D02*
X150483390Y-47744047D01*
X150054819Y-47315476D02*
X150626247Y-47886904D01*
X50722319Y-145041785D02*
X49722319Y-145041785D01*
X49722319Y-145041785D02*
X49722319Y-144803690D01*
X49722319Y-144803690D02*
X49769938Y-144660833D01*
X49769938Y-144660833D02*
X49865176Y-144565595D01*
X49865176Y-144565595D02*
X49960414Y-144517976D01*
X49960414Y-144517976D02*
X50150890Y-144470357D01*
X50150890Y-144470357D02*
X50293747Y-144470357D01*
X50293747Y-144470357D02*
X50484223Y-144517976D01*
X50484223Y-144517976D02*
X50579461Y-144565595D01*
X50579461Y-144565595D02*
X50674700Y-144660833D01*
X50674700Y-144660833D02*
X50722319Y-144803690D01*
X50722319Y-144803690D02*
X50722319Y-145041785D01*
X49722319Y-144137023D02*
X49722319Y-143470357D01*
X49722319Y-143470357D02*
X50722319Y-143898928D01*
X49722319Y-142898928D02*
X49722319Y-142803690D01*
X49722319Y-142803690D02*
X49769938Y-142708452D01*
X49769938Y-142708452D02*
X49817557Y-142660833D01*
X49817557Y-142660833D02*
X49912795Y-142613214D01*
X49912795Y-142613214D02*
X50103271Y-142565595D01*
X50103271Y-142565595D02*
X50341366Y-142565595D01*
X50341366Y-142565595D02*
X50531842Y-142613214D01*
X50531842Y-142613214D02*
X50627080Y-142660833D01*
X50627080Y-142660833D02*
X50674700Y-142708452D01*
X50674700Y-142708452D02*
X50722319Y-142803690D01*
X50722319Y-142803690D02*
X50722319Y-142898928D01*
X50722319Y-142898928D02*
X50674700Y-142994166D01*
X50674700Y-142994166D02*
X50627080Y-143041785D01*
X50627080Y-143041785D02*
X50531842Y-143089404D01*
X50531842Y-143089404D02*
X50341366Y-143137023D01*
X50341366Y-143137023D02*
X50103271Y-143137023D01*
X50103271Y-143137023D02*
X49912795Y-143089404D01*
X49912795Y-143089404D02*
X49817557Y-143041785D01*
X49817557Y-143041785D02*
X49769938Y-142994166D01*
X49769938Y-142994166D02*
X49722319Y-142898928D01*
X51042319Y-147899404D02*
X50042319Y-147899404D01*
X51042319Y-147327976D02*
X50470890Y-147756547D01*
X50042319Y-147327976D02*
X50613747Y-147899404D01*
X145972319Y-125991785D02*
X144972319Y-125991785D01*
X144972319Y-125991785D02*
X144972319Y-125753690D01*
X144972319Y-125753690D02*
X145019938Y-125610833D01*
X145019938Y-125610833D02*
X145115176Y-125515595D01*
X145115176Y-125515595D02*
X145210414Y-125467976D01*
X145210414Y-125467976D02*
X145400890Y-125420357D01*
X145400890Y-125420357D02*
X145543747Y-125420357D01*
X145543747Y-125420357D02*
X145734223Y-125467976D01*
X145734223Y-125467976D02*
X145829461Y-125515595D01*
X145829461Y-125515595D02*
X145924700Y-125610833D01*
X145924700Y-125610833D02*
X145972319Y-125753690D01*
X145972319Y-125753690D02*
X145972319Y-125991785D01*
X144972319Y-124563214D02*
X144972319Y-124753690D01*
X144972319Y-124753690D02*
X145019938Y-124848928D01*
X145019938Y-124848928D02*
X145067557Y-124896547D01*
X145067557Y-124896547D02*
X145210414Y-124991785D01*
X145210414Y-124991785D02*
X145400890Y-125039404D01*
X145400890Y-125039404D02*
X145781842Y-125039404D01*
X145781842Y-125039404D02*
X145877080Y-124991785D01*
X145877080Y-124991785D02*
X145924700Y-124944166D01*
X145924700Y-124944166D02*
X145972319Y-124848928D01*
X145972319Y-124848928D02*
X145972319Y-124658452D01*
X145972319Y-124658452D02*
X145924700Y-124563214D01*
X145924700Y-124563214D02*
X145877080Y-124515595D01*
X145877080Y-124515595D02*
X145781842Y-124467976D01*
X145781842Y-124467976D02*
X145543747Y-124467976D01*
X145543747Y-124467976D02*
X145448509Y-124515595D01*
X145448509Y-124515595D02*
X145400890Y-124563214D01*
X145400890Y-124563214D02*
X145353271Y-124658452D01*
X145353271Y-124658452D02*
X145353271Y-124848928D01*
X145353271Y-124848928D02*
X145400890Y-124944166D01*
X145400890Y-124944166D02*
X145448509Y-124991785D01*
X145448509Y-124991785D02*
X145543747Y-125039404D01*
X145972319Y-123515595D02*
X145972319Y-124087023D01*
X145972319Y-123801309D02*
X144972319Y-123801309D01*
X144972319Y-123801309D02*
X145115176Y-123896547D01*
X145115176Y-123896547D02*
X145210414Y-123991785D01*
X145210414Y-123991785D02*
X145258033Y-124087023D01*
X146292319Y-128849404D02*
X145292319Y-128849404D01*
X146292319Y-128277976D02*
X145720890Y-128706547D01*
X145292319Y-128277976D02*
X145863747Y-128849404D01*
X319803569Y-148613660D02*
X318803569Y-148613660D01*
X318803569Y-148613660D02*
X318803569Y-148375565D01*
X318803569Y-148375565D02*
X318851188Y-148232708D01*
X318851188Y-148232708D02*
X318946426Y-148137470D01*
X318946426Y-148137470D02*
X319041664Y-148089851D01*
X319041664Y-148089851D02*
X319232140Y-148042232D01*
X319232140Y-148042232D02*
X319374997Y-148042232D01*
X319374997Y-148042232D02*
X319565473Y-148089851D01*
X319565473Y-148089851D02*
X319660711Y-148137470D01*
X319660711Y-148137470D02*
X319755950Y-148232708D01*
X319755950Y-148232708D02*
X319803569Y-148375565D01*
X319803569Y-148375565D02*
X319803569Y-148613660D01*
X318803569Y-147708898D02*
X318803569Y-147042232D01*
X318803569Y-147042232D02*
X319803569Y-147470803D01*
X319232140Y-146518422D02*
X319184521Y-146613660D01*
X319184521Y-146613660D02*
X319136902Y-146661279D01*
X319136902Y-146661279D02*
X319041664Y-146708898D01*
X319041664Y-146708898D02*
X318994045Y-146708898D01*
X318994045Y-146708898D02*
X318898807Y-146661279D01*
X318898807Y-146661279D02*
X318851188Y-146613660D01*
X318851188Y-146613660D02*
X318803569Y-146518422D01*
X318803569Y-146518422D02*
X318803569Y-146327946D01*
X318803569Y-146327946D02*
X318851188Y-146232708D01*
X318851188Y-146232708D02*
X318898807Y-146185089D01*
X318898807Y-146185089D02*
X318994045Y-146137470D01*
X318994045Y-146137470D02*
X319041664Y-146137470D01*
X319041664Y-146137470D02*
X319136902Y-146185089D01*
X319136902Y-146185089D02*
X319184521Y-146232708D01*
X319184521Y-146232708D02*
X319232140Y-146327946D01*
X319232140Y-146327946D02*
X319232140Y-146518422D01*
X319232140Y-146518422D02*
X319279759Y-146613660D01*
X319279759Y-146613660D02*
X319327378Y-146661279D01*
X319327378Y-146661279D02*
X319422616Y-146708898D01*
X319422616Y-146708898D02*
X319613092Y-146708898D01*
X319613092Y-146708898D02*
X319708330Y-146661279D01*
X319708330Y-146661279D02*
X319755950Y-146613660D01*
X319755950Y-146613660D02*
X319803569Y-146518422D01*
X319803569Y-146518422D02*
X319803569Y-146327946D01*
X319803569Y-146327946D02*
X319755950Y-146232708D01*
X319755950Y-146232708D02*
X319708330Y-146185089D01*
X319708330Y-146185089D02*
X319613092Y-146137470D01*
X319613092Y-146137470D02*
X319422616Y-146137470D01*
X319422616Y-146137470D02*
X319327378Y-146185089D01*
X319327378Y-146185089D02*
X319279759Y-146232708D01*
X319279759Y-146232708D02*
X319232140Y-146327946D01*
X320123569Y-151471279D02*
X319123569Y-151471279D01*
X320123569Y-150899851D02*
X319552140Y-151328422D01*
X319123569Y-150899851D02*
X319694997Y-151471279D01*
X169784819Y-44553094D02*
X168784819Y-44553094D01*
X168784819Y-44553094D02*
X168784819Y-44314999D01*
X168784819Y-44314999D02*
X168832438Y-44172142D01*
X168832438Y-44172142D02*
X168927676Y-44076904D01*
X168927676Y-44076904D02*
X169022914Y-44029285D01*
X169022914Y-44029285D02*
X169213390Y-43981666D01*
X169213390Y-43981666D02*
X169356247Y-43981666D01*
X169356247Y-43981666D02*
X169546723Y-44029285D01*
X169546723Y-44029285D02*
X169641961Y-44076904D01*
X169641961Y-44076904D02*
X169737200Y-44172142D01*
X169737200Y-44172142D02*
X169784819Y-44314999D01*
X169784819Y-44314999D02*
X169784819Y-44553094D01*
X168784819Y-43648332D02*
X168784819Y-42981666D01*
X168784819Y-42981666D02*
X169784819Y-43410237D01*
X170104819Y-47886904D02*
X169104819Y-47886904D01*
X170104819Y-47315476D02*
X169533390Y-47744047D01*
X169104819Y-47315476D02*
X169676247Y-47886904D01*
X174547319Y-106941785D02*
X173547319Y-106941785D01*
X173547319Y-106941785D02*
X173547319Y-106703690D01*
X173547319Y-106703690D02*
X173594938Y-106560833D01*
X173594938Y-106560833D02*
X173690176Y-106465595D01*
X173690176Y-106465595D02*
X173785414Y-106417976D01*
X173785414Y-106417976D02*
X173975890Y-106370357D01*
X173975890Y-106370357D02*
X174118747Y-106370357D01*
X174118747Y-106370357D02*
X174309223Y-106417976D01*
X174309223Y-106417976D02*
X174404461Y-106465595D01*
X174404461Y-106465595D02*
X174499700Y-106560833D01*
X174499700Y-106560833D02*
X174547319Y-106703690D01*
X174547319Y-106703690D02*
X174547319Y-106941785D01*
X173547319Y-105465595D02*
X173547319Y-105941785D01*
X173547319Y-105941785D02*
X174023509Y-105989404D01*
X174023509Y-105989404D02*
X173975890Y-105941785D01*
X173975890Y-105941785D02*
X173928271Y-105846547D01*
X173928271Y-105846547D02*
X173928271Y-105608452D01*
X173928271Y-105608452D02*
X173975890Y-105513214D01*
X173975890Y-105513214D02*
X174023509Y-105465595D01*
X174023509Y-105465595D02*
X174118747Y-105417976D01*
X174118747Y-105417976D02*
X174356842Y-105417976D01*
X174356842Y-105417976D02*
X174452080Y-105465595D01*
X174452080Y-105465595D02*
X174499700Y-105513214D01*
X174499700Y-105513214D02*
X174547319Y-105608452D01*
X174547319Y-105608452D02*
X174547319Y-105846547D01*
X174547319Y-105846547D02*
X174499700Y-105941785D01*
X174499700Y-105941785D02*
X174452080Y-105989404D01*
X173547319Y-104798928D02*
X173547319Y-104703690D01*
X173547319Y-104703690D02*
X173594938Y-104608452D01*
X173594938Y-104608452D02*
X173642557Y-104560833D01*
X173642557Y-104560833D02*
X173737795Y-104513214D01*
X173737795Y-104513214D02*
X173928271Y-104465595D01*
X173928271Y-104465595D02*
X174166366Y-104465595D01*
X174166366Y-104465595D02*
X174356842Y-104513214D01*
X174356842Y-104513214D02*
X174452080Y-104560833D01*
X174452080Y-104560833D02*
X174499700Y-104608452D01*
X174499700Y-104608452D02*
X174547319Y-104703690D01*
X174547319Y-104703690D02*
X174547319Y-104798928D01*
X174547319Y-104798928D02*
X174499700Y-104894166D01*
X174499700Y-104894166D02*
X174452080Y-104941785D01*
X174452080Y-104941785D02*
X174356842Y-104989404D01*
X174356842Y-104989404D02*
X174166366Y-105037023D01*
X174166366Y-105037023D02*
X173928271Y-105037023D01*
X173928271Y-105037023D02*
X173737795Y-104989404D01*
X173737795Y-104989404D02*
X173642557Y-104941785D01*
X173642557Y-104941785D02*
X173594938Y-104894166D01*
X173594938Y-104894166D02*
X173547319Y-104798928D01*
X174867319Y-109799404D02*
X173867319Y-109799404D01*
X174867319Y-109227976D02*
X174295890Y-109656547D01*
X173867319Y-109227976D02*
X174438747Y-109799404D01*
X226934819Y-87891785D02*
X225934819Y-87891785D01*
X225934819Y-87891785D02*
X225934819Y-87653690D01*
X225934819Y-87653690D02*
X225982438Y-87510833D01*
X225982438Y-87510833D02*
X226077676Y-87415595D01*
X226077676Y-87415595D02*
X226172914Y-87367976D01*
X226172914Y-87367976D02*
X226363390Y-87320357D01*
X226363390Y-87320357D02*
X226506247Y-87320357D01*
X226506247Y-87320357D02*
X226696723Y-87367976D01*
X226696723Y-87367976D02*
X226791961Y-87415595D01*
X226791961Y-87415595D02*
X226887200Y-87510833D01*
X226887200Y-87510833D02*
X226934819Y-87653690D01*
X226934819Y-87653690D02*
X226934819Y-87891785D01*
X225934819Y-86987023D02*
X225934819Y-86367976D01*
X225934819Y-86367976D02*
X226315771Y-86701309D01*
X226315771Y-86701309D02*
X226315771Y-86558452D01*
X226315771Y-86558452D02*
X226363390Y-86463214D01*
X226363390Y-86463214D02*
X226411009Y-86415595D01*
X226411009Y-86415595D02*
X226506247Y-86367976D01*
X226506247Y-86367976D02*
X226744342Y-86367976D01*
X226744342Y-86367976D02*
X226839580Y-86415595D01*
X226839580Y-86415595D02*
X226887200Y-86463214D01*
X226887200Y-86463214D02*
X226934819Y-86558452D01*
X226934819Y-86558452D02*
X226934819Y-86844166D01*
X226934819Y-86844166D02*
X226887200Y-86939404D01*
X226887200Y-86939404D02*
X226839580Y-86987023D01*
X226934819Y-85891785D02*
X226934819Y-85701309D01*
X226934819Y-85701309D02*
X226887200Y-85606071D01*
X226887200Y-85606071D02*
X226839580Y-85558452D01*
X226839580Y-85558452D02*
X226696723Y-85463214D01*
X226696723Y-85463214D02*
X226506247Y-85415595D01*
X226506247Y-85415595D02*
X226125295Y-85415595D01*
X226125295Y-85415595D02*
X226030057Y-85463214D01*
X226030057Y-85463214D02*
X225982438Y-85510833D01*
X225982438Y-85510833D02*
X225934819Y-85606071D01*
X225934819Y-85606071D02*
X225934819Y-85796547D01*
X225934819Y-85796547D02*
X225982438Y-85891785D01*
X225982438Y-85891785D02*
X226030057Y-85939404D01*
X226030057Y-85939404D02*
X226125295Y-85987023D01*
X226125295Y-85987023D02*
X226363390Y-85987023D01*
X226363390Y-85987023D02*
X226458628Y-85939404D01*
X226458628Y-85939404D02*
X226506247Y-85891785D01*
X226506247Y-85891785D02*
X226553866Y-85796547D01*
X226553866Y-85796547D02*
X226553866Y-85606071D01*
X226553866Y-85606071D02*
X226506247Y-85510833D01*
X226506247Y-85510833D02*
X226458628Y-85463214D01*
X226458628Y-85463214D02*
X226363390Y-85415595D01*
X227254819Y-90749404D02*
X226254819Y-90749404D01*
X227254819Y-90177976D02*
X226683390Y-90606547D01*
X226254819Y-90177976D02*
X226826247Y-90749404D01*
X103109819Y-68841785D02*
X102109819Y-68841785D01*
X102109819Y-68841785D02*
X102109819Y-68603690D01*
X102109819Y-68603690D02*
X102157438Y-68460833D01*
X102157438Y-68460833D02*
X102252676Y-68365595D01*
X102252676Y-68365595D02*
X102347914Y-68317976D01*
X102347914Y-68317976D02*
X102538390Y-68270357D01*
X102538390Y-68270357D02*
X102681247Y-68270357D01*
X102681247Y-68270357D02*
X102871723Y-68317976D01*
X102871723Y-68317976D02*
X102966961Y-68365595D01*
X102966961Y-68365595D02*
X103062200Y-68460833D01*
X103062200Y-68460833D02*
X103109819Y-68603690D01*
X103109819Y-68603690D02*
X103109819Y-68841785D01*
X103109819Y-67317976D02*
X103109819Y-67889404D01*
X103109819Y-67603690D02*
X102109819Y-67603690D01*
X102109819Y-67603690D02*
X102252676Y-67698928D01*
X102252676Y-67698928D02*
X102347914Y-67794166D01*
X102347914Y-67794166D02*
X102395533Y-67889404D01*
X103109819Y-66841785D02*
X103109819Y-66651309D01*
X103109819Y-66651309D02*
X103062200Y-66556071D01*
X103062200Y-66556071D02*
X103014580Y-66508452D01*
X103014580Y-66508452D02*
X102871723Y-66413214D01*
X102871723Y-66413214D02*
X102681247Y-66365595D01*
X102681247Y-66365595D02*
X102300295Y-66365595D01*
X102300295Y-66365595D02*
X102205057Y-66413214D01*
X102205057Y-66413214D02*
X102157438Y-66460833D01*
X102157438Y-66460833D02*
X102109819Y-66556071D01*
X102109819Y-66556071D02*
X102109819Y-66746547D01*
X102109819Y-66746547D02*
X102157438Y-66841785D01*
X102157438Y-66841785D02*
X102205057Y-66889404D01*
X102205057Y-66889404D02*
X102300295Y-66937023D01*
X102300295Y-66937023D02*
X102538390Y-66937023D01*
X102538390Y-66937023D02*
X102633628Y-66889404D01*
X102633628Y-66889404D02*
X102681247Y-66841785D01*
X102681247Y-66841785D02*
X102728866Y-66746547D01*
X102728866Y-66746547D02*
X102728866Y-66556071D01*
X102728866Y-66556071D02*
X102681247Y-66460833D01*
X102681247Y-66460833D02*
X102633628Y-66413214D01*
X102633628Y-66413214D02*
X102538390Y-66365595D01*
X103429819Y-71699404D02*
X102429819Y-71699404D01*
X103429819Y-71127976D02*
X102858390Y-71556547D01*
X102429819Y-71127976D02*
X103001247Y-71699404D01*
X74534819Y-145041785D02*
X73534819Y-145041785D01*
X73534819Y-145041785D02*
X73534819Y-144803690D01*
X73534819Y-144803690D02*
X73582438Y-144660833D01*
X73582438Y-144660833D02*
X73677676Y-144565595D01*
X73677676Y-144565595D02*
X73772914Y-144517976D01*
X73772914Y-144517976D02*
X73963390Y-144470357D01*
X73963390Y-144470357D02*
X74106247Y-144470357D01*
X74106247Y-144470357D02*
X74296723Y-144517976D01*
X74296723Y-144517976D02*
X74391961Y-144565595D01*
X74391961Y-144565595D02*
X74487200Y-144660833D01*
X74487200Y-144660833D02*
X74534819Y-144803690D01*
X74534819Y-144803690D02*
X74534819Y-145041785D01*
X73534819Y-144137023D02*
X73534819Y-143470357D01*
X73534819Y-143470357D02*
X74534819Y-143898928D01*
X74534819Y-142565595D02*
X74534819Y-143137023D01*
X74534819Y-142851309D02*
X73534819Y-142851309D01*
X73534819Y-142851309D02*
X73677676Y-142946547D01*
X73677676Y-142946547D02*
X73772914Y-143041785D01*
X73772914Y-143041785D02*
X73820533Y-143137023D01*
X74854819Y-147899404D02*
X73854819Y-147899404D01*
X74854819Y-147327976D02*
X74283390Y-147756547D01*
X73854819Y-147327976D02*
X74426247Y-147899404D01*
X165022319Y-125991785D02*
X164022319Y-125991785D01*
X164022319Y-125991785D02*
X164022319Y-125753690D01*
X164022319Y-125753690D02*
X164069938Y-125610833D01*
X164069938Y-125610833D02*
X164165176Y-125515595D01*
X164165176Y-125515595D02*
X164260414Y-125467976D01*
X164260414Y-125467976D02*
X164450890Y-125420357D01*
X164450890Y-125420357D02*
X164593747Y-125420357D01*
X164593747Y-125420357D02*
X164784223Y-125467976D01*
X164784223Y-125467976D02*
X164879461Y-125515595D01*
X164879461Y-125515595D02*
X164974700Y-125610833D01*
X164974700Y-125610833D02*
X165022319Y-125753690D01*
X165022319Y-125753690D02*
X165022319Y-125991785D01*
X164022319Y-124563214D02*
X164022319Y-124753690D01*
X164022319Y-124753690D02*
X164069938Y-124848928D01*
X164069938Y-124848928D02*
X164117557Y-124896547D01*
X164117557Y-124896547D02*
X164260414Y-124991785D01*
X164260414Y-124991785D02*
X164450890Y-125039404D01*
X164450890Y-125039404D02*
X164831842Y-125039404D01*
X164831842Y-125039404D02*
X164927080Y-124991785D01*
X164927080Y-124991785D02*
X164974700Y-124944166D01*
X164974700Y-124944166D02*
X165022319Y-124848928D01*
X165022319Y-124848928D02*
X165022319Y-124658452D01*
X165022319Y-124658452D02*
X164974700Y-124563214D01*
X164974700Y-124563214D02*
X164927080Y-124515595D01*
X164927080Y-124515595D02*
X164831842Y-124467976D01*
X164831842Y-124467976D02*
X164593747Y-124467976D01*
X164593747Y-124467976D02*
X164498509Y-124515595D01*
X164498509Y-124515595D02*
X164450890Y-124563214D01*
X164450890Y-124563214D02*
X164403271Y-124658452D01*
X164403271Y-124658452D02*
X164403271Y-124848928D01*
X164403271Y-124848928D02*
X164450890Y-124944166D01*
X164450890Y-124944166D02*
X164498509Y-124991785D01*
X164498509Y-124991785D02*
X164593747Y-125039404D01*
X164117557Y-124087023D02*
X164069938Y-124039404D01*
X164069938Y-124039404D02*
X164022319Y-123944166D01*
X164022319Y-123944166D02*
X164022319Y-123706071D01*
X164022319Y-123706071D02*
X164069938Y-123610833D01*
X164069938Y-123610833D02*
X164117557Y-123563214D01*
X164117557Y-123563214D02*
X164212795Y-123515595D01*
X164212795Y-123515595D02*
X164308033Y-123515595D01*
X164308033Y-123515595D02*
X164450890Y-123563214D01*
X164450890Y-123563214D02*
X165022319Y-124134642D01*
X165022319Y-124134642D02*
X165022319Y-123515595D01*
X165342319Y-128849404D02*
X164342319Y-128849404D01*
X165342319Y-128277976D02*
X164770890Y-128706547D01*
X164342319Y-128277976D02*
X164913747Y-128849404D01*
X241222319Y-125991785D02*
X240222319Y-125991785D01*
X240222319Y-125991785D02*
X240222319Y-125753690D01*
X240222319Y-125753690D02*
X240269938Y-125610833D01*
X240269938Y-125610833D02*
X240365176Y-125515595D01*
X240365176Y-125515595D02*
X240460414Y-125467976D01*
X240460414Y-125467976D02*
X240650890Y-125420357D01*
X240650890Y-125420357D02*
X240793747Y-125420357D01*
X240793747Y-125420357D02*
X240984223Y-125467976D01*
X240984223Y-125467976D02*
X241079461Y-125515595D01*
X241079461Y-125515595D02*
X241174700Y-125610833D01*
X241174700Y-125610833D02*
X241222319Y-125753690D01*
X241222319Y-125753690D02*
X241222319Y-125991785D01*
X240222319Y-124563214D02*
X240222319Y-124753690D01*
X240222319Y-124753690D02*
X240269938Y-124848928D01*
X240269938Y-124848928D02*
X240317557Y-124896547D01*
X240317557Y-124896547D02*
X240460414Y-124991785D01*
X240460414Y-124991785D02*
X240650890Y-125039404D01*
X240650890Y-125039404D02*
X241031842Y-125039404D01*
X241031842Y-125039404D02*
X241127080Y-124991785D01*
X241127080Y-124991785D02*
X241174700Y-124944166D01*
X241174700Y-124944166D02*
X241222319Y-124848928D01*
X241222319Y-124848928D02*
X241222319Y-124658452D01*
X241222319Y-124658452D02*
X241174700Y-124563214D01*
X241174700Y-124563214D02*
X241127080Y-124515595D01*
X241127080Y-124515595D02*
X241031842Y-124467976D01*
X241031842Y-124467976D02*
X240793747Y-124467976D01*
X240793747Y-124467976D02*
X240698509Y-124515595D01*
X240698509Y-124515595D02*
X240650890Y-124563214D01*
X240650890Y-124563214D02*
X240603271Y-124658452D01*
X240603271Y-124658452D02*
X240603271Y-124848928D01*
X240603271Y-124848928D02*
X240650890Y-124944166D01*
X240650890Y-124944166D02*
X240698509Y-124991785D01*
X240698509Y-124991785D02*
X240793747Y-125039404D01*
X240222319Y-123610833D02*
X240222319Y-123801309D01*
X240222319Y-123801309D02*
X240269938Y-123896547D01*
X240269938Y-123896547D02*
X240317557Y-123944166D01*
X240317557Y-123944166D02*
X240460414Y-124039404D01*
X240460414Y-124039404D02*
X240650890Y-124087023D01*
X240650890Y-124087023D02*
X241031842Y-124087023D01*
X241031842Y-124087023D02*
X241127080Y-124039404D01*
X241127080Y-124039404D02*
X241174700Y-123991785D01*
X241174700Y-123991785D02*
X241222319Y-123896547D01*
X241222319Y-123896547D02*
X241222319Y-123706071D01*
X241222319Y-123706071D02*
X241174700Y-123610833D01*
X241174700Y-123610833D02*
X241127080Y-123563214D01*
X241127080Y-123563214D02*
X241031842Y-123515595D01*
X241031842Y-123515595D02*
X240793747Y-123515595D01*
X240793747Y-123515595D02*
X240698509Y-123563214D01*
X240698509Y-123563214D02*
X240650890Y-123610833D01*
X240650890Y-123610833D02*
X240603271Y-123706071D01*
X240603271Y-123706071D02*
X240603271Y-123896547D01*
X240603271Y-123896547D02*
X240650890Y-123991785D01*
X240650890Y-123991785D02*
X240698509Y-124039404D01*
X240698509Y-124039404D02*
X240793747Y-124087023D01*
X241542319Y-128849404D02*
X240542319Y-128849404D01*
X241542319Y-128277976D02*
X240970890Y-128706547D01*
X240542319Y-128277976D02*
X241113747Y-128849404D01*
X207884819Y-87891785D02*
X206884819Y-87891785D01*
X206884819Y-87891785D02*
X206884819Y-87653690D01*
X206884819Y-87653690D02*
X206932438Y-87510833D01*
X206932438Y-87510833D02*
X207027676Y-87415595D01*
X207027676Y-87415595D02*
X207122914Y-87367976D01*
X207122914Y-87367976D02*
X207313390Y-87320357D01*
X207313390Y-87320357D02*
X207456247Y-87320357D01*
X207456247Y-87320357D02*
X207646723Y-87367976D01*
X207646723Y-87367976D02*
X207741961Y-87415595D01*
X207741961Y-87415595D02*
X207837200Y-87510833D01*
X207837200Y-87510833D02*
X207884819Y-87653690D01*
X207884819Y-87653690D02*
X207884819Y-87891785D01*
X206884819Y-86987023D02*
X206884819Y-86367976D01*
X206884819Y-86367976D02*
X207265771Y-86701309D01*
X207265771Y-86701309D02*
X207265771Y-86558452D01*
X207265771Y-86558452D02*
X207313390Y-86463214D01*
X207313390Y-86463214D02*
X207361009Y-86415595D01*
X207361009Y-86415595D02*
X207456247Y-86367976D01*
X207456247Y-86367976D02*
X207694342Y-86367976D01*
X207694342Y-86367976D02*
X207789580Y-86415595D01*
X207789580Y-86415595D02*
X207837200Y-86463214D01*
X207837200Y-86463214D02*
X207884819Y-86558452D01*
X207884819Y-86558452D02*
X207884819Y-86844166D01*
X207884819Y-86844166D02*
X207837200Y-86939404D01*
X207837200Y-86939404D02*
X207789580Y-86987023D01*
X207313390Y-85796547D02*
X207265771Y-85891785D01*
X207265771Y-85891785D02*
X207218152Y-85939404D01*
X207218152Y-85939404D02*
X207122914Y-85987023D01*
X207122914Y-85987023D02*
X207075295Y-85987023D01*
X207075295Y-85987023D02*
X206980057Y-85939404D01*
X206980057Y-85939404D02*
X206932438Y-85891785D01*
X206932438Y-85891785D02*
X206884819Y-85796547D01*
X206884819Y-85796547D02*
X206884819Y-85606071D01*
X206884819Y-85606071D02*
X206932438Y-85510833D01*
X206932438Y-85510833D02*
X206980057Y-85463214D01*
X206980057Y-85463214D02*
X207075295Y-85415595D01*
X207075295Y-85415595D02*
X207122914Y-85415595D01*
X207122914Y-85415595D02*
X207218152Y-85463214D01*
X207218152Y-85463214D02*
X207265771Y-85510833D01*
X207265771Y-85510833D02*
X207313390Y-85606071D01*
X207313390Y-85606071D02*
X207313390Y-85796547D01*
X207313390Y-85796547D02*
X207361009Y-85891785D01*
X207361009Y-85891785D02*
X207408628Y-85939404D01*
X207408628Y-85939404D02*
X207503866Y-85987023D01*
X207503866Y-85987023D02*
X207694342Y-85987023D01*
X207694342Y-85987023D02*
X207789580Y-85939404D01*
X207789580Y-85939404D02*
X207837200Y-85891785D01*
X207837200Y-85891785D02*
X207884819Y-85796547D01*
X207884819Y-85796547D02*
X207884819Y-85606071D01*
X207884819Y-85606071D02*
X207837200Y-85510833D01*
X207837200Y-85510833D02*
X207789580Y-85463214D01*
X207789580Y-85463214D02*
X207694342Y-85415595D01*
X207694342Y-85415595D02*
X207503866Y-85415595D01*
X207503866Y-85415595D02*
X207408628Y-85463214D01*
X207408628Y-85463214D02*
X207361009Y-85510833D01*
X207361009Y-85510833D02*
X207313390Y-85606071D01*
X208204819Y-90749404D02*
X207204819Y-90749404D01*
X208204819Y-90177976D02*
X207633390Y-90606547D01*
X207204819Y-90177976D02*
X207776247Y-90749404D01*
X129303569Y-44553094D02*
X128303569Y-44553094D01*
X128303569Y-44553094D02*
X128303569Y-44314999D01*
X128303569Y-44314999D02*
X128351188Y-44172142D01*
X128351188Y-44172142D02*
X128446426Y-44076904D01*
X128446426Y-44076904D02*
X128541664Y-44029285D01*
X128541664Y-44029285D02*
X128732140Y-43981666D01*
X128732140Y-43981666D02*
X128874997Y-43981666D01*
X128874997Y-43981666D02*
X129065473Y-44029285D01*
X129065473Y-44029285D02*
X129160711Y-44076904D01*
X129160711Y-44076904D02*
X129255950Y-44172142D01*
X129255950Y-44172142D02*
X129303569Y-44314999D01*
X129303569Y-44314999D02*
X129303569Y-44553094D01*
X128303569Y-43076904D02*
X128303569Y-43553094D01*
X128303569Y-43553094D02*
X128779759Y-43600713D01*
X128779759Y-43600713D02*
X128732140Y-43553094D01*
X128732140Y-43553094D02*
X128684521Y-43457856D01*
X128684521Y-43457856D02*
X128684521Y-43219761D01*
X128684521Y-43219761D02*
X128732140Y-43124523D01*
X128732140Y-43124523D02*
X128779759Y-43076904D01*
X128779759Y-43076904D02*
X128874997Y-43029285D01*
X128874997Y-43029285D02*
X129113092Y-43029285D01*
X129113092Y-43029285D02*
X129208330Y-43076904D01*
X129208330Y-43076904D02*
X129255950Y-43124523D01*
X129255950Y-43124523D02*
X129303569Y-43219761D01*
X129303569Y-43219761D02*
X129303569Y-43457856D01*
X129303569Y-43457856D02*
X129255950Y-43553094D01*
X129255950Y-43553094D02*
X129208330Y-43600713D01*
X129623569Y-47886904D02*
X128623569Y-47886904D01*
X129623569Y-47315476D02*
X129052140Y-47744047D01*
X128623569Y-47315476D02*
X129194997Y-47886904D01*
X255509819Y-68841785D02*
X254509819Y-68841785D01*
X254509819Y-68841785D02*
X254509819Y-68603690D01*
X254509819Y-68603690D02*
X254557438Y-68460833D01*
X254557438Y-68460833D02*
X254652676Y-68365595D01*
X254652676Y-68365595D02*
X254747914Y-68317976D01*
X254747914Y-68317976D02*
X254938390Y-68270357D01*
X254938390Y-68270357D02*
X255081247Y-68270357D01*
X255081247Y-68270357D02*
X255271723Y-68317976D01*
X255271723Y-68317976D02*
X255366961Y-68365595D01*
X255366961Y-68365595D02*
X255462200Y-68460833D01*
X255462200Y-68460833D02*
X255509819Y-68603690D01*
X255509819Y-68603690D02*
X255509819Y-68841785D01*
X254605057Y-67889404D02*
X254557438Y-67841785D01*
X254557438Y-67841785D02*
X254509819Y-67746547D01*
X254509819Y-67746547D02*
X254509819Y-67508452D01*
X254509819Y-67508452D02*
X254557438Y-67413214D01*
X254557438Y-67413214D02*
X254605057Y-67365595D01*
X254605057Y-67365595D02*
X254700295Y-67317976D01*
X254700295Y-67317976D02*
X254795533Y-67317976D01*
X254795533Y-67317976D02*
X254938390Y-67365595D01*
X254938390Y-67365595D02*
X255509819Y-67937023D01*
X255509819Y-67937023D02*
X255509819Y-67317976D01*
X254509819Y-66984642D02*
X254509819Y-66317976D01*
X254509819Y-66317976D02*
X255509819Y-66746547D01*
X255829819Y-71699404D02*
X254829819Y-71699404D01*
X255829819Y-71127976D02*
X255258390Y-71556547D01*
X254829819Y-71127976D02*
X255401247Y-71699404D01*
X198359819Y-68841785D02*
X197359819Y-68841785D01*
X197359819Y-68841785D02*
X197359819Y-68603690D01*
X197359819Y-68603690D02*
X197407438Y-68460833D01*
X197407438Y-68460833D02*
X197502676Y-68365595D01*
X197502676Y-68365595D02*
X197597914Y-68317976D01*
X197597914Y-68317976D02*
X197788390Y-68270357D01*
X197788390Y-68270357D02*
X197931247Y-68270357D01*
X197931247Y-68270357D02*
X198121723Y-68317976D01*
X198121723Y-68317976D02*
X198216961Y-68365595D01*
X198216961Y-68365595D02*
X198312200Y-68460833D01*
X198312200Y-68460833D02*
X198359819Y-68603690D01*
X198359819Y-68603690D02*
X198359819Y-68841785D01*
X197455057Y-67889404D02*
X197407438Y-67841785D01*
X197407438Y-67841785D02*
X197359819Y-67746547D01*
X197359819Y-67746547D02*
X197359819Y-67508452D01*
X197359819Y-67508452D02*
X197407438Y-67413214D01*
X197407438Y-67413214D02*
X197455057Y-67365595D01*
X197455057Y-67365595D02*
X197550295Y-67317976D01*
X197550295Y-67317976D02*
X197645533Y-67317976D01*
X197645533Y-67317976D02*
X197788390Y-67365595D01*
X197788390Y-67365595D02*
X198359819Y-67937023D01*
X198359819Y-67937023D02*
X198359819Y-67317976D01*
X197693152Y-66460833D02*
X198359819Y-66460833D01*
X197312200Y-66698928D02*
X198026485Y-66937023D01*
X198026485Y-66937023D02*
X198026485Y-66317976D01*
X198679819Y-71699404D02*
X197679819Y-71699404D01*
X198679819Y-71127976D02*
X198108390Y-71556547D01*
X197679819Y-71127976D02*
X198251247Y-71699404D01*
X65009819Y-68841785D02*
X64009819Y-68841785D01*
X64009819Y-68841785D02*
X64009819Y-68603690D01*
X64009819Y-68603690D02*
X64057438Y-68460833D01*
X64057438Y-68460833D02*
X64152676Y-68365595D01*
X64152676Y-68365595D02*
X64247914Y-68317976D01*
X64247914Y-68317976D02*
X64438390Y-68270357D01*
X64438390Y-68270357D02*
X64581247Y-68270357D01*
X64581247Y-68270357D02*
X64771723Y-68317976D01*
X64771723Y-68317976D02*
X64866961Y-68365595D01*
X64866961Y-68365595D02*
X64962200Y-68460833D01*
X64962200Y-68460833D02*
X65009819Y-68603690D01*
X65009819Y-68603690D02*
X65009819Y-68841785D01*
X65009819Y-67317976D02*
X65009819Y-67889404D01*
X65009819Y-67603690D02*
X64009819Y-67603690D01*
X64009819Y-67603690D02*
X64152676Y-67698928D01*
X64152676Y-67698928D02*
X64247914Y-67794166D01*
X64247914Y-67794166D02*
X64295533Y-67889404D01*
X64009819Y-66984642D02*
X64009819Y-66317976D01*
X64009819Y-66317976D02*
X65009819Y-66746547D01*
X65329819Y-71699404D02*
X64329819Y-71699404D01*
X65329819Y-71127976D02*
X64758390Y-71556547D01*
X64329819Y-71127976D02*
X64901247Y-71699404D01*
X69772319Y-44553094D02*
X68772319Y-44553094D01*
X68772319Y-44553094D02*
X68772319Y-44314999D01*
X68772319Y-44314999D02*
X68819938Y-44172142D01*
X68819938Y-44172142D02*
X68915176Y-44076904D01*
X68915176Y-44076904D02*
X69010414Y-44029285D01*
X69010414Y-44029285D02*
X69200890Y-43981666D01*
X69200890Y-43981666D02*
X69343747Y-43981666D01*
X69343747Y-43981666D02*
X69534223Y-44029285D01*
X69534223Y-44029285D02*
X69629461Y-44076904D01*
X69629461Y-44076904D02*
X69724700Y-44172142D01*
X69724700Y-44172142D02*
X69772319Y-44314999D01*
X69772319Y-44314999D02*
X69772319Y-44553094D01*
X68867557Y-43600713D02*
X68819938Y-43553094D01*
X68819938Y-43553094D02*
X68772319Y-43457856D01*
X68772319Y-43457856D02*
X68772319Y-43219761D01*
X68772319Y-43219761D02*
X68819938Y-43124523D01*
X68819938Y-43124523D02*
X68867557Y-43076904D01*
X68867557Y-43076904D02*
X68962795Y-43029285D01*
X68962795Y-43029285D02*
X69058033Y-43029285D01*
X69058033Y-43029285D02*
X69200890Y-43076904D01*
X69200890Y-43076904D02*
X69772319Y-43648332D01*
X69772319Y-43648332D02*
X69772319Y-43029285D01*
X70092319Y-47886904D02*
X69092319Y-47886904D01*
X70092319Y-47315476D02*
X69520890Y-47744047D01*
X69092319Y-47315476D02*
X69663747Y-47886904D01*
X150734819Y-87891785D02*
X149734819Y-87891785D01*
X149734819Y-87891785D02*
X149734819Y-87653690D01*
X149734819Y-87653690D02*
X149782438Y-87510833D01*
X149782438Y-87510833D02*
X149877676Y-87415595D01*
X149877676Y-87415595D02*
X149972914Y-87367976D01*
X149972914Y-87367976D02*
X150163390Y-87320357D01*
X150163390Y-87320357D02*
X150306247Y-87320357D01*
X150306247Y-87320357D02*
X150496723Y-87367976D01*
X150496723Y-87367976D02*
X150591961Y-87415595D01*
X150591961Y-87415595D02*
X150687200Y-87510833D01*
X150687200Y-87510833D02*
X150734819Y-87653690D01*
X150734819Y-87653690D02*
X150734819Y-87891785D01*
X149734819Y-86987023D02*
X149734819Y-86367976D01*
X149734819Y-86367976D02*
X150115771Y-86701309D01*
X150115771Y-86701309D02*
X150115771Y-86558452D01*
X150115771Y-86558452D02*
X150163390Y-86463214D01*
X150163390Y-86463214D02*
X150211009Y-86415595D01*
X150211009Y-86415595D02*
X150306247Y-86367976D01*
X150306247Y-86367976D02*
X150544342Y-86367976D01*
X150544342Y-86367976D02*
X150639580Y-86415595D01*
X150639580Y-86415595D02*
X150687200Y-86463214D01*
X150687200Y-86463214D02*
X150734819Y-86558452D01*
X150734819Y-86558452D02*
X150734819Y-86844166D01*
X150734819Y-86844166D02*
X150687200Y-86939404D01*
X150687200Y-86939404D02*
X150639580Y-86987023D01*
X149734819Y-85463214D02*
X149734819Y-85939404D01*
X149734819Y-85939404D02*
X150211009Y-85987023D01*
X150211009Y-85987023D02*
X150163390Y-85939404D01*
X150163390Y-85939404D02*
X150115771Y-85844166D01*
X150115771Y-85844166D02*
X150115771Y-85606071D01*
X150115771Y-85606071D02*
X150163390Y-85510833D01*
X150163390Y-85510833D02*
X150211009Y-85463214D01*
X150211009Y-85463214D02*
X150306247Y-85415595D01*
X150306247Y-85415595D02*
X150544342Y-85415595D01*
X150544342Y-85415595D02*
X150639580Y-85463214D01*
X150639580Y-85463214D02*
X150687200Y-85510833D01*
X150687200Y-85510833D02*
X150734819Y-85606071D01*
X150734819Y-85606071D02*
X150734819Y-85844166D01*
X150734819Y-85844166D02*
X150687200Y-85939404D01*
X150687200Y-85939404D02*
X150639580Y-85987023D01*
X151054819Y-90749404D02*
X150054819Y-90749404D01*
X151054819Y-90177976D02*
X150483390Y-90606547D01*
X150054819Y-90177976D02*
X150626247Y-90749404D01*
X338853569Y-148613660D02*
X337853569Y-148613660D01*
X337853569Y-148613660D02*
X337853569Y-148375565D01*
X337853569Y-148375565D02*
X337901188Y-148232708D01*
X337901188Y-148232708D02*
X337996426Y-148137470D01*
X337996426Y-148137470D02*
X338091664Y-148089851D01*
X338091664Y-148089851D02*
X338282140Y-148042232D01*
X338282140Y-148042232D02*
X338424997Y-148042232D01*
X338424997Y-148042232D02*
X338615473Y-148089851D01*
X338615473Y-148089851D02*
X338710711Y-148137470D01*
X338710711Y-148137470D02*
X338805950Y-148232708D01*
X338805950Y-148232708D02*
X338853569Y-148375565D01*
X338853569Y-148375565D02*
X338853569Y-148613660D01*
X337853569Y-147708898D02*
X337853569Y-147042232D01*
X337853569Y-147042232D02*
X338853569Y-147470803D01*
X338853569Y-146613660D02*
X338853569Y-146423184D01*
X338853569Y-146423184D02*
X338805950Y-146327946D01*
X338805950Y-146327946D02*
X338758330Y-146280327D01*
X338758330Y-146280327D02*
X338615473Y-146185089D01*
X338615473Y-146185089D02*
X338424997Y-146137470D01*
X338424997Y-146137470D02*
X338044045Y-146137470D01*
X338044045Y-146137470D02*
X337948807Y-146185089D01*
X337948807Y-146185089D02*
X337901188Y-146232708D01*
X337901188Y-146232708D02*
X337853569Y-146327946D01*
X337853569Y-146327946D02*
X337853569Y-146518422D01*
X337853569Y-146518422D02*
X337901188Y-146613660D01*
X337901188Y-146613660D02*
X337948807Y-146661279D01*
X337948807Y-146661279D02*
X338044045Y-146708898D01*
X338044045Y-146708898D02*
X338282140Y-146708898D01*
X338282140Y-146708898D02*
X338377378Y-146661279D01*
X338377378Y-146661279D02*
X338424997Y-146613660D01*
X338424997Y-146613660D02*
X338472616Y-146518422D01*
X338472616Y-146518422D02*
X338472616Y-146327946D01*
X338472616Y-146327946D02*
X338424997Y-146232708D01*
X338424997Y-146232708D02*
X338377378Y-146185089D01*
X338377378Y-146185089D02*
X338282140Y-146137470D01*
X339173569Y-151471279D02*
X338173569Y-151471279D01*
X339173569Y-150899851D02*
X338602140Y-151328422D01*
X338173569Y-150899851D02*
X338744997Y-151471279D01*
X88822319Y-125991785D02*
X87822319Y-125991785D01*
X87822319Y-125991785D02*
X87822319Y-125753690D01*
X87822319Y-125753690D02*
X87869938Y-125610833D01*
X87869938Y-125610833D02*
X87965176Y-125515595D01*
X87965176Y-125515595D02*
X88060414Y-125467976D01*
X88060414Y-125467976D02*
X88250890Y-125420357D01*
X88250890Y-125420357D02*
X88393747Y-125420357D01*
X88393747Y-125420357D02*
X88584223Y-125467976D01*
X88584223Y-125467976D02*
X88679461Y-125515595D01*
X88679461Y-125515595D02*
X88774700Y-125610833D01*
X88774700Y-125610833D02*
X88822319Y-125753690D01*
X88822319Y-125753690D02*
X88822319Y-125991785D01*
X87822319Y-124515595D02*
X87822319Y-124991785D01*
X87822319Y-124991785D02*
X88298509Y-125039404D01*
X88298509Y-125039404D02*
X88250890Y-124991785D01*
X88250890Y-124991785D02*
X88203271Y-124896547D01*
X88203271Y-124896547D02*
X88203271Y-124658452D01*
X88203271Y-124658452D02*
X88250890Y-124563214D01*
X88250890Y-124563214D02*
X88298509Y-124515595D01*
X88298509Y-124515595D02*
X88393747Y-124467976D01*
X88393747Y-124467976D02*
X88631842Y-124467976D01*
X88631842Y-124467976D02*
X88727080Y-124515595D01*
X88727080Y-124515595D02*
X88774700Y-124563214D01*
X88774700Y-124563214D02*
X88822319Y-124658452D01*
X88822319Y-124658452D02*
X88822319Y-124896547D01*
X88822319Y-124896547D02*
X88774700Y-124991785D01*
X88774700Y-124991785D02*
X88727080Y-125039404D01*
X88250890Y-123896547D02*
X88203271Y-123991785D01*
X88203271Y-123991785D02*
X88155652Y-124039404D01*
X88155652Y-124039404D02*
X88060414Y-124087023D01*
X88060414Y-124087023D02*
X88012795Y-124087023D01*
X88012795Y-124087023D02*
X87917557Y-124039404D01*
X87917557Y-124039404D02*
X87869938Y-123991785D01*
X87869938Y-123991785D02*
X87822319Y-123896547D01*
X87822319Y-123896547D02*
X87822319Y-123706071D01*
X87822319Y-123706071D02*
X87869938Y-123610833D01*
X87869938Y-123610833D02*
X87917557Y-123563214D01*
X87917557Y-123563214D02*
X88012795Y-123515595D01*
X88012795Y-123515595D02*
X88060414Y-123515595D01*
X88060414Y-123515595D02*
X88155652Y-123563214D01*
X88155652Y-123563214D02*
X88203271Y-123610833D01*
X88203271Y-123610833D02*
X88250890Y-123706071D01*
X88250890Y-123706071D02*
X88250890Y-123896547D01*
X88250890Y-123896547D02*
X88298509Y-123991785D01*
X88298509Y-123991785D02*
X88346128Y-124039404D01*
X88346128Y-124039404D02*
X88441366Y-124087023D01*
X88441366Y-124087023D02*
X88631842Y-124087023D01*
X88631842Y-124087023D02*
X88727080Y-124039404D01*
X88727080Y-124039404D02*
X88774700Y-123991785D01*
X88774700Y-123991785D02*
X88822319Y-123896547D01*
X88822319Y-123896547D02*
X88822319Y-123706071D01*
X88822319Y-123706071D02*
X88774700Y-123610833D01*
X88774700Y-123610833D02*
X88727080Y-123563214D01*
X88727080Y-123563214D02*
X88631842Y-123515595D01*
X88631842Y-123515595D02*
X88441366Y-123515595D01*
X88441366Y-123515595D02*
X88346128Y-123563214D01*
X88346128Y-123563214D02*
X88298509Y-123610833D01*
X88298509Y-123610833D02*
X88250890Y-123706071D01*
X89142319Y-128849404D02*
X88142319Y-128849404D01*
X89142319Y-128277976D02*
X88570890Y-128706547D01*
X88142319Y-128277976D02*
X88713747Y-128849404D01*
X84059819Y-68841785D02*
X83059819Y-68841785D01*
X83059819Y-68841785D02*
X83059819Y-68603690D01*
X83059819Y-68603690D02*
X83107438Y-68460833D01*
X83107438Y-68460833D02*
X83202676Y-68365595D01*
X83202676Y-68365595D02*
X83297914Y-68317976D01*
X83297914Y-68317976D02*
X83488390Y-68270357D01*
X83488390Y-68270357D02*
X83631247Y-68270357D01*
X83631247Y-68270357D02*
X83821723Y-68317976D01*
X83821723Y-68317976D02*
X83916961Y-68365595D01*
X83916961Y-68365595D02*
X84012200Y-68460833D01*
X84012200Y-68460833D02*
X84059819Y-68603690D01*
X84059819Y-68603690D02*
X84059819Y-68841785D01*
X84059819Y-67317976D02*
X84059819Y-67889404D01*
X84059819Y-67603690D02*
X83059819Y-67603690D01*
X83059819Y-67603690D02*
X83202676Y-67698928D01*
X83202676Y-67698928D02*
X83297914Y-67794166D01*
X83297914Y-67794166D02*
X83345533Y-67889404D01*
X83488390Y-66746547D02*
X83440771Y-66841785D01*
X83440771Y-66841785D02*
X83393152Y-66889404D01*
X83393152Y-66889404D02*
X83297914Y-66937023D01*
X83297914Y-66937023D02*
X83250295Y-66937023D01*
X83250295Y-66937023D02*
X83155057Y-66889404D01*
X83155057Y-66889404D02*
X83107438Y-66841785D01*
X83107438Y-66841785D02*
X83059819Y-66746547D01*
X83059819Y-66746547D02*
X83059819Y-66556071D01*
X83059819Y-66556071D02*
X83107438Y-66460833D01*
X83107438Y-66460833D02*
X83155057Y-66413214D01*
X83155057Y-66413214D02*
X83250295Y-66365595D01*
X83250295Y-66365595D02*
X83297914Y-66365595D01*
X83297914Y-66365595D02*
X83393152Y-66413214D01*
X83393152Y-66413214D02*
X83440771Y-66460833D01*
X83440771Y-66460833D02*
X83488390Y-66556071D01*
X83488390Y-66556071D02*
X83488390Y-66746547D01*
X83488390Y-66746547D02*
X83536009Y-66841785D01*
X83536009Y-66841785D02*
X83583628Y-66889404D01*
X83583628Y-66889404D02*
X83678866Y-66937023D01*
X83678866Y-66937023D02*
X83869342Y-66937023D01*
X83869342Y-66937023D02*
X83964580Y-66889404D01*
X83964580Y-66889404D02*
X84012200Y-66841785D01*
X84012200Y-66841785D02*
X84059819Y-66746547D01*
X84059819Y-66746547D02*
X84059819Y-66556071D01*
X84059819Y-66556071D02*
X84012200Y-66460833D01*
X84012200Y-66460833D02*
X83964580Y-66413214D01*
X83964580Y-66413214D02*
X83869342Y-66365595D01*
X83869342Y-66365595D02*
X83678866Y-66365595D01*
X83678866Y-66365595D02*
X83583628Y-66413214D01*
X83583628Y-66413214D02*
X83536009Y-66460833D01*
X83536009Y-66460833D02*
X83488390Y-66556071D01*
X84379819Y-71699404D02*
X83379819Y-71699404D01*
X84379819Y-71127976D02*
X83808390Y-71556547D01*
X83379819Y-71127976D02*
X83951247Y-71699404D01*
X98347319Y-145041785D02*
X97347319Y-145041785D01*
X97347319Y-145041785D02*
X97347319Y-144803690D01*
X97347319Y-144803690D02*
X97394938Y-144660833D01*
X97394938Y-144660833D02*
X97490176Y-144565595D01*
X97490176Y-144565595D02*
X97585414Y-144517976D01*
X97585414Y-144517976D02*
X97775890Y-144470357D01*
X97775890Y-144470357D02*
X97918747Y-144470357D01*
X97918747Y-144470357D02*
X98109223Y-144517976D01*
X98109223Y-144517976D02*
X98204461Y-144565595D01*
X98204461Y-144565595D02*
X98299700Y-144660833D01*
X98299700Y-144660833D02*
X98347319Y-144803690D01*
X98347319Y-144803690D02*
X98347319Y-145041785D01*
X97347319Y-144137023D02*
X97347319Y-143470357D01*
X97347319Y-143470357D02*
X98347319Y-143898928D01*
X97442557Y-143137023D02*
X97394938Y-143089404D01*
X97394938Y-143089404D02*
X97347319Y-142994166D01*
X97347319Y-142994166D02*
X97347319Y-142756071D01*
X97347319Y-142756071D02*
X97394938Y-142660833D01*
X97394938Y-142660833D02*
X97442557Y-142613214D01*
X97442557Y-142613214D02*
X97537795Y-142565595D01*
X97537795Y-142565595D02*
X97633033Y-142565595D01*
X97633033Y-142565595D02*
X97775890Y-142613214D01*
X97775890Y-142613214D02*
X98347319Y-143184642D01*
X98347319Y-143184642D02*
X98347319Y-142565595D01*
X98667319Y-147899404D02*
X97667319Y-147899404D01*
X98667319Y-147327976D02*
X98095890Y-147756547D01*
X97667319Y-147327976D02*
X98238747Y-147899404D01*
X126922319Y-125991785D02*
X125922319Y-125991785D01*
X125922319Y-125991785D02*
X125922319Y-125753690D01*
X125922319Y-125753690D02*
X125969938Y-125610833D01*
X125969938Y-125610833D02*
X126065176Y-125515595D01*
X126065176Y-125515595D02*
X126160414Y-125467976D01*
X126160414Y-125467976D02*
X126350890Y-125420357D01*
X126350890Y-125420357D02*
X126493747Y-125420357D01*
X126493747Y-125420357D02*
X126684223Y-125467976D01*
X126684223Y-125467976D02*
X126779461Y-125515595D01*
X126779461Y-125515595D02*
X126874700Y-125610833D01*
X126874700Y-125610833D02*
X126922319Y-125753690D01*
X126922319Y-125753690D02*
X126922319Y-125991785D01*
X125922319Y-124563214D02*
X125922319Y-124753690D01*
X125922319Y-124753690D02*
X125969938Y-124848928D01*
X125969938Y-124848928D02*
X126017557Y-124896547D01*
X126017557Y-124896547D02*
X126160414Y-124991785D01*
X126160414Y-124991785D02*
X126350890Y-125039404D01*
X126350890Y-125039404D02*
X126731842Y-125039404D01*
X126731842Y-125039404D02*
X126827080Y-124991785D01*
X126827080Y-124991785D02*
X126874700Y-124944166D01*
X126874700Y-124944166D02*
X126922319Y-124848928D01*
X126922319Y-124848928D02*
X126922319Y-124658452D01*
X126922319Y-124658452D02*
X126874700Y-124563214D01*
X126874700Y-124563214D02*
X126827080Y-124515595D01*
X126827080Y-124515595D02*
X126731842Y-124467976D01*
X126731842Y-124467976D02*
X126493747Y-124467976D01*
X126493747Y-124467976D02*
X126398509Y-124515595D01*
X126398509Y-124515595D02*
X126350890Y-124563214D01*
X126350890Y-124563214D02*
X126303271Y-124658452D01*
X126303271Y-124658452D02*
X126303271Y-124848928D01*
X126303271Y-124848928D02*
X126350890Y-124944166D01*
X126350890Y-124944166D02*
X126398509Y-124991785D01*
X126398509Y-124991785D02*
X126493747Y-125039404D01*
X125922319Y-123848928D02*
X125922319Y-123753690D01*
X125922319Y-123753690D02*
X125969938Y-123658452D01*
X125969938Y-123658452D02*
X126017557Y-123610833D01*
X126017557Y-123610833D02*
X126112795Y-123563214D01*
X126112795Y-123563214D02*
X126303271Y-123515595D01*
X126303271Y-123515595D02*
X126541366Y-123515595D01*
X126541366Y-123515595D02*
X126731842Y-123563214D01*
X126731842Y-123563214D02*
X126827080Y-123610833D01*
X126827080Y-123610833D02*
X126874700Y-123658452D01*
X126874700Y-123658452D02*
X126922319Y-123753690D01*
X126922319Y-123753690D02*
X126922319Y-123848928D01*
X126922319Y-123848928D02*
X126874700Y-123944166D01*
X126874700Y-123944166D02*
X126827080Y-123991785D01*
X126827080Y-123991785D02*
X126731842Y-124039404D01*
X126731842Y-124039404D02*
X126541366Y-124087023D01*
X126541366Y-124087023D02*
X126303271Y-124087023D01*
X126303271Y-124087023D02*
X126112795Y-124039404D01*
X126112795Y-124039404D02*
X126017557Y-123991785D01*
X126017557Y-123991785D02*
X125969938Y-123944166D01*
X125969938Y-123944166D02*
X125922319Y-123848928D01*
X127242319Y-128849404D02*
X126242319Y-128849404D01*
X127242319Y-128277976D02*
X126670890Y-128706547D01*
X126242319Y-128277976D02*
X126813747Y-128849404D01*
X231697319Y-45029285D02*
X230697319Y-45029285D01*
X230697319Y-45029285D02*
X230697319Y-44791190D01*
X230697319Y-44791190D02*
X230744938Y-44648333D01*
X230744938Y-44648333D02*
X230840176Y-44553095D01*
X230840176Y-44553095D02*
X230935414Y-44505476D01*
X230935414Y-44505476D02*
X231125890Y-44457857D01*
X231125890Y-44457857D02*
X231268747Y-44457857D01*
X231268747Y-44457857D02*
X231459223Y-44505476D01*
X231459223Y-44505476D02*
X231554461Y-44553095D01*
X231554461Y-44553095D02*
X231649700Y-44648333D01*
X231649700Y-44648333D02*
X231697319Y-44791190D01*
X231697319Y-44791190D02*
X231697319Y-45029285D01*
X231697319Y-43505476D02*
X231697319Y-44076904D01*
X231697319Y-43791190D02*
X230697319Y-43791190D01*
X230697319Y-43791190D02*
X230840176Y-43886428D01*
X230840176Y-43886428D02*
X230935414Y-43981666D01*
X230935414Y-43981666D02*
X230983033Y-44076904D01*
X230697319Y-42886428D02*
X230697319Y-42791190D01*
X230697319Y-42791190D02*
X230744938Y-42695952D01*
X230744938Y-42695952D02*
X230792557Y-42648333D01*
X230792557Y-42648333D02*
X230887795Y-42600714D01*
X230887795Y-42600714D02*
X231078271Y-42553095D01*
X231078271Y-42553095D02*
X231316366Y-42553095D01*
X231316366Y-42553095D02*
X231506842Y-42600714D01*
X231506842Y-42600714D02*
X231602080Y-42648333D01*
X231602080Y-42648333D02*
X231649700Y-42695952D01*
X231649700Y-42695952D02*
X231697319Y-42791190D01*
X231697319Y-42791190D02*
X231697319Y-42886428D01*
X231697319Y-42886428D02*
X231649700Y-42981666D01*
X231649700Y-42981666D02*
X231602080Y-43029285D01*
X231602080Y-43029285D02*
X231506842Y-43076904D01*
X231506842Y-43076904D02*
X231316366Y-43124523D01*
X231316366Y-43124523D02*
X231078271Y-43124523D01*
X231078271Y-43124523D02*
X230887795Y-43076904D01*
X230887795Y-43076904D02*
X230792557Y-43029285D01*
X230792557Y-43029285D02*
X230744938Y-42981666D01*
X230744938Y-42981666D02*
X230697319Y-42886428D01*
X232017319Y-47886904D02*
X231017319Y-47886904D01*
X232017319Y-47315476D02*
X231445890Y-47744047D01*
X231017319Y-47315476D02*
X231588747Y-47886904D01*
X74534819Y-87891785D02*
X73534819Y-87891785D01*
X73534819Y-87891785D02*
X73534819Y-87653690D01*
X73534819Y-87653690D02*
X73582438Y-87510833D01*
X73582438Y-87510833D02*
X73677676Y-87415595D01*
X73677676Y-87415595D02*
X73772914Y-87367976D01*
X73772914Y-87367976D02*
X73963390Y-87320357D01*
X73963390Y-87320357D02*
X74106247Y-87320357D01*
X74106247Y-87320357D02*
X74296723Y-87367976D01*
X74296723Y-87367976D02*
X74391961Y-87415595D01*
X74391961Y-87415595D02*
X74487200Y-87510833D01*
X74487200Y-87510833D02*
X74534819Y-87653690D01*
X74534819Y-87653690D02*
X74534819Y-87891785D01*
X73534819Y-86987023D02*
X73534819Y-86367976D01*
X73534819Y-86367976D02*
X73915771Y-86701309D01*
X73915771Y-86701309D02*
X73915771Y-86558452D01*
X73915771Y-86558452D02*
X73963390Y-86463214D01*
X73963390Y-86463214D02*
X74011009Y-86415595D01*
X74011009Y-86415595D02*
X74106247Y-86367976D01*
X74106247Y-86367976D02*
X74344342Y-86367976D01*
X74344342Y-86367976D02*
X74439580Y-86415595D01*
X74439580Y-86415595D02*
X74487200Y-86463214D01*
X74487200Y-86463214D02*
X74534819Y-86558452D01*
X74534819Y-86558452D02*
X74534819Y-86844166D01*
X74534819Y-86844166D02*
X74487200Y-86939404D01*
X74487200Y-86939404D02*
X74439580Y-86987023D01*
X74534819Y-85415595D02*
X74534819Y-85987023D01*
X74534819Y-85701309D02*
X73534819Y-85701309D01*
X73534819Y-85701309D02*
X73677676Y-85796547D01*
X73677676Y-85796547D02*
X73772914Y-85891785D01*
X73772914Y-85891785D02*
X73820533Y-85987023D01*
X74854819Y-90749404D02*
X73854819Y-90749404D01*
X74854819Y-90177976D02*
X74283390Y-90606547D01*
X73854819Y-90177976D02*
X74426247Y-90749404D01*
X93584819Y-87891785D02*
X92584819Y-87891785D01*
X92584819Y-87891785D02*
X92584819Y-87653690D01*
X92584819Y-87653690D02*
X92632438Y-87510833D01*
X92632438Y-87510833D02*
X92727676Y-87415595D01*
X92727676Y-87415595D02*
X92822914Y-87367976D01*
X92822914Y-87367976D02*
X93013390Y-87320357D01*
X93013390Y-87320357D02*
X93156247Y-87320357D01*
X93156247Y-87320357D02*
X93346723Y-87367976D01*
X93346723Y-87367976D02*
X93441961Y-87415595D01*
X93441961Y-87415595D02*
X93537200Y-87510833D01*
X93537200Y-87510833D02*
X93584819Y-87653690D01*
X93584819Y-87653690D02*
X93584819Y-87891785D01*
X92584819Y-86987023D02*
X92584819Y-86367976D01*
X92584819Y-86367976D02*
X92965771Y-86701309D01*
X92965771Y-86701309D02*
X92965771Y-86558452D01*
X92965771Y-86558452D02*
X93013390Y-86463214D01*
X93013390Y-86463214D02*
X93061009Y-86415595D01*
X93061009Y-86415595D02*
X93156247Y-86367976D01*
X93156247Y-86367976D02*
X93394342Y-86367976D01*
X93394342Y-86367976D02*
X93489580Y-86415595D01*
X93489580Y-86415595D02*
X93537200Y-86463214D01*
X93537200Y-86463214D02*
X93584819Y-86558452D01*
X93584819Y-86558452D02*
X93584819Y-86844166D01*
X93584819Y-86844166D02*
X93537200Y-86939404D01*
X93537200Y-86939404D02*
X93489580Y-86987023D01*
X92680057Y-85987023D02*
X92632438Y-85939404D01*
X92632438Y-85939404D02*
X92584819Y-85844166D01*
X92584819Y-85844166D02*
X92584819Y-85606071D01*
X92584819Y-85606071D02*
X92632438Y-85510833D01*
X92632438Y-85510833D02*
X92680057Y-85463214D01*
X92680057Y-85463214D02*
X92775295Y-85415595D01*
X92775295Y-85415595D02*
X92870533Y-85415595D01*
X92870533Y-85415595D02*
X93013390Y-85463214D01*
X93013390Y-85463214D02*
X93584819Y-86034642D01*
X93584819Y-86034642D02*
X93584819Y-85415595D01*
X93904819Y-90749404D02*
X92904819Y-90749404D01*
X93904819Y-90177976D02*
X93333390Y-90606547D01*
X92904819Y-90177976D02*
X93476247Y-90749404D01*
X260272319Y-125991785D02*
X259272319Y-125991785D01*
X259272319Y-125991785D02*
X259272319Y-125753690D01*
X259272319Y-125753690D02*
X259319938Y-125610833D01*
X259319938Y-125610833D02*
X259415176Y-125515595D01*
X259415176Y-125515595D02*
X259510414Y-125467976D01*
X259510414Y-125467976D02*
X259700890Y-125420357D01*
X259700890Y-125420357D02*
X259843747Y-125420357D01*
X259843747Y-125420357D02*
X260034223Y-125467976D01*
X260034223Y-125467976D02*
X260129461Y-125515595D01*
X260129461Y-125515595D02*
X260224700Y-125610833D01*
X260224700Y-125610833D02*
X260272319Y-125753690D01*
X260272319Y-125753690D02*
X260272319Y-125991785D01*
X259272319Y-124563214D02*
X259272319Y-124753690D01*
X259272319Y-124753690D02*
X259319938Y-124848928D01*
X259319938Y-124848928D02*
X259367557Y-124896547D01*
X259367557Y-124896547D02*
X259510414Y-124991785D01*
X259510414Y-124991785D02*
X259700890Y-125039404D01*
X259700890Y-125039404D02*
X260081842Y-125039404D01*
X260081842Y-125039404D02*
X260177080Y-124991785D01*
X260177080Y-124991785D02*
X260224700Y-124944166D01*
X260224700Y-124944166D02*
X260272319Y-124848928D01*
X260272319Y-124848928D02*
X260272319Y-124658452D01*
X260272319Y-124658452D02*
X260224700Y-124563214D01*
X260224700Y-124563214D02*
X260177080Y-124515595D01*
X260177080Y-124515595D02*
X260081842Y-124467976D01*
X260081842Y-124467976D02*
X259843747Y-124467976D01*
X259843747Y-124467976D02*
X259748509Y-124515595D01*
X259748509Y-124515595D02*
X259700890Y-124563214D01*
X259700890Y-124563214D02*
X259653271Y-124658452D01*
X259653271Y-124658452D02*
X259653271Y-124848928D01*
X259653271Y-124848928D02*
X259700890Y-124944166D01*
X259700890Y-124944166D02*
X259748509Y-124991785D01*
X259748509Y-124991785D02*
X259843747Y-125039404D01*
X259272319Y-124134642D02*
X259272319Y-123467976D01*
X259272319Y-123467976D02*
X260272319Y-123896547D01*
X260592319Y-128849404D02*
X259592319Y-128849404D01*
X260592319Y-128277976D02*
X260020890Y-128706547D01*
X259592319Y-128277976D02*
X260163747Y-128849404D01*
X276941069Y-145041785D02*
X275941069Y-145041785D01*
X275941069Y-145041785D02*
X275941069Y-144803690D01*
X275941069Y-144803690D02*
X275988688Y-144660833D01*
X275988688Y-144660833D02*
X276083926Y-144565595D01*
X276083926Y-144565595D02*
X276179164Y-144517976D01*
X276179164Y-144517976D02*
X276369640Y-144470357D01*
X276369640Y-144470357D02*
X276512497Y-144470357D01*
X276512497Y-144470357D02*
X276702973Y-144517976D01*
X276702973Y-144517976D02*
X276798211Y-144565595D01*
X276798211Y-144565595D02*
X276893450Y-144660833D01*
X276893450Y-144660833D02*
X276941069Y-144803690D01*
X276941069Y-144803690D02*
X276941069Y-145041785D01*
X275941069Y-144137023D02*
X275941069Y-143470357D01*
X275941069Y-143470357D02*
X276941069Y-143898928D01*
X275941069Y-142660833D02*
X275941069Y-142851309D01*
X275941069Y-142851309D02*
X275988688Y-142946547D01*
X275988688Y-142946547D02*
X276036307Y-142994166D01*
X276036307Y-142994166D02*
X276179164Y-143089404D01*
X276179164Y-143089404D02*
X276369640Y-143137023D01*
X276369640Y-143137023D02*
X276750592Y-143137023D01*
X276750592Y-143137023D02*
X276845830Y-143089404D01*
X276845830Y-143089404D02*
X276893450Y-143041785D01*
X276893450Y-143041785D02*
X276941069Y-142946547D01*
X276941069Y-142946547D02*
X276941069Y-142756071D01*
X276941069Y-142756071D02*
X276893450Y-142660833D01*
X276893450Y-142660833D02*
X276845830Y-142613214D01*
X276845830Y-142613214D02*
X276750592Y-142565595D01*
X276750592Y-142565595D02*
X276512497Y-142565595D01*
X276512497Y-142565595D02*
X276417259Y-142613214D01*
X276417259Y-142613214D02*
X276369640Y-142660833D01*
X276369640Y-142660833D02*
X276322021Y-142756071D01*
X276322021Y-142756071D02*
X276322021Y-142946547D01*
X276322021Y-142946547D02*
X276369640Y-143041785D01*
X276369640Y-143041785D02*
X276417259Y-143089404D01*
X276417259Y-143089404D02*
X276512497Y-143137023D01*
X277261069Y-147899404D02*
X276261069Y-147899404D01*
X277261069Y-147327976D02*
X276689640Y-147756547D01*
X276261069Y-147327976D02*
X276832497Y-147899404D01*
X179309819Y-68841785D02*
X178309819Y-68841785D01*
X178309819Y-68841785D02*
X178309819Y-68603690D01*
X178309819Y-68603690D02*
X178357438Y-68460833D01*
X178357438Y-68460833D02*
X178452676Y-68365595D01*
X178452676Y-68365595D02*
X178547914Y-68317976D01*
X178547914Y-68317976D02*
X178738390Y-68270357D01*
X178738390Y-68270357D02*
X178881247Y-68270357D01*
X178881247Y-68270357D02*
X179071723Y-68317976D01*
X179071723Y-68317976D02*
X179166961Y-68365595D01*
X179166961Y-68365595D02*
X179262200Y-68460833D01*
X179262200Y-68460833D02*
X179309819Y-68603690D01*
X179309819Y-68603690D02*
X179309819Y-68841785D01*
X178405057Y-67889404D02*
X178357438Y-67841785D01*
X178357438Y-67841785D02*
X178309819Y-67746547D01*
X178309819Y-67746547D02*
X178309819Y-67508452D01*
X178309819Y-67508452D02*
X178357438Y-67413214D01*
X178357438Y-67413214D02*
X178405057Y-67365595D01*
X178405057Y-67365595D02*
X178500295Y-67317976D01*
X178500295Y-67317976D02*
X178595533Y-67317976D01*
X178595533Y-67317976D02*
X178738390Y-67365595D01*
X178738390Y-67365595D02*
X179309819Y-67937023D01*
X179309819Y-67937023D02*
X179309819Y-67317976D01*
X178309819Y-66984642D02*
X178309819Y-66365595D01*
X178309819Y-66365595D02*
X178690771Y-66698928D01*
X178690771Y-66698928D02*
X178690771Y-66556071D01*
X178690771Y-66556071D02*
X178738390Y-66460833D01*
X178738390Y-66460833D02*
X178786009Y-66413214D01*
X178786009Y-66413214D02*
X178881247Y-66365595D01*
X178881247Y-66365595D02*
X179119342Y-66365595D01*
X179119342Y-66365595D02*
X179214580Y-66413214D01*
X179214580Y-66413214D02*
X179262200Y-66460833D01*
X179262200Y-66460833D02*
X179309819Y-66556071D01*
X179309819Y-66556071D02*
X179309819Y-66841785D01*
X179309819Y-66841785D02*
X179262200Y-66937023D01*
X179262200Y-66937023D02*
X179214580Y-66984642D01*
X179629819Y-71699404D02*
X178629819Y-71699404D01*
X179629819Y-71127976D02*
X179058390Y-71556547D01*
X178629819Y-71127976D02*
X179201247Y-71699404D01*
X265034819Y-87891785D02*
X264034819Y-87891785D01*
X264034819Y-87891785D02*
X264034819Y-87653690D01*
X264034819Y-87653690D02*
X264082438Y-87510833D01*
X264082438Y-87510833D02*
X264177676Y-87415595D01*
X264177676Y-87415595D02*
X264272914Y-87367976D01*
X264272914Y-87367976D02*
X264463390Y-87320357D01*
X264463390Y-87320357D02*
X264606247Y-87320357D01*
X264606247Y-87320357D02*
X264796723Y-87367976D01*
X264796723Y-87367976D02*
X264891961Y-87415595D01*
X264891961Y-87415595D02*
X264987200Y-87510833D01*
X264987200Y-87510833D02*
X265034819Y-87653690D01*
X265034819Y-87653690D02*
X265034819Y-87891785D01*
X264368152Y-86463214D02*
X265034819Y-86463214D01*
X263987200Y-86701309D02*
X264701485Y-86939404D01*
X264701485Y-86939404D02*
X264701485Y-86320357D01*
X265034819Y-85415595D02*
X265034819Y-85987023D01*
X265034819Y-85701309D02*
X264034819Y-85701309D01*
X264034819Y-85701309D02*
X264177676Y-85796547D01*
X264177676Y-85796547D02*
X264272914Y-85891785D01*
X264272914Y-85891785D02*
X264320533Y-85987023D01*
X265354819Y-90749404D02*
X264354819Y-90749404D01*
X265354819Y-90177976D02*
X264783390Y-90606547D01*
X264354819Y-90177976D02*
X264926247Y-90749404D01*
X250747319Y-45029285D02*
X249747319Y-45029285D01*
X249747319Y-45029285D02*
X249747319Y-44791190D01*
X249747319Y-44791190D02*
X249794938Y-44648333D01*
X249794938Y-44648333D02*
X249890176Y-44553095D01*
X249890176Y-44553095D02*
X249985414Y-44505476D01*
X249985414Y-44505476D02*
X250175890Y-44457857D01*
X250175890Y-44457857D02*
X250318747Y-44457857D01*
X250318747Y-44457857D02*
X250509223Y-44505476D01*
X250509223Y-44505476D02*
X250604461Y-44553095D01*
X250604461Y-44553095D02*
X250699700Y-44648333D01*
X250699700Y-44648333D02*
X250747319Y-44791190D01*
X250747319Y-44791190D02*
X250747319Y-45029285D01*
X250747319Y-43505476D02*
X250747319Y-44076904D01*
X250747319Y-43791190D02*
X249747319Y-43791190D01*
X249747319Y-43791190D02*
X249890176Y-43886428D01*
X249890176Y-43886428D02*
X249985414Y-43981666D01*
X249985414Y-43981666D02*
X250033033Y-44076904D01*
X250747319Y-42553095D02*
X250747319Y-43124523D01*
X250747319Y-42838809D02*
X249747319Y-42838809D01*
X249747319Y-42838809D02*
X249890176Y-42934047D01*
X249890176Y-42934047D02*
X249985414Y-43029285D01*
X249985414Y-43029285D02*
X250033033Y-43124523D01*
X251067319Y-47886904D02*
X250067319Y-47886904D01*
X251067319Y-47315476D02*
X250495890Y-47744047D01*
X250067319Y-47315476D02*
X250638747Y-47886904D01*
X231697319Y-106941785D02*
X230697319Y-106941785D01*
X230697319Y-106941785D02*
X230697319Y-106703690D01*
X230697319Y-106703690D02*
X230744938Y-106560833D01*
X230744938Y-106560833D02*
X230840176Y-106465595D01*
X230840176Y-106465595D02*
X230935414Y-106417976D01*
X230935414Y-106417976D02*
X231125890Y-106370357D01*
X231125890Y-106370357D02*
X231268747Y-106370357D01*
X231268747Y-106370357D02*
X231459223Y-106417976D01*
X231459223Y-106417976D02*
X231554461Y-106465595D01*
X231554461Y-106465595D02*
X231649700Y-106560833D01*
X231649700Y-106560833D02*
X231697319Y-106703690D01*
X231697319Y-106703690D02*
X231697319Y-106941785D01*
X230697319Y-105465595D02*
X230697319Y-105941785D01*
X230697319Y-105941785D02*
X231173509Y-105989404D01*
X231173509Y-105989404D02*
X231125890Y-105941785D01*
X231125890Y-105941785D02*
X231078271Y-105846547D01*
X231078271Y-105846547D02*
X231078271Y-105608452D01*
X231078271Y-105608452D02*
X231125890Y-105513214D01*
X231125890Y-105513214D02*
X231173509Y-105465595D01*
X231173509Y-105465595D02*
X231268747Y-105417976D01*
X231268747Y-105417976D02*
X231506842Y-105417976D01*
X231506842Y-105417976D02*
X231602080Y-105465595D01*
X231602080Y-105465595D02*
X231649700Y-105513214D01*
X231649700Y-105513214D02*
X231697319Y-105608452D01*
X231697319Y-105608452D02*
X231697319Y-105846547D01*
X231697319Y-105846547D02*
X231649700Y-105941785D01*
X231649700Y-105941785D02*
X231602080Y-105989404D01*
X230697319Y-105084642D02*
X230697319Y-104465595D01*
X230697319Y-104465595D02*
X231078271Y-104798928D01*
X231078271Y-104798928D02*
X231078271Y-104656071D01*
X231078271Y-104656071D02*
X231125890Y-104560833D01*
X231125890Y-104560833D02*
X231173509Y-104513214D01*
X231173509Y-104513214D02*
X231268747Y-104465595D01*
X231268747Y-104465595D02*
X231506842Y-104465595D01*
X231506842Y-104465595D02*
X231602080Y-104513214D01*
X231602080Y-104513214D02*
X231649700Y-104560833D01*
X231649700Y-104560833D02*
X231697319Y-104656071D01*
X231697319Y-104656071D02*
X231697319Y-104941785D01*
X231697319Y-104941785D02*
X231649700Y-105037023D01*
X231649700Y-105037023D02*
X231602080Y-105084642D01*
X232017319Y-109799404D02*
X231017319Y-109799404D01*
X232017319Y-109227976D02*
X231445890Y-109656547D01*
X231017319Y-109227976D02*
X231588747Y-109799404D01*
X300753569Y-148613660D02*
X299753569Y-148613660D01*
X299753569Y-148613660D02*
X299753569Y-148375565D01*
X299753569Y-148375565D02*
X299801188Y-148232708D01*
X299801188Y-148232708D02*
X299896426Y-148137470D01*
X299896426Y-148137470D02*
X299991664Y-148089851D01*
X299991664Y-148089851D02*
X300182140Y-148042232D01*
X300182140Y-148042232D02*
X300324997Y-148042232D01*
X300324997Y-148042232D02*
X300515473Y-148089851D01*
X300515473Y-148089851D02*
X300610711Y-148137470D01*
X300610711Y-148137470D02*
X300705950Y-148232708D01*
X300705950Y-148232708D02*
X300753569Y-148375565D01*
X300753569Y-148375565D02*
X300753569Y-148613660D01*
X299753569Y-147708898D02*
X299753569Y-147042232D01*
X299753569Y-147042232D02*
X300753569Y-147470803D01*
X299753569Y-146756517D02*
X299753569Y-146089851D01*
X299753569Y-146089851D02*
X300753569Y-146518422D01*
X301073569Y-151471279D02*
X300073569Y-151471279D01*
X301073569Y-150899851D02*
X300502140Y-151328422D01*
X300073569Y-150899851D02*
X300644997Y-151471279D01*
X55484819Y-106941785D02*
X54484819Y-106941785D01*
X54484819Y-106941785D02*
X54484819Y-106703690D01*
X54484819Y-106703690D02*
X54532438Y-106560833D01*
X54532438Y-106560833D02*
X54627676Y-106465595D01*
X54627676Y-106465595D02*
X54722914Y-106417976D01*
X54722914Y-106417976D02*
X54913390Y-106370357D01*
X54913390Y-106370357D02*
X55056247Y-106370357D01*
X55056247Y-106370357D02*
X55246723Y-106417976D01*
X55246723Y-106417976D02*
X55341961Y-106465595D01*
X55341961Y-106465595D02*
X55437200Y-106560833D01*
X55437200Y-106560833D02*
X55484819Y-106703690D01*
X55484819Y-106703690D02*
X55484819Y-106941785D01*
X54818152Y-105513214D02*
X55484819Y-105513214D01*
X54437200Y-105751309D02*
X55151485Y-105989404D01*
X55151485Y-105989404D02*
X55151485Y-105370357D01*
X54818152Y-104560833D02*
X55484819Y-104560833D01*
X54437200Y-104798928D02*
X55151485Y-105037023D01*
X55151485Y-105037023D02*
X55151485Y-104417976D01*
X55804819Y-109799404D02*
X54804819Y-109799404D01*
X55804819Y-109227976D02*
X55233390Y-109656547D01*
X54804819Y-109227976D02*
X55376247Y-109799404D01*
X107872319Y-125991785D02*
X106872319Y-125991785D01*
X106872319Y-125991785D02*
X106872319Y-125753690D01*
X106872319Y-125753690D02*
X106919938Y-125610833D01*
X106919938Y-125610833D02*
X107015176Y-125515595D01*
X107015176Y-125515595D02*
X107110414Y-125467976D01*
X107110414Y-125467976D02*
X107300890Y-125420357D01*
X107300890Y-125420357D02*
X107443747Y-125420357D01*
X107443747Y-125420357D02*
X107634223Y-125467976D01*
X107634223Y-125467976D02*
X107729461Y-125515595D01*
X107729461Y-125515595D02*
X107824700Y-125610833D01*
X107824700Y-125610833D02*
X107872319Y-125753690D01*
X107872319Y-125753690D02*
X107872319Y-125991785D01*
X106872319Y-124515595D02*
X106872319Y-124991785D01*
X106872319Y-124991785D02*
X107348509Y-125039404D01*
X107348509Y-125039404D02*
X107300890Y-124991785D01*
X107300890Y-124991785D02*
X107253271Y-124896547D01*
X107253271Y-124896547D02*
X107253271Y-124658452D01*
X107253271Y-124658452D02*
X107300890Y-124563214D01*
X107300890Y-124563214D02*
X107348509Y-124515595D01*
X107348509Y-124515595D02*
X107443747Y-124467976D01*
X107443747Y-124467976D02*
X107681842Y-124467976D01*
X107681842Y-124467976D02*
X107777080Y-124515595D01*
X107777080Y-124515595D02*
X107824700Y-124563214D01*
X107824700Y-124563214D02*
X107872319Y-124658452D01*
X107872319Y-124658452D02*
X107872319Y-124896547D01*
X107872319Y-124896547D02*
X107824700Y-124991785D01*
X107824700Y-124991785D02*
X107777080Y-125039404D01*
X107872319Y-123991785D02*
X107872319Y-123801309D01*
X107872319Y-123801309D02*
X107824700Y-123706071D01*
X107824700Y-123706071D02*
X107777080Y-123658452D01*
X107777080Y-123658452D02*
X107634223Y-123563214D01*
X107634223Y-123563214D02*
X107443747Y-123515595D01*
X107443747Y-123515595D02*
X107062795Y-123515595D01*
X107062795Y-123515595D02*
X106967557Y-123563214D01*
X106967557Y-123563214D02*
X106919938Y-123610833D01*
X106919938Y-123610833D02*
X106872319Y-123706071D01*
X106872319Y-123706071D02*
X106872319Y-123896547D01*
X106872319Y-123896547D02*
X106919938Y-123991785D01*
X106919938Y-123991785D02*
X106967557Y-124039404D01*
X106967557Y-124039404D02*
X107062795Y-124087023D01*
X107062795Y-124087023D02*
X107300890Y-124087023D01*
X107300890Y-124087023D02*
X107396128Y-124039404D01*
X107396128Y-124039404D02*
X107443747Y-123991785D01*
X107443747Y-123991785D02*
X107491366Y-123896547D01*
X107491366Y-123896547D02*
X107491366Y-123706071D01*
X107491366Y-123706071D02*
X107443747Y-123610833D01*
X107443747Y-123610833D02*
X107396128Y-123563214D01*
X107396128Y-123563214D02*
X107300890Y-123515595D01*
X108192319Y-128849404D02*
X107192319Y-128849404D01*
X108192319Y-128277976D02*
X107620890Y-128706547D01*
X107192319Y-128277976D02*
X107763747Y-128849404D01*
X269797319Y-106941785D02*
X268797319Y-106941785D01*
X268797319Y-106941785D02*
X268797319Y-106703690D01*
X268797319Y-106703690D02*
X268844938Y-106560833D01*
X268844938Y-106560833D02*
X268940176Y-106465595D01*
X268940176Y-106465595D02*
X269035414Y-106417976D01*
X269035414Y-106417976D02*
X269225890Y-106370357D01*
X269225890Y-106370357D02*
X269368747Y-106370357D01*
X269368747Y-106370357D02*
X269559223Y-106417976D01*
X269559223Y-106417976D02*
X269654461Y-106465595D01*
X269654461Y-106465595D02*
X269749700Y-106560833D01*
X269749700Y-106560833D02*
X269797319Y-106703690D01*
X269797319Y-106703690D02*
X269797319Y-106941785D01*
X268797319Y-105465595D02*
X268797319Y-105941785D01*
X268797319Y-105941785D02*
X269273509Y-105989404D01*
X269273509Y-105989404D02*
X269225890Y-105941785D01*
X269225890Y-105941785D02*
X269178271Y-105846547D01*
X269178271Y-105846547D02*
X269178271Y-105608452D01*
X269178271Y-105608452D02*
X269225890Y-105513214D01*
X269225890Y-105513214D02*
X269273509Y-105465595D01*
X269273509Y-105465595D02*
X269368747Y-105417976D01*
X269368747Y-105417976D02*
X269606842Y-105417976D01*
X269606842Y-105417976D02*
X269702080Y-105465595D01*
X269702080Y-105465595D02*
X269749700Y-105513214D01*
X269749700Y-105513214D02*
X269797319Y-105608452D01*
X269797319Y-105608452D02*
X269797319Y-105846547D01*
X269797319Y-105846547D02*
X269749700Y-105941785D01*
X269749700Y-105941785D02*
X269702080Y-105989404D01*
X268797319Y-104513214D02*
X268797319Y-104989404D01*
X268797319Y-104989404D02*
X269273509Y-105037023D01*
X269273509Y-105037023D02*
X269225890Y-104989404D01*
X269225890Y-104989404D02*
X269178271Y-104894166D01*
X269178271Y-104894166D02*
X269178271Y-104656071D01*
X269178271Y-104656071D02*
X269225890Y-104560833D01*
X269225890Y-104560833D02*
X269273509Y-104513214D01*
X269273509Y-104513214D02*
X269368747Y-104465595D01*
X269368747Y-104465595D02*
X269606842Y-104465595D01*
X269606842Y-104465595D02*
X269702080Y-104513214D01*
X269702080Y-104513214D02*
X269749700Y-104560833D01*
X269749700Y-104560833D02*
X269797319Y-104656071D01*
X269797319Y-104656071D02*
X269797319Y-104894166D01*
X269797319Y-104894166D02*
X269749700Y-104989404D01*
X269749700Y-104989404D02*
X269702080Y-105037023D01*
X270117319Y-109799404D02*
X269117319Y-109799404D01*
X270117319Y-109227976D02*
X269545890Y-109656547D01*
X269117319Y-109227976D02*
X269688747Y-109799404D01*
X188834819Y-87891785D02*
X187834819Y-87891785D01*
X187834819Y-87891785D02*
X187834819Y-87653690D01*
X187834819Y-87653690D02*
X187882438Y-87510833D01*
X187882438Y-87510833D02*
X187977676Y-87415595D01*
X187977676Y-87415595D02*
X188072914Y-87367976D01*
X188072914Y-87367976D02*
X188263390Y-87320357D01*
X188263390Y-87320357D02*
X188406247Y-87320357D01*
X188406247Y-87320357D02*
X188596723Y-87367976D01*
X188596723Y-87367976D02*
X188691961Y-87415595D01*
X188691961Y-87415595D02*
X188787200Y-87510833D01*
X188787200Y-87510833D02*
X188834819Y-87653690D01*
X188834819Y-87653690D02*
X188834819Y-87891785D01*
X187834819Y-86987023D02*
X187834819Y-86367976D01*
X187834819Y-86367976D02*
X188215771Y-86701309D01*
X188215771Y-86701309D02*
X188215771Y-86558452D01*
X188215771Y-86558452D02*
X188263390Y-86463214D01*
X188263390Y-86463214D02*
X188311009Y-86415595D01*
X188311009Y-86415595D02*
X188406247Y-86367976D01*
X188406247Y-86367976D02*
X188644342Y-86367976D01*
X188644342Y-86367976D02*
X188739580Y-86415595D01*
X188739580Y-86415595D02*
X188787200Y-86463214D01*
X188787200Y-86463214D02*
X188834819Y-86558452D01*
X188834819Y-86558452D02*
X188834819Y-86844166D01*
X188834819Y-86844166D02*
X188787200Y-86939404D01*
X188787200Y-86939404D02*
X188739580Y-86987023D01*
X187834819Y-86034642D02*
X187834819Y-85367976D01*
X187834819Y-85367976D02*
X188834819Y-85796547D01*
X189154819Y-90749404D02*
X188154819Y-90749404D01*
X189154819Y-90177976D02*
X188583390Y-90606547D01*
X188154819Y-90177976D02*
X188726247Y-90749404D01*
X250747319Y-106941785D02*
X249747319Y-106941785D01*
X249747319Y-106941785D02*
X249747319Y-106703690D01*
X249747319Y-106703690D02*
X249794938Y-106560833D01*
X249794938Y-106560833D02*
X249890176Y-106465595D01*
X249890176Y-106465595D02*
X249985414Y-106417976D01*
X249985414Y-106417976D02*
X250175890Y-106370357D01*
X250175890Y-106370357D02*
X250318747Y-106370357D01*
X250318747Y-106370357D02*
X250509223Y-106417976D01*
X250509223Y-106417976D02*
X250604461Y-106465595D01*
X250604461Y-106465595D02*
X250699700Y-106560833D01*
X250699700Y-106560833D02*
X250747319Y-106703690D01*
X250747319Y-106703690D02*
X250747319Y-106941785D01*
X249747319Y-105465595D02*
X249747319Y-105941785D01*
X249747319Y-105941785D02*
X250223509Y-105989404D01*
X250223509Y-105989404D02*
X250175890Y-105941785D01*
X250175890Y-105941785D02*
X250128271Y-105846547D01*
X250128271Y-105846547D02*
X250128271Y-105608452D01*
X250128271Y-105608452D02*
X250175890Y-105513214D01*
X250175890Y-105513214D02*
X250223509Y-105465595D01*
X250223509Y-105465595D02*
X250318747Y-105417976D01*
X250318747Y-105417976D02*
X250556842Y-105417976D01*
X250556842Y-105417976D02*
X250652080Y-105465595D01*
X250652080Y-105465595D02*
X250699700Y-105513214D01*
X250699700Y-105513214D02*
X250747319Y-105608452D01*
X250747319Y-105608452D02*
X250747319Y-105846547D01*
X250747319Y-105846547D02*
X250699700Y-105941785D01*
X250699700Y-105941785D02*
X250652080Y-105989404D01*
X250080652Y-104560833D02*
X250747319Y-104560833D01*
X249699700Y-104798928D02*
X250413985Y-105037023D01*
X250413985Y-105037023D02*
X250413985Y-104417976D01*
X251067319Y-109799404D02*
X250067319Y-109799404D01*
X251067319Y-109227976D02*
X250495890Y-109656547D01*
X250067319Y-109227976D02*
X250638747Y-109799404D01*
X66406819Y-125991785D02*
X65406819Y-125991785D01*
X65406819Y-125991785D02*
X65406819Y-125753690D01*
X65406819Y-125753690D02*
X65454438Y-125610833D01*
X65454438Y-125610833D02*
X65549676Y-125515595D01*
X65549676Y-125515595D02*
X65644914Y-125467976D01*
X65644914Y-125467976D02*
X65835390Y-125420357D01*
X65835390Y-125420357D02*
X65978247Y-125420357D01*
X65978247Y-125420357D02*
X66168723Y-125467976D01*
X66168723Y-125467976D02*
X66263961Y-125515595D01*
X66263961Y-125515595D02*
X66359200Y-125610833D01*
X66359200Y-125610833D02*
X66406819Y-125753690D01*
X66406819Y-125753690D02*
X66406819Y-125991785D01*
X65406819Y-124515595D02*
X65406819Y-124991785D01*
X65406819Y-124991785D02*
X65883009Y-125039404D01*
X65883009Y-125039404D02*
X65835390Y-124991785D01*
X65835390Y-124991785D02*
X65787771Y-124896547D01*
X65787771Y-124896547D02*
X65787771Y-124658452D01*
X65787771Y-124658452D02*
X65835390Y-124563214D01*
X65835390Y-124563214D02*
X65883009Y-124515595D01*
X65883009Y-124515595D02*
X65978247Y-124467976D01*
X65978247Y-124467976D02*
X66216342Y-124467976D01*
X66216342Y-124467976D02*
X66311580Y-124515595D01*
X66311580Y-124515595D02*
X66359200Y-124563214D01*
X66359200Y-124563214D02*
X66406819Y-124658452D01*
X66406819Y-124658452D02*
X66406819Y-124896547D01*
X66406819Y-124896547D02*
X66359200Y-124991785D01*
X66359200Y-124991785D02*
X66311580Y-125039404D01*
X65406819Y-124134642D02*
X65406819Y-123467976D01*
X65406819Y-123467976D02*
X66406819Y-123896547D01*
X66726819Y-128849404D02*
X65726819Y-128849404D01*
X66726819Y-128277976D02*
X66155390Y-128706547D01*
X65726819Y-128277976D02*
X66298247Y-128849404D01*
X160259819Y-68841785D02*
X159259819Y-68841785D01*
X159259819Y-68841785D02*
X159259819Y-68603690D01*
X159259819Y-68603690D02*
X159307438Y-68460833D01*
X159307438Y-68460833D02*
X159402676Y-68365595D01*
X159402676Y-68365595D02*
X159497914Y-68317976D01*
X159497914Y-68317976D02*
X159688390Y-68270357D01*
X159688390Y-68270357D02*
X159831247Y-68270357D01*
X159831247Y-68270357D02*
X160021723Y-68317976D01*
X160021723Y-68317976D02*
X160116961Y-68365595D01*
X160116961Y-68365595D02*
X160212200Y-68460833D01*
X160212200Y-68460833D02*
X160259819Y-68603690D01*
X160259819Y-68603690D02*
X160259819Y-68841785D01*
X159355057Y-67889404D02*
X159307438Y-67841785D01*
X159307438Y-67841785D02*
X159259819Y-67746547D01*
X159259819Y-67746547D02*
X159259819Y-67508452D01*
X159259819Y-67508452D02*
X159307438Y-67413214D01*
X159307438Y-67413214D02*
X159355057Y-67365595D01*
X159355057Y-67365595D02*
X159450295Y-67317976D01*
X159450295Y-67317976D02*
X159545533Y-67317976D01*
X159545533Y-67317976D02*
X159688390Y-67365595D01*
X159688390Y-67365595D02*
X160259819Y-67937023D01*
X160259819Y-67937023D02*
X160259819Y-67317976D01*
X159355057Y-66937023D02*
X159307438Y-66889404D01*
X159307438Y-66889404D02*
X159259819Y-66794166D01*
X159259819Y-66794166D02*
X159259819Y-66556071D01*
X159259819Y-66556071D02*
X159307438Y-66460833D01*
X159307438Y-66460833D02*
X159355057Y-66413214D01*
X159355057Y-66413214D02*
X159450295Y-66365595D01*
X159450295Y-66365595D02*
X159545533Y-66365595D01*
X159545533Y-66365595D02*
X159688390Y-66413214D01*
X159688390Y-66413214D02*
X160259819Y-66984642D01*
X160259819Y-66984642D02*
X160259819Y-66365595D01*
X160579819Y-71699404D02*
X159579819Y-71699404D01*
X160579819Y-71127976D02*
X160008390Y-71556547D01*
X159579819Y-71127976D02*
X160151247Y-71699404D01*
X155497319Y-106941785D02*
X154497319Y-106941785D01*
X154497319Y-106941785D02*
X154497319Y-106703690D01*
X154497319Y-106703690D02*
X154544938Y-106560833D01*
X154544938Y-106560833D02*
X154640176Y-106465595D01*
X154640176Y-106465595D02*
X154735414Y-106417976D01*
X154735414Y-106417976D02*
X154925890Y-106370357D01*
X154925890Y-106370357D02*
X155068747Y-106370357D01*
X155068747Y-106370357D02*
X155259223Y-106417976D01*
X155259223Y-106417976D02*
X155354461Y-106465595D01*
X155354461Y-106465595D02*
X155449700Y-106560833D01*
X155449700Y-106560833D02*
X155497319Y-106703690D01*
X155497319Y-106703690D02*
X155497319Y-106941785D01*
X154830652Y-105513214D02*
X155497319Y-105513214D01*
X154449700Y-105751309D02*
X155163985Y-105989404D01*
X155163985Y-105989404D02*
X155163985Y-105370357D01*
X155497319Y-104941785D02*
X155497319Y-104751309D01*
X155497319Y-104751309D02*
X155449700Y-104656071D01*
X155449700Y-104656071D02*
X155402080Y-104608452D01*
X155402080Y-104608452D02*
X155259223Y-104513214D01*
X155259223Y-104513214D02*
X155068747Y-104465595D01*
X155068747Y-104465595D02*
X154687795Y-104465595D01*
X154687795Y-104465595D02*
X154592557Y-104513214D01*
X154592557Y-104513214D02*
X154544938Y-104560833D01*
X154544938Y-104560833D02*
X154497319Y-104656071D01*
X154497319Y-104656071D02*
X154497319Y-104846547D01*
X154497319Y-104846547D02*
X154544938Y-104941785D01*
X154544938Y-104941785D02*
X154592557Y-104989404D01*
X154592557Y-104989404D02*
X154687795Y-105037023D01*
X154687795Y-105037023D02*
X154925890Y-105037023D01*
X154925890Y-105037023D02*
X155021128Y-104989404D01*
X155021128Y-104989404D02*
X155068747Y-104941785D01*
X155068747Y-104941785D02*
X155116366Y-104846547D01*
X155116366Y-104846547D02*
X155116366Y-104656071D01*
X155116366Y-104656071D02*
X155068747Y-104560833D01*
X155068747Y-104560833D02*
X155021128Y-104513214D01*
X155021128Y-104513214D02*
X154925890Y-104465595D01*
X155817319Y-109799404D02*
X154817319Y-109799404D01*
X155817319Y-109227976D02*
X155245890Y-109656547D01*
X154817319Y-109227976D02*
X155388747Y-109799404D01*
X288847319Y-45029285D02*
X287847319Y-45029285D01*
X287847319Y-45029285D02*
X287847319Y-44791190D01*
X287847319Y-44791190D02*
X287894938Y-44648333D01*
X287894938Y-44648333D02*
X287990176Y-44553095D01*
X287990176Y-44553095D02*
X288085414Y-44505476D01*
X288085414Y-44505476D02*
X288275890Y-44457857D01*
X288275890Y-44457857D02*
X288418747Y-44457857D01*
X288418747Y-44457857D02*
X288609223Y-44505476D01*
X288609223Y-44505476D02*
X288704461Y-44553095D01*
X288704461Y-44553095D02*
X288799700Y-44648333D01*
X288799700Y-44648333D02*
X288847319Y-44791190D01*
X288847319Y-44791190D02*
X288847319Y-45029285D01*
X288847319Y-43505476D02*
X288847319Y-44076904D01*
X288847319Y-43791190D02*
X287847319Y-43791190D01*
X287847319Y-43791190D02*
X287990176Y-43886428D01*
X287990176Y-43886428D02*
X288085414Y-43981666D01*
X288085414Y-43981666D02*
X288133033Y-44076904D01*
X287847319Y-43172142D02*
X287847319Y-42553095D01*
X287847319Y-42553095D02*
X288228271Y-42886428D01*
X288228271Y-42886428D02*
X288228271Y-42743571D01*
X288228271Y-42743571D02*
X288275890Y-42648333D01*
X288275890Y-42648333D02*
X288323509Y-42600714D01*
X288323509Y-42600714D02*
X288418747Y-42553095D01*
X288418747Y-42553095D02*
X288656842Y-42553095D01*
X288656842Y-42553095D02*
X288752080Y-42600714D01*
X288752080Y-42600714D02*
X288799700Y-42648333D01*
X288799700Y-42648333D02*
X288847319Y-42743571D01*
X288847319Y-42743571D02*
X288847319Y-43029285D01*
X288847319Y-43029285D02*
X288799700Y-43124523D01*
X288799700Y-43124523D02*
X288752080Y-43172142D01*
X289167319Y-47886904D02*
X288167319Y-47886904D01*
X289167319Y-47315476D02*
X288595890Y-47744047D01*
X288167319Y-47315476D02*
X288738747Y-47886904D01*
X212647319Y-106941785D02*
X211647319Y-106941785D01*
X211647319Y-106941785D02*
X211647319Y-106703690D01*
X211647319Y-106703690D02*
X211694938Y-106560833D01*
X211694938Y-106560833D02*
X211790176Y-106465595D01*
X211790176Y-106465595D02*
X211885414Y-106417976D01*
X211885414Y-106417976D02*
X212075890Y-106370357D01*
X212075890Y-106370357D02*
X212218747Y-106370357D01*
X212218747Y-106370357D02*
X212409223Y-106417976D01*
X212409223Y-106417976D02*
X212504461Y-106465595D01*
X212504461Y-106465595D02*
X212599700Y-106560833D01*
X212599700Y-106560833D02*
X212647319Y-106703690D01*
X212647319Y-106703690D02*
X212647319Y-106941785D01*
X211647319Y-105465595D02*
X211647319Y-105941785D01*
X211647319Y-105941785D02*
X212123509Y-105989404D01*
X212123509Y-105989404D02*
X212075890Y-105941785D01*
X212075890Y-105941785D02*
X212028271Y-105846547D01*
X212028271Y-105846547D02*
X212028271Y-105608452D01*
X212028271Y-105608452D02*
X212075890Y-105513214D01*
X212075890Y-105513214D02*
X212123509Y-105465595D01*
X212123509Y-105465595D02*
X212218747Y-105417976D01*
X212218747Y-105417976D02*
X212456842Y-105417976D01*
X212456842Y-105417976D02*
X212552080Y-105465595D01*
X212552080Y-105465595D02*
X212599700Y-105513214D01*
X212599700Y-105513214D02*
X212647319Y-105608452D01*
X212647319Y-105608452D02*
X212647319Y-105846547D01*
X212647319Y-105846547D02*
X212599700Y-105941785D01*
X212599700Y-105941785D02*
X212552080Y-105989404D01*
X211742557Y-105037023D02*
X211694938Y-104989404D01*
X211694938Y-104989404D02*
X211647319Y-104894166D01*
X211647319Y-104894166D02*
X211647319Y-104656071D01*
X211647319Y-104656071D02*
X211694938Y-104560833D01*
X211694938Y-104560833D02*
X211742557Y-104513214D01*
X211742557Y-104513214D02*
X211837795Y-104465595D01*
X211837795Y-104465595D02*
X211933033Y-104465595D01*
X211933033Y-104465595D02*
X212075890Y-104513214D01*
X212075890Y-104513214D02*
X212647319Y-105084642D01*
X212647319Y-105084642D02*
X212647319Y-104465595D01*
X212967319Y-109799404D02*
X211967319Y-109799404D01*
X212967319Y-109227976D02*
X212395890Y-109656547D01*
X211967319Y-109227976D02*
X212538747Y-109799404D01*
X98347319Y-106941785D02*
X97347319Y-106941785D01*
X97347319Y-106941785D02*
X97347319Y-106703690D01*
X97347319Y-106703690D02*
X97394938Y-106560833D01*
X97394938Y-106560833D02*
X97490176Y-106465595D01*
X97490176Y-106465595D02*
X97585414Y-106417976D01*
X97585414Y-106417976D02*
X97775890Y-106370357D01*
X97775890Y-106370357D02*
X97918747Y-106370357D01*
X97918747Y-106370357D02*
X98109223Y-106417976D01*
X98109223Y-106417976D02*
X98204461Y-106465595D01*
X98204461Y-106465595D02*
X98299700Y-106560833D01*
X98299700Y-106560833D02*
X98347319Y-106703690D01*
X98347319Y-106703690D02*
X98347319Y-106941785D01*
X97680652Y-105513214D02*
X98347319Y-105513214D01*
X97299700Y-105751309D02*
X98013985Y-105989404D01*
X98013985Y-105989404D02*
X98013985Y-105370357D01*
X97347319Y-104560833D02*
X97347319Y-104751309D01*
X97347319Y-104751309D02*
X97394938Y-104846547D01*
X97394938Y-104846547D02*
X97442557Y-104894166D01*
X97442557Y-104894166D02*
X97585414Y-104989404D01*
X97585414Y-104989404D02*
X97775890Y-105037023D01*
X97775890Y-105037023D02*
X98156842Y-105037023D01*
X98156842Y-105037023D02*
X98252080Y-104989404D01*
X98252080Y-104989404D02*
X98299700Y-104941785D01*
X98299700Y-104941785D02*
X98347319Y-104846547D01*
X98347319Y-104846547D02*
X98347319Y-104656071D01*
X98347319Y-104656071D02*
X98299700Y-104560833D01*
X98299700Y-104560833D02*
X98252080Y-104513214D01*
X98252080Y-104513214D02*
X98156842Y-104465595D01*
X98156842Y-104465595D02*
X97918747Y-104465595D01*
X97918747Y-104465595D02*
X97823509Y-104513214D01*
X97823509Y-104513214D02*
X97775890Y-104560833D01*
X97775890Y-104560833D02*
X97728271Y-104656071D01*
X97728271Y-104656071D02*
X97728271Y-104846547D01*
X97728271Y-104846547D02*
X97775890Y-104941785D01*
X97775890Y-104941785D02*
X97823509Y-104989404D01*
X97823509Y-104989404D02*
X97918747Y-105037023D01*
X98667319Y-109799404D02*
X97667319Y-109799404D01*
X98667319Y-109227976D02*
X98095890Y-109656547D01*
X97667319Y-109227976D02*
X98238747Y-109799404D01*
X217409819Y-68841785D02*
X216409819Y-68841785D01*
X216409819Y-68841785D02*
X216409819Y-68603690D01*
X216409819Y-68603690D02*
X216457438Y-68460833D01*
X216457438Y-68460833D02*
X216552676Y-68365595D01*
X216552676Y-68365595D02*
X216647914Y-68317976D01*
X216647914Y-68317976D02*
X216838390Y-68270357D01*
X216838390Y-68270357D02*
X216981247Y-68270357D01*
X216981247Y-68270357D02*
X217171723Y-68317976D01*
X217171723Y-68317976D02*
X217266961Y-68365595D01*
X217266961Y-68365595D02*
X217362200Y-68460833D01*
X217362200Y-68460833D02*
X217409819Y-68603690D01*
X217409819Y-68603690D02*
X217409819Y-68841785D01*
X216505057Y-67889404D02*
X216457438Y-67841785D01*
X216457438Y-67841785D02*
X216409819Y-67746547D01*
X216409819Y-67746547D02*
X216409819Y-67508452D01*
X216409819Y-67508452D02*
X216457438Y-67413214D01*
X216457438Y-67413214D02*
X216505057Y-67365595D01*
X216505057Y-67365595D02*
X216600295Y-67317976D01*
X216600295Y-67317976D02*
X216695533Y-67317976D01*
X216695533Y-67317976D02*
X216838390Y-67365595D01*
X216838390Y-67365595D02*
X217409819Y-67937023D01*
X217409819Y-67937023D02*
X217409819Y-67317976D01*
X216409819Y-66413214D02*
X216409819Y-66889404D01*
X216409819Y-66889404D02*
X216886009Y-66937023D01*
X216886009Y-66937023D02*
X216838390Y-66889404D01*
X216838390Y-66889404D02*
X216790771Y-66794166D01*
X216790771Y-66794166D02*
X216790771Y-66556071D01*
X216790771Y-66556071D02*
X216838390Y-66460833D01*
X216838390Y-66460833D02*
X216886009Y-66413214D01*
X216886009Y-66413214D02*
X216981247Y-66365595D01*
X216981247Y-66365595D02*
X217219342Y-66365595D01*
X217219342Y-66365595D02*
X217314580Y-66413214D01*
X217314580Y-66413214D02*
X217362200Y-66460833D01*
X217362200Y-66460833D02*
X217409819Y-66556071D01*
X217409819Y-66556071D02*
X217409819Y-66794166D01*
X217409819Y-66794166D02*
X217362200Y-66889404D01*
X217362200Y-66889404D02*
X217314580Y-66937023D01*
X217729819Y-71699404D02*
X216729819Y-71699404D01*
X217729819Y-71127976D02*
X217158390Y-71556547D01*
X216729819Y-71127976D02*
X217301247Y-71699404D01*
X184072319Y-125991785D02*
X183072319Y-125991785D01*
X183072319Y-125991785D02*
X183072319Y-125753690D01*
X183072319Y-125753690D02*
X183119938Y-125610833D01*
X183119938Y-125610833D02*
X183215176Y-125515595D01*
X183215176Y-125515595D02*
X183310414Y-125467976D01*
X183310414Y-125467976D02*
X183500890Y-125420357D01*
X183500890Y-125420357D02*
X183643747Y-125420357D01*
X183643747Y-125420357D02*
X183834223Y-125467976D01*
X183834223Y-125467976D02*
X183929461Y-125515595D01*
X183929461Y-125515595D02*
X184024700Y-125610833D01*
X184024700Y-125610833D02*
X184072319Y-125753690D01*
X184072319Y-125753690D02*
X184072319Y-125991785D01*
X183072319Y-124563214D02*
X183072319Y-124753690D01*
X183072319Y-124753690D02*
X183119938Y-124848928D01*
X183119938Y-124848928D02*
X183167557Y-124896547D01*
X183167557Y-124896547D02*
X183310414Y-124991785D01*
X183310414Y-124991785D02*
X183500890Y-125039404D01*
X183500890Y-125039404D02*
X183881842Y-125039404D01*
X183881842Y-125039404D02*
X183977080Y-124991785D01*
X183977080Y-124991785D02*
X184024700Y-124944166D01*
X184024700Y-124944166D02*
X184072319Y-124848928D01*
X184072319Y-124848928D02*
X184072319Y-124658452D01*
X184072319Y-124658452D02*
X184024700Y-124563214D01*
X184024700Y-124563214D02*
X183977080Y-124515595D01*
X183977080Y-124515595D02*
X183881842Y-124467976D01*
X183881842Y-124467976D02*
X183643747Y-124467976D01*
X183643747Y-124467976D02*
X183548509Y-124515595D01*
X183548509Y-124515595D02*
X183500890Y-124563214D01*
X183500890Y-124563214D02*
X183453271Y-124658452D01*
X183453271Y-124658452D02*
X183453271Y-124848928D01*
X183453271Y-124848928D02*
X183500890Y-124944166D01*
X183500890Y-124944166D02*
X183548509Y-124991785D01*
X183548509Y-124991785D02*
X183643747Y-125039404D01*
X183072319Y-124134642D02*
X183072319Y-123515595D01*
X183072319Y-123515595D02*
X183453271Y-123848928D01*
X183453271Y-123848928D02*
X183453271Y-123706071D01*
X183453271Y-123706071D02*
X183500890Y-123610833D01*
X183500890Y-123610833D02*
X183548509Y-123563214D01*
X183548509Y-123563214D02*
X183643747Y-123515595D01*
X183643747Y-123515595D02*
X183881842Y-123515595D01*
X183881842Y-123515595D02*
X183977080Y-123563214D01*
X183977080Y-123563214D02*
X184024700Y-123610833D01*
X184024700Y-123610833D02*
X184072319Y-123706071D01*
X184072319Y-123706071D02*
X184072319Y-123991785D01*
X184072319Y-123991785D02*
X184024700Y-124087023D01*
X184024700Y-124087023D02*
X183977080Y-124134642D01*
X184392319Y-128849404D02*
X183392319Y-128849404D01*
X184392319Y-128277976D02*
X183820890Y-128706547D01*
X183392319Y-128277976D02*
X183963747Y-128849404D01*
X210266069Y-44553094D02*
X209266069Y-44553094D01*
X209266069Y-44553094D02*
X209266069Y-44314999D01*
X209266069Y-44314999D02*
X209313688Y-44172142D01*
X209313688Y-44172142D02*
X209408926Y-44076904D01*
X209408926Y-44076904D02*
X209504164Y-44029285D01*
X209504164Y-44029285D02*
X209694640Y-43981666D01*
X209694640Y-43981666D02*
X209837497Y-43981666D01*
X209837497Y-43981666D02*
X210027973Y-44029285D01*
X210027973Y-44029285D02*
X210123211Y-44076904D01*
X210123211Y-44076904D02*
X210218450Y-44172142D01*
X210218450Y-44172142D02*
X210266069Y-44314999D01*
X210266069Y-44314999D02*
X210266069Y-44553094D01*
X210266069Y-43505475D02*
X210266069Y-43314999D01*
X210266069Y-43314999D02*
X210218450Y-43219761D01*
X210218450Y-43219761D02*
X210170830Y-43172142D01*
X210170830Y-43172142D02*
X210027973Y-43076904D01*
X210027973Y-43076904D02*
X209837497Y-43029285D01*
X209837497Y-43029285D02*
X209456545Y-43029285D01*
X209456545Y-43029285D02*
X209361307Y-43076904D01*
X209361307Y-43076904D02*
X209313688Y-43124523D01*
X209313688Y-43124523D02*
X209266069Y-43219761D01*
X209266069Y-43219761D02*
X209266069Y-43410237D01*
X209266069Y-43410237D02*
X209313688Y-43505475D01*
X209313688Y-43505475D02*
X209361307Y-43553094D01*
X209361307Y-43553094D02*
X209456545Y-43600713D01*
X209456545Y-43600713D02*
X209694640Y-43600713D01*
X209694640Y-43600713D02*
X209789878Y-43553094D01*
X209789878Y-43553094D02*
X209837497Y-43505475D01*
X209837497Y-43505475D02*
X209885116Y-43410237D01*
X209885116Y-43410237D02*
X209885116Y-43219761D01*
X209885116Y-43219761D02*
X209837497Y-43124523D01*
X209837497Y-43124523D02*
X209789878Y-43076904D01*
X209789878Y-43076904D02*
X209694640Y-43029285D01*
X210586069Y-47886904D02*
X209586069Y-47886904D01*
X210586069Y-47315476D02*
X210014640Y-47744047D01*
X209586069Y-47315476D02*
X210157497Y-47886904D01*
X88822319Y-44553094D02*
X87822319Y-44553094D01*
X87822319Y-44553094D02*
X87822319Y-44314999D01*
X87822319Y-44314999D02*
X87869938Y-44172142D01*
X87869938Y-44172142D02*
X87965176Y-44076904D01*
X87965176Y-44076904D02*
X88060414Y-44029285D01*
X88060414Y-44029285D02*
X88250890Y-43981666D01*
X88250890Y-43981666D02*
X88393747Y-43981666D01*
X88393747Y-43981666D02*
X88584223Y-44029285D01*
X88584223Y-44029285D02*
X88679461Y-44076904D01*
X88679461Y-44076904D02*
X88774700Y-44172142D01*
X88774700Y-44172142D02*
X88822319Y-44314999D01*
X88822319Y-44314999D02*
X88822319Y-44553094D01*
X87822319Y-43648332D02*
X87822319Y-43029285D01*
X87822319Y-43029285D02*
X88203271Y-43362618D01*
X88203271Y-43362618D02*
X88203271Y-43219761D01*
X88203271Y-43219761D02*
X88250890Y-43124523D01*
X88250890Y-43124523D02*
X88298509Y-43076904D01*
X88298509Y-43076904D02*
X88393747Y-43029285D01*
X88393747Y-43029285D02*
X88631842Y-43029285D01*
X88631842Y-43029285D02*
X88727080Y-43076904D01*
X88727080Y-43076904D02*
X88774700Y-43124523D01*
X88774700Y-43124523D02*
X88822319Y-43219761D01*
X88822319Y-43219761D02*
X88822319Y-43505475D01*
X88822319Y-43505475D02*
X88774700Y-43600713D01*
X88774700Y-43600713D02*
X88727080Y-43648332D01*
X89142319Y-47886904D02*
X88142319Y-47886904D01*
X89142319Y-47315476D02*
X88570890Y-47744047D01*
X88142319Y-47315476D02*
X88713747Y-47886904D01*
X236459819Y-68841785D02*
X235459819Y-68841785D01*
X235459819Y-68841785D02*
X235459819Y-68603690D01*
X235459819Y-68603690D02*
X235507438Y-68460833D01*
X235507438Y-68460833D02*
X235602676Y-68365595D01*
X235602676Y-68365595D02*
X235697914Y-68317976D01*
X235697914Y-68317976D02*
X235888390Y-68270357D01*
X235888390Y-68270357D02*
X236031247Y-68270357D01*
X236031247Y-68270357D02*
X236221723Y-68317976D01*
X236221723Y-68317976D02*
X236316961Y-68365595D01*
X236316961Y-68365595D02*
X236412200Y-68460833D01*
X236412200Y-68460833D02*
X236459819Y-68603690D01*
X236459819Y-68603690D02*
X236459819Y-68841785D01*
X235555057Y-67889404D02*
X235507438Y-67841785D01*
X235507438Y-67841785D02*
X235459819Y-67746547D01*
X235459819Y-67746547D02*
X235459819Y-67508452D01*
X235459819Y-67508452D02*
X235507438Y-67413214D01*
X235507438Y-67413214D02*
X235555057Y-67365595D01*
X235555057Y-67365595D02*
X235650295Y-67317976D01*
X235650295Y-67317976D02*
X235745533Y-67317976D01*
X235745533Y-67317976D02*
X235888390Y-67365595D01*
X235888390Y-67365595D02*
X236459819Y-67937023D01*
X236459819Y-67937023D02*
X236459819Y-67317976D01*
X235459819Y-66460833D02*
X235459819Y-66651309D01*
X235459819Y-66651309D02*
X235507438Y-66746547D01*
X235507438Y-66746547D02*
X235555057Y-66794166D01*
X235555057Y-66794166D02*
X235697914Y-66889404D01*
X235697914Y-66889404D02*
X235888390Y-66937023D01*
X235888390Y-66937023D02*
X236269342Y-66937023D01*
X236269342Y-66937023D02*
X236364580Y-66889404D01*
X236364580Y-66889404D02*
X236412200Y-66841785D01*
X236412200Y-66841785D02*
X236459819Y-66746547D01*
X236459819Y-66746547D02*
X236459819Y-66556071D01*
X236459819Y-66556071D02*
X236412200Y-66460833D01*
X236412200Y-66460833D02*
X236364580Y-66413214D01*
X236364580Y-66413214D02*
X236269342Y-66365595D01*
X236269342Y-66365595D02*
X236031247Y-66365595D01*
X236031247Y-66365595D02*
X235936009Y-66413214D01*
X235936009Y-66413214D02*
X235888390Y-66460833D01*
X235888390Y-66460833D02*
X235840771Y-66556071D01*
X235840771Y-66556071D02*
X235840771Y-66746547D01*
X235840771Y-66746547D02*
X235888390Y-66841785D01*
X235888390Y-66841785D02*
X235936009Y-66889404D01*
X235936009Y-66889404D02*
X236031247Y-66937023D01*
X236779819Y-71699404D02*
X235779819Y-71699404D01*
X236779819Y-71127976D02*
X236208390Y-71556547D01*
X235779819Y-71127976D02*
X236351247Y-71699404D01*
X45959819Y-68841785D02*
X44959819Y-68841785D01*
X44959819Y-68841785D02*
X44959819Y-68603690D01*
X44959819Y-68603690D02*
X45007438Y-68460833D01*
X45007438Y-68460833D02*
X45102676Y-68365595D01*
X45102676Y-68365595D02*
X45197914Y-68317976D01*
X45197914Y-68317976D02*
X45388390Y-68270357D01*
X45388390Y-68270357D02*
X45531247Y-68270357D01*
X45531247Y-68270357D02*
X45721723Y-68317976D01*
X45721723Y-68317976D02*
X45816961Y-68365595D01*
X45816961Y-68365595D02*
X45912200Y-68460833D01*
X45912200Y-68460833D02*
X45959819Y-68603690D01*
X45959819Y-68603690D02*
X45959819Y-68841785D01*
X45959819Y-67317976D02*
X45959819Y-67889404D01*
X45959819Y-67603690D02*
X44959819Y-67603690D01*
X44959819Y-67603690D02*
X45102676Y-67698928D01*
X45102676Y-67698928D02*
X45197914Y-67794166D01*
X45197914Y-67794166D02*
X45245533Y-67889404D01*
X44959819Y-66460833D02*
X44959819Y-66651309D01*
X44959819Y-66651309D02*
X45007438Y-66746547D01*
X45007438Y-66746547D02*
X45055057Y-66794166D01*
X45055057Y-66794166D02*
X45197914Y-66889404D01*
X45197914Y-66889404D02*
X45388390Y-66937023D01*
X45388390Y-66937023D02*
X45769342Y-66937023D01*
X45769342Y-66937023D02*
X45864580Y-66889404D01*
X45864580Y-66889404D02*
X45912200Y-66841785D01*
X45912200Y-66841785D02*
X45959819Y-66746547D01*
X45959819Y-66746547D02*
X45959819Y-66556071D01*
X45959819Y-66556071D02*
X45912200Y-66460833D01*
X45912200Y-66460833D02*
X45864580Y-66413214D01*
X45864580Y-66413214D02*
X45769342Y-66365595D01*
X45769342Y-66365595D02*
X45531247Y-66365595D01*
X45531247Y-66365595D02*
X45436009Y-66413214D01*
X45436009Y-66413214D02*
X45388390Y-66460833D01*
X45388390Y-66460833D02*
X45340771Y-66556071D01*
X45340771Y-66556071D02*
X45340771Y-66746547D01*
X45340771Y-66746547D02*
X45388390Y-66841785D01*
X45388390Y-66841785D02*
X45436009Y-66889404D01*
X45436009Y-66889404D02*
X45531247Y-66937023D01*
X46279819Y-71699404D02*
X45279819Y-71699404D01*
X46279819Y-71127976D02*
X45708390Y-71556547D01*
X45279819Y-71127976D02*
X45851247Y-71699404D01*
X319803569Y-130754285D02*
X318803569Y-130754285D01*
X318803569Y-130754285D02*
X318803569Y-130516190D01*
X318803569Y-130516190D02*
X318851188Y-130373333D01*
X318851188Y-130373333D02*
X318946426Y-130278095D01*
X318946426Y-130278095D02*
X319041664Y-130230476D01*
X319041664Y-130230476D02*
X319232140Y-130182857D01*
X319232140Y-130182857D02*
X319374997Y-130182857D01*
X319374997Y-130182857D02*
X319565473Y-130230476D01*
X319565473Y-130230476D02*
X319660711Y-130278095D01*
X319660711Y-130278095D02*
X319755950Y-130373333D01*
X319755950Y-130373333D02*
X319803569Y-130516190D01*
X319803569Y-130516190D02*
X319803569Y-130754285D01*
X318803569Y-129325714D02*
X318803569Y-129516190D01*
X318803569Y-129516190D02*
X318851188Y-129611428D01*
X318851188Y-129611428D02*
X318898807Y-129659047D01*
X318898807Y-129659047D02*
X319041664Y-129754285D01*
X319041664Y-129754285D02*
X319232140Y-129801904D01*
X319232140Y-129801904D02*
X319613092Y-129801904D01*
X319613092Y-129801904D02*
X319708330Y-129754285D01*
X319708330Y-129754285D02*
X319755950Y-129706666D01*
X319755950Y-129706666D02*
X319803569Y-129611428D01*
X319803569Y-129611428D02*
X319803569Y-129420952D01*
X319803569Y-129420952D02*
X319755950Y-129325714D01*
X319755950Y-129325714D02*
X319708330Y-129278095D01*
X319708330Y-129278095D02*
X319613092Y-129230476D01*
X319613092Y-129230476D02*
X319374997Y-129230476D01*
X319374997Y-129230476D02*
X319279759Y-129278095D01*
X319279759Y-129278095D02*
X319232140Y-129325714D01*
X319232140Y-129325714D02*
X319184521Y-129420952D01*
X319184521Y-129420952D02*
X319184521Y-129611428D01*
X319184521Y-129611428D02*
X319232140Y-129706666D01*
X319232140Y-129706666D02*
X319279759Y-129754285D01*
X319279759Y-129754285D02*
X319374997Y-129801904D01*
X319803569Y-128754285D02*
X319803569Y-128563809D01*
X319803569Y-128563809D02*
X319755950Y-128468571D01*
X319755950Y-128468571D02*
X319708330Y-128420952D01*
X319708330Y-128420952D02*
X319565473Y-128325714D01*
X319565473Y-128325714D02*
X319374997Y-128278095D01*
X319374997Y-128278095D02*
X318994045Y-128278095D01*
X318994045Y-128278095D02*
X318898807Y-128325714D01*
X318898807Y-128325714D02*
X318851188Y-128373333D01*
X318851188Y-128373333D02*
X318803569Y-128468571D01*
X318803569Y-128468571D02*
X318803569Y-128659047D01*
X318803569Y-128659047D02*
X318851188Y-128754285D01*
X318851188Y-128754285D02*
X318898807Y-128801904D01*
X318898807Y-128801904D02*
X318994045Y-128849523D01*
X318994045Y-128849523D02*
X319232140Y-128849523D01*
X319232140Y-128849523D02*
X319327378Y-128801904D01*
X319327378Y-128801904D02*
X319374997Y-128754285D01*
X319374997Y-128754285D02*
X319422616Y-128659047D01*
X319422616Y-128659047D02*
X319422616Y-128468571D01*
X319422616Y-128468571D02*
X319374997Y-128373333D01*
X319374997Y-128373333D02*
X319327378Y-128325714D01*
X319327378Y-128325714D02*
X319232140Y-128278095D01*
X320123569Y-133611904D02*
X319123569Y-133611904D01*
X320123569Y-133040476D02*
X319552140Y-133469047D01*
X319123569Y-133040476D02*
X319694997Y-133611904D01*
X122159819Y-68841785D02*
X121159819Y-68841785D01*
X121159819Y-68841785D02*
X121159819Y-68603690D01*
X121159819Y-68603690D02*
X121207438Y-68460833D01*
X121207438Y-68460833D02*
X121302676Y-68365595D01*
X121302676Y-68365595D02*
X121397914Y-68317976D01*
X121397914Y-68317976D02*
X121588390Y-68270357D01*
X121588390Y-68270357D02*
X121731247Y-68270357D01*
X121731247Y-68270357D02*
X121921723Y-68317976D01*
X121921723Y-68317976D02*
X122016961Y-68365595D01*
X122016961Y-68365595D02*
X122112200Y-68460833D01*
X122112200Y-68460833D02*
X122159819Y-68603690D01*
X122159819Y-68603690D02*
X122159819Y-68841785D01*
X121255057Y-67889404D02*
X121207438Y-67841785D01*
X121207438Y-67841785D02*
X121159819Y-67746547D01*
X121159819Y-67746547D02*
X121159819Y-67508452D01*
X121159819Y-67508452D02*
X121207438Y-67413214D01*
X121207438Y-67413214D02*
X121255057Y-67365595D01*
X121255057Y-67365595D02*
X121350295Y-67317976D01*
X121350295Y-67317976D02*
X121445533Y-67317976D01*
X121445533Y-67317976D02*
X121588390Y-67365595D01*
X121588390Y-67365595D02*
X122159819Y-67937023D01*
X122159819Y-67937023D02*
X122159819Y-67317976D01*
X121159819Y-66698928D02*
X121159819Y-66603690D01*
X121159819Y-66603690D02*
X121207438Y-66508452D01*
X121207438Y-66508452D02*
X121255057Y-66460833D01*
X121255057Y-66460833D02*
X121350295Y-66413214D01*
X121350295Y-66413214D02*
X121540771Y-66365595D01*
X121540771Y-66365595D02*
X121778866Y-66365595D01*
X121778866Y-66365595D02*
X121969342Y-66413214D01*
X121969342Y-66413214D02*
X122064580Y-66460833D01*
X122064580Y-66460833D02*
X122112200Y-66508452D01*
X122112200Y-66508452D02*
X122159819Y-66603690D01*
X122159819Y-66603690D02*
X122159819Y-66698928D01*
X122159819Y-66698928D02*
X122112200Y-66794166D01*
X122112200Y-66794166D02*
X122064580Y-66841785D01*
X122064580Y-66841785D02*
X121969342Y-66889404D01*
X121969342Y-66889404D02*
X121778866Y-66937023D01*
X121778866Y-66937023D02*
X121540771Y-66937023D01*
X121540771Y-66937023D02*
X121350295Y-66889404D01*
X121350295Y-66889404D02*
X121255057Y-66841785D01*
X121255057Y-66841785D02*
X121207438Y-66794166D01*
X121207438Y-66794166D02*
X121159819Y-66698928D01*
X122479819Y-71699404D02*
X121479819Y-71699404D01*
X122479819Y-71127976D02*
X121908390Y-71556547D01*
X121479819Y-71127976D02*
X122051247Y-71699404D01*
X269797319Y-45029285D02*
X268797319Y-45029285D01*
X268797319Y-45029285D02*
X268797319Y-44791190D01*
X268797319Y-44791190D02*
X268844938Y-44648333D01*
X268844938Y-44648333D02*
X268940176Y-44553095D01*
X268940176Y-44553095D02*
X269035414Y-44505476D01*
X269035414Y-44505476D02*
X269225890Y-44457857D01*
X269225890Y-44457857D02*
X269368747Y-44457857D01*
X269368747Y-44457857D02*
X269559223Y-44505476D01*
X269559223Y-44505476D02*
X269654461Y-44553095D01*
X269654461Y-44553095D02*
X269749700Y-44648333D01*
X269749700Y-44648333D02*
X269797319Y-44791190D01*
X269797319Y-44791190D02*
X269797319Y-45029285D01*
X269797319Y-43505476D02*
X269797319Y-44076904D01*
X269797319Y-43791190D02*
X268797319Y-43791190D01*
X268797319Y-43791190D02*
X268940176Y-43886428D01*
X268940176Y-43886428D02*
X269035414Y-43981666D01*
X269035414Y-43981666D02*
X269083033Y-44076904D01*
X268892557Y-43124523D02*
X268844938Y-43076904D01*
X268844938Y-43076904D02*
X268797319Y-42981666D01*
X268797319Y-42981666D02*
X268797319Y-42743571D01*
X268797319Y-42743571D02*
X268844938Y-42648333D01*
X268844938Y-42648333D02*
X268892557Y-42600714D01*
X268892557Y-42600714D02*
X268987795Y-42553095D01*
X268987795Y-42553095D02*
X269083033Y-42553095D01*
X269083033Y-42553095D02*
X269225890Y-42600714D01*
X269225890Y-42600714D02*
X269797319Y-43172142D01*
X269797319Y-43172142D02*
X269797319Y-42553095D01*
X270117319Y-47886904D02*
X269117319Y-47886904D01*
X270117319Y-47315476D02*
X269545890Y-47744047D01*
X269117319Y-47315476D02*
X269688747Y-47886904D01*
X112634819Y-87891785D02*
X111634819Y-87891785D01*
X111634819Y-87891785D02*
X111634819Y-87653690D01*
X111634819Y-87653690D02*
X111682438Y-87510833D01*
X111682438Y-87510833D02*
X111777676Y-87415595D01*
X111777676Y-87415595D02*
X111872914Y-87367976D01*
X111872914Y-87367976D02*
X112063390Y-87320357D01*
X112063390Y-87320357D02*
X112206247Y-87320357D01*
X112206247Y-87320357D02*
X112396723Y-87367976D01*
X112396723Y-87367976D02*
X112491961Y-87415595D01*
X112491961Y-87415595D02*
X112587200Y-87510833D01*
X112587200Y-87510833D02*
X112634819Y-87653690D01*
X112634819Y-87653690D02*
X112634819Y-87891785D01*
X111634819Y-86987023D02*
X111634819Y-86367976D01*
X111634819Y-86367976D02*
X112015771Y-86701309D01*
X112015771Y-86701309D02*
X112015771Y-86558452D01*
X112015771Y-86558452D02*
X112063390Y-86463214D01*
X112063390Y-86463214D02*
X112111009Y-86415595D01*
X112111009Y-86415595D02*
X112206247Y-86367976D01*
X112206247Y-86367976D02*
X112444342Y-86367976D01*
X112444342Y-86367976D02*
X112539580Y-86415595D01*
X112539580Y-86415595D02*
X112587200Y-86463214D01*
X112587200Y-86463214D02*
X112634819Y-86558452D01*
X112634819Y-86558452D02*
X112634819Y-86844166D01*
X112634819Y-86844166D02*
X112587200Y-86939404D01*
X112587200Y-86939404D02*
X112539580Y-86987023D01*
X111634819Y-86034642D02*
X111634819Y-85415595D01*
X111634819Y-85415595D02*
X112015771Y-85748928D01*
X112015771Y-85748928D02*
X112015771Y-85606071D01*
X112015771Y-85606071D02*
X112063390Y-85510833D01*
X112063390Y-85510833D02*
X112111009Y-85463214D01*
X112111009Y-85463214D02*
X112206247Y-85415595D01*
X112206247Y-85415595D02*
X112444342Y-85415595D01*
X112444342Y-85415595D02*
X112539580Y-85463214D01*
X112539580Y-85463214D02*
X112587200Y-85510833D01*
X112587200Y-85510833D02*
X112634819Y-85606071D01*
X112634819Y-85606071D02*
X112634819Y-85891785D01*
X112634819Y-85891785D02*
X112587200Y-85987023D01*
X112587200Y-85987023D02*
X112539580Y-86034642D01*
X112954819Y-90749404D02*
X111954819Y-90749404D01*
X112954819Y-90177976D02*
X112383390Y-90606547D01*
X111954819Y-90177976D02*
X112526247Y-90749404D01*
X307897319Y-106941785D02*
X306897319Y-106941785D01*
X306897319Y-106941785D02*
X306897319Y-106703690D01*
X306897319Y-106703690D02*
X306944938Y-106560833D01*
X306944938Y-106560833D02*
X307040176Y-106465595D01*
X307040176Y-106465595D02*
X307135414Y-106417976D01*
X307135414Y-106417976D02*
X307325890Y-106370357D01*
X307325890Y-106370357D02*
X307468747Y-106370357D01*
X307468747Y-106370357D02*
X307659223Y-106417976D01*
X307659223Y-106417976D02*
X307754461Y-106465595D01*
X307754461Y-106465595D02*
X307849700Y-106560833D01*
X307849700Y-106560833D02*
X307897319Y-106703690D01*
X307897319Y-106703690D02*
X307897319Y-106941785D01*
X306897319Y-105465595D02*
X306897319Y-105941785D01*
X306897319Y-105941785D02*
X307373509Y-105989404D01*
X307373509Y-105989404D02*
X307325890Y-105941785D01*
X307325890Y-105941785D02*
X307278271Y-105846547D01*
X307278271Y-105846547D02*
X307278271Y-105608452D01*
X307278271Y-105608452D02*
X307325890Y-105513214D01*
X307325890Y-105513214D02*
X307373509Y-105465595D01*
X307373509Y-105465595D02*
X307468747Y-105417976D01*
X307468747Y-105417976D02*
X307706842Y-105417976D01*
X307706842Y-105417976D02*
X307802080Y-105465595D01*
X307802080Y-105465595D02*
X307849700Y-105513214D01*
X307849700Y-105513214D02*
X307897319Y-105608452D01*
X307897319Y-105608452D02*
X307897319Y-105846547D01*
X307897319Y-105846547D02*
X307849700Y-105941785D01*
X307849700Y-105941785D02*
X307802080Y-105989404D01*
X306897319Y-104560833D02*
X306897319Y-104751309D01*
X306897319Y-104751309D02*
X306944938Y-104846547D01*
X306944938Y-104846547D02*
X306992557Y-104894166D01*
X306992557Y-104894166D02*
X307135414Y-104989404D01*
X307135414Y-104989404D02*
X307325890Y-105037023D01*
X307325890Y-105037023D02*
X307706842Y-105037023D01*
X307706842Y-105037023D02*
X307802080Y-104989404D01*
X307802080Y-104989404D02*
X307849700Y-104941785D01*
X307849700Y-104941785D02*
X307897319Y-104846547D01*
X307897319Y-104846547D02*
X307897319Y-104656071D01*
X307897319Y-104656071D02*
X307849700Y-104560833D01*
X307849700Y-104560833D02*
X307802080Y-104513214D01*
X307802080Y-104513214D02*
X307706842Y-104465595D01*
X307706842Y-104465595D02*
X307468747Y-104465595D01*
X307468747Y-104465595D02*
X307373509Y-104513214D01*
X307373509Y-104513214D02*
X307325890Y-104560833D01*
X307325890Y-104560833D02*
X307278271Y-104656071D01*
X307278271Y-104656071D02*
X307278271Y-104846547D01*
X307278271Y-104846547D02*
X307325890Y-104941785D01*
X307325890Y-104941785D02*
X307373509Y-104989404D01*
X307373509Y-104989404D02*
X307468747Y-105037023D01*
X308217319Y-109799404D02*
X307217319Y-109799404D01*
X308217319Y-109227976D02*
X307645890Y-109656547D01*
X307217319Y-109227976D02*
X307788747Y-109799404D01*
X174547319Y-145041785D02*
X173547319Y-145041785D01*
X173547319Y-145041785D02*
X173547319Y-144803690D01*
X173547319Y-144803690D02*
X173594938Y-144660833D01*
X173594938Y-144660833D02*
X173690176Y-144565595D01*
X173690176Y-144565595D02*
X173785414Y-144517976D01*
X173785414Y-144517976D02*
X173975890Y-144470357D01*
X173975890Y-144470357D02*
X174118747Y-144470357D01*
X174118747Y-144470357D02*
X174309223Y-144517976D01*
X174309223Y-144517976D02*
X174404461Y-144565595D01*
X174404461Y-144565595D02*
X174499700Y-144660833D01*
X174499700Y-144660833D02*
X174547319Y-144803690D01*
X174547319Y-144803690D02*
X174547319Y-145041785D01*
X173547319Y-144137023D02*
X173547319Y-143470357D01*
X173547319Y-143470357D02*
X174547319Y-143898928D01*
X173547319Y-143184642D02*
X173547319Y-142565595D01*
X173547319Y-142565595D02*
X173928271Y-142898928D01*
X173928271Y-142898928D02*
X173928271Y-142756071D01*
X173928271Y-142756071D02*
X173975890Y-142660833D01*
X173975890Y-142660833D02*
X174023509Y-142613214D01*
X174023509Y-142613214D02*
X174118747Y-142565595D01*
X174118747Y-142565595D02*
X174356842Y-142565595D01*
X174356842Y-142565595D02*
X174452080Y-142613214D01*
X174452080Y-142613214D02*
X174499700Y-142660833D01*
X174499700Y-142660833D02*
X174547319Y-142756071D01*
X174547319Y-142756071D02*
X174547319Y-143041785D01*
X174547319Y-143041785D02*
X174499700Y-143137023D01*
X174499700Y-143137023D02*
X174452080Y-143184642D01*
X174867319Y-147899404D02*
X173867319Y-147899404D01*
X174867319Y-147327976D02*
X174295890Y-147756547D01*
X173867319Y-147327976D02*
X174438747Y-147899404D01*
X48341069Y-44553094D02*
X47341069Y-44553094D01*
X47341069Y-44553094D02*
X47341069Y-44314999D01*
X47341069Y-44314999D02*
X47388688Y-44172142D01*
X47388688Y-44172142D02*
X47483926Y-44076904D01*
X47483926Y-44076904D02*
X47579164Y-44029285D01*
X47579164Y-44029285D02*
X47769640Y-43981666D01*
X47769640Y-43981666D02*
X47912497Y-43981666D01*
X47912497Y-43981666D02*
X48102973Y-44029285D01*
X48102973Y-44029285D02*
X48198211Y-44076904D01*
X48198211Y-44076904D02*
X48293450Y-44172142D01*
X48293450Y-44172142D02*
X48341069Y-44314999D01*
X48341069Y-44314999D02*
X48341069Y-44553094D01*
X48341069Y-43029285D02*
X48341069Y-43600713D01*
X48341069Y-43314999D02*
X47341069Y-43314999D01*
X47341069Y-43314999D02*
X47483926Y-43410237D01*
X47483926Y-43410237D02*
X47579164Y-43505475D01*
X47579164Y-43505475D02*
X47626783Y-43600713D01*
X48661069Y-47886904D02*
X47661069Y-47886904D01*
X48661069Y-47315476D02*
X48089640Y-47744047D01*
X47661069Y-47315476D02*
X48232497Y-47886904D01*
X50722319Y-87891785D02*
X49722319Y-87891785D01*
X49722319Y-87891785D02*
X49722319Y-87653690D01*
X49722319Y-87653690D02*
X49769938Y-87510833D01*
X49769938Y-87510833D02*
X49865176Y-87415595D01*
X49865176Y-87415595D02*
X49960414Y-87367976D01*
X49960414Y-87367976D02*
X50150890Y-87320357D01*
X50150890Y-87320357D02*
X50293747Y-87320357D01*
X50293747Y-87320357D02*
X50484223Y-87367976D01*
X50484223Y-87367976D02*
X50579461Y-87415595D01*
X50579461Y-87415595D02*
X50674700Y-87510833D01*
X50674700Y-87510833D02*
X50722319Y-87653690D01*
X50722319Y-87653690D02*
X50722319Y-87891785D01*
X49722319Y-86987023D02*
X49722319Y-86367976D01*
X49722319Y-86367976D02*
X50103271Y-86701309D01*
X50103271Y-86701309D02*
X50103271Y-86558452D01*
X50103271Y-86558452D02*
X50150890Y-86463214D01*
X50150890Y-86463214D02*
X50198509Y-86415595D01*
X50198509Y-86415595D02*
X50293747Y-86367976D01*
X50293747Y-86367976D02*
X50531842Y-86367976D01*
X50531842Y-86367976D02*
X50627080Y-86415595D01*
X50627080Y-86415595D02*
X50674700Y-86463214D01*
X50674700Y-86463214D02*
X50722319Y-86558452D01*
X50722319Y-86558452D02*
X50722319Y-86844166D01*
X50722319Y-86844166D02*
X50674700Y-86939404D01*
X50674700Y-86939404D02*
X50627080Y-86987023D01*
X49722319Y-85748928D02*
X49722319Y-85653690D01*
X49722319Y-85653690D02*
X49769938Y-85558452D01*
X49769938Y-85558452D02*
X49817557Y-85510833D01*
X49817557Y-85510833D02*
X49912795Y-85463214D01*
X49912795Y-85463214D02*
X50103271Y-85415595D01*
X50103271Y-85415595D02*
X50341366Y-85415595D01*
X50341366Y-85415595D02*
X50531842Y-85463214D01*
X50531842Y-85463214D02*
X50627080Y-85510833D01*
X50627080Y-85510833D02*
X50674700Y-85558452D01*
X50674700Y-85558452D02*
X50722319Y-85653690D01*
X50722319Y-85653690D02*
X50722319Y-85748928D01*
X50722319Y-85748928D02*
X50674700Y-85844166D01*
X50674700Y-85844166D02*
X50627080Y-85891785D01*
X50627080Y-85891785D02*
X50531842Y-85939404D01*
X50531842Y-85939404D02*
X50341366Y-85987023D01*
X50341366Y-85987023D02*
X50103271Y-85987023D01*
X50103271Y-85987023D02*
X49912795Y-85939404D01*
X49912795Y-85939404D02*
X49817557Y-85891785D01*
X49817557Y-85891785D02*
X49769938Y-85844166D01*
X49769938Y-85844166D02*
X49722319Y-85748928D01*
X51042319Y-90749404D02*
X50042319Y-90749404D01*
X51042319Y-90177976D02*
X50470890Y-90606547D01*
X50042319Y-90177976D02*
X50613747Y-90749404D01*
X238841069Y-145041785D02*
X237841069Y-145041785D01*
X237841069Y-145041785D02*
X237841069Y-144803690D01*
X237841069Y-144803690D02*
X237888688Y-144660833D01*
X237888688Y-144660833D02*
X237983926Y-144565595D01*
X237983926Y-144565595D02*
X238079164Y-144517976D01*
X238079164Y-144517976D02*
X238269640Y-144470357D01*
X238269640Y-144470357D02*
X238412497Y-144470357D01*
X238412497Y-144470357D02*
X238602973Y-144517976D01*
X238602973Y-144517976D02*
X238698211Y-144565595D01*
X238698211Y-144565595D02*
X238793450Y-144660833D01*
X238793450Y-144660833D02*
X238841069Y-144803690D01*
X238841069Y-144803690D02*
X238841069Y-145041785D01*
X237841069Y-144137023D02*
X237841069Y-143470357D01*
X237841069Y-143470357D02*
X238841069Y-143898928D01*
X238174402Y-142660833D02*
X238841069Y-142660833D01*
X237793450Y-142898928D02*
X238507735Y-143137023D01*
X238507735Y-143137023D02*
X238507735Y-142517976D01*
X239161069Y-147899404D02*
X238161069Y-147899404D01*
X239161069Y-147327976D02*
X238589640Y-147756547D01*
X238161069Y-147327976D02*
X238732497Y-147899404D01*
X308214819Y-87891785D02*
X307214819Y-87891785D01*
X307214819Y-87891785D02*
X307214819Y-87653690D01*
X307214819Y-87653690D02*
X307262438Y-87510833D01*
X307262438Y-87510833D02*
X307357676Y-87415595D01*
X307357676Y-87415595D02*
X307452914Y-87367976D01*
X307452914Y-87367976D02*
X307643390Y-87320357D01*
X307643390Y-87320357D02*
X307786247Y-87320357D01*
X307786247Y-87320357D02*
X307976723Y-87367976D01*
X307976723Y-87367976D02*
X308071961Y-87415595D01*
X308071961Y-87415595D02*
X308167200Y-87510833D01*
X308167200Y-87510833D02*
X308214819Y-87653690D01*
X308214819Y-87653690D02*
X308214819Y-87891785D01*
X307548152Y-86463214D02*
X308214819Y-86463214D01*
X307167200Y-86701309D02*
X307881485Y-86939404D01*
X307881485Y-86939404D02*
X307881485Y-86320357D01*
X307214819Y-86034642D02*
X307214819Y-85415595D01*
X307214819Y-85415595D02*
X307595771Y-85748928D01*
X307595771Y-85748928D02*
X307595771Y-85606071D01*
X307595771Y-85606071D02*
X307643390Y-85510833D01*
X307643390Y-85510833D02*
X307691009Y-85463214D01*
X307691009Y-85463214D02*
X307786247Y-85415595D01*
X307786247Y-85415595D02*
X308024342Y-85415595D01*
X308024342Y-85415595D02*
X308119580Y-85463214D01*
X308119580Y-85463214D02*
X308167200Y-85510833D01*
X308167200Y-85510833D02*
X308214819Y-85606071D01*
X308214819Y-85606071D02*
X308214819Y-85891785D01*
X308214819Y-85891785D02*
X308167200Y-85987023D01*
X308167200Y-85987023D02*
X308119580Y-86034642D01*
X308534819Y-90749404D02*
X307534819Y-90749404D01*
X308534819Y-90177976D02*
X307963390Y-90606547D01*
X307534819Y-90177976D02*
X308106247Y-90749404D01*
X284084819Y-87891785D02*
X283084819Y-87891785D01*
X283084819Y-87891785D02*
X283084819Y-87653690D01*
X283084819Y-87653690D02*
X283132438Y-87510833D01*
X283132438Y-87510833D02*
X283227676Y-87415595D01*
X283227676Y-87415595D02*
X283322914Y-87367976D01*
X283322914Y-87367976D02*
X283513390Y-87320357D01*
X283513390Y-87320357D02*
X283656247Y-87320357D01*
X283656247Y-87320357D02*
X283846723Y-87367976D01*
X283846723Y-87367976D02*
X283941961Y-87415595D01*
X283941961Y-87415595D02*
X284037200Y-87510833D01*
X284037200Y-87510833D02*
X284084819Y-87653690D01*
X284084819Y-87653690D02*
X284084819Y-87891785D01*
X283418152Y-86463214D02*
X284084819Y-86463214D01*
X283037200Y-86701309D02*
X283751485Y-86939404D01*
X283751485Y-86939404D02*
X283751485Y-86320357D01*
X283180057Y-85987023D02*
X283132438Y-85939404D01*
X283132438Y-85939404D02*
X283084819Y-85844166D01*
X283084819Y-85844166D02*
X283084819Y-85606071D01*
X283084819Y-85606071D02*
X283132438Y-85510833D01*
X283132438Y-85510833D02*
X283180057Y-85463214D01*
X283180057Y-85463214D02*
X283275295Y-85415595D01*
X283275295Y-85415595D02*
X283370533Y-85415595D01*
X283370533Y-85415595D02*
X283513390Y-85463214D01*
X283513390Y-85463214D02*
X284084819Y-86034642D01*
X284084819Y-86034642D02*
X284084819Y-85415595D01*
X284404819Y-90749404D02*
X283404819Y-90749404D01*
X284404819Y-90177976D02*
X283833390Y-90606547D01*
X283404819Y-90177976D02*
X283976247Y-90749404D01*
X79297319Y-106941785D02*
X78297319Y-106941785D01*
X78297319Y-106941785D02*
X78297319Y-106703690D01*
X78297319Y-106703690D02*
X78344938Y-106560833D01*
X78344938Y-106560833D02*
X78440176Y-106465595D01*
X78440176Y-106465595D02*
X78535414Y-106417976D01*
X78535414Y-106417976D02*
X78725890Y-106370357D01*
X78725890Y-106370357D02*
X78868747Y-106370357D01*
X78868747Y-106370357D02*
X79059223Y-106417976D01*
X79059223Y-106417976D02*
X79154461Y-106465595D01*
X79154461Y-106465595D02*
X79249700Y-106560833D01*
X79249700Y-106560833D02*
X79297319Y-106703690D01*
X79297319Y-106703690D02*
X79297319Y-106941785D01*
X78630652Y-105513214D02*
X79297319Y-105513214D01*
X78249700Y-105751309D02*
X78963985Y-105989404D01*
X78963985Y-105989404D02*
X78963985Y-105370357D01*
X78297319Y-104513214D02*
X78297319Y-104989404D01*
X78297319Y-104989404D02*
X78773509Y-105037023D01*
X78773509Y-105037023D02*
X78725890Y-104989404D01*
X78725890Y-104989404D02*
X78678271Y-104894166D01*
X78678271Y-104894166D02*
X78678271Y-104656071D01*
X78678271Y-104656071D02*
X78725890Y-104560833D01*
X78725890Y-104560833D02*
X78773509Y-104513214D01*
X78773509Y-104513214D02*
X78868747Y-104465595D01*
X78868747Y-104465595D02*
X79106842Y-104465595D01*
X79106842Y-104465595D02*
X79202080Y-104513214D01*
X79202080Y-104513214D02*
X79249700Y-104560833D01*
X79249700Y-104560833D02*
X79297319Y-104656071D01*
X79297319Y-104656071D02*
X79297319Y-104894166D01*
X79297319Y-104894166D02*
X79249700Y-104989404D01*
X79249700Y-104989404D02*
X79202080Y-105037023D01*
X79617319Y-109799404D02*
X78617319Y-109799404D01*
X79617319Y-109227976D02*
X79045890Y-109656547D01*
X78617319Y-109227976D02*
X79188747Y-109799404D01*
X245984819Y-87891785D02*
X244984819Y-87891785D01*
X244984819Y-87891785D02*
X244984819Y-87653690D01*
X244984819Y-87653690D02*
X245032438Y-87510833D01*
X245032438Y-87510833D02*
X245127676Y-87415595D01*
X245127676Y-87415595D02*
X245222914Y-87367976D01*
X245222914Y-87367976D02*
X245413390Y-87320357D01*
X245413390Y-87320357D02*
X245556247Y-87320357D01*
X245556247Y-87320357D02*
X245746723Y-87367976D01*
X245746723Y-87367976D02*
X245841961Y-87415595D01*
X245841961Y-87415595D02*
X245937200Y-87510833D01*
X245937200Y-87510833D02*
X245984819Y-87653690D01*
X245984819Y-87653690D02*
X245984819Y-87891785D01*
X245318152Y-86463214D02*
X245984819Y-86463214D01*
X244937200Y-86701309D02*
X245651485Y-86939404D01*
X245651485Y-86939404D02*
X245651485Y-86320357D01*
X244984819Y-85748928D02*
X244984819Y-85653690D01*
X244984819Y-85653690D02*
X245032438Y-85558452D01*
X245032438Y-85558452D02*
X245080057Y-85510833D01*
X245080057Y-85510833D02*
X245175295Y-85463214D01*
X245175295Y-85463214D02*
X245365771Y-85415595D01*
X245365771Y-85415595D02*
X245603866Y-85415595D01*
X245603866Y-85415595D02*
X245794342Y-85463214D01*
X245794342Y-85463214D02*
X245889580Y-85510833D01*
X245889580Y-85510833D02*
X245937200Y-85558452D01*
X245937200Y-85558452D02*
X245984819Y-85653690D01*
X245984819Y-85653690D02*
X245984819Y-85748928D01*
X245984819Y-85748928D02*
X245937200Y-85844166D01*
X245937200Y-85844166D02*
X245889580Y-85891785D01*
X245889580Y-85891785D02*
X245794342Y-85939404D01*
X245794342Y-85939404D02*
X245603866Y-85987023D01*
X245603866Y-85987023D02*
X245365771Y-85987023D01*
X245365771Y-85987023D02*
X245175295Y-85939404D01*
X245175295Y-85939404D02*
X245080057Y-85891785D01*
X245080057Y-85891785D02*
X245032438Y-85844166D01*
X245032438Y-85844166D02*
X244984819Y-85748928D01*
X246304819Y-90749404D02*
X245304819Y-90749404D01*
X246304819Y-90177976D02*
X245733390Y-90606547D01*
X245304819Y-90177976D02*
X245876247Y-90749404D01*
%TO.C,D14*%
D11*
X294155000Y-41695000D02*
X296395000Y-41695000D01*
X296395000Y-45935000D01*
X294155000Y-45935000D01*
X294155000Y-41695000D01*
X295275000Y-46585000D02*
X295275000Y-45935000D01*
X295275000Y-41045000D02*
X295275000Y-41695000D01*
X294155000Y-45335000D02*
X296395000Y-45335000D01*
X294155000Y-45215000D02*
X296395000Y-45215000D01*
X294155000Y-45095000D02*
X296395000Y-45095000D01*
%TO.C,A1*%
X319180000Y-32260000D02*
X319180000Y-30660000D01*
X319500000Y-30590000D02*
X319500000Y-80590000D01*
X319840000Y-30043000D02*
X319840000Y-81137000D01*
X320110000Y-29980000D02*
X322600000Y-29980000D01*
X320110000Y-81200000D02*
X323947939Y-81200000D01*
X322600000Y-29980000D02*
X322600000Y-30893520D01*
X322600000Y-29980000D02*
X323947940Y-29980000D01*
X322600000Y-33286480D02*
X322600000Y-77893520D01*
X322600000Y-80286480D02*
X322600000Y-81200000D01*
X324872061Y-29980000D02*
X325875000Y-29980000D01*
X325875000Y-29980000D02*
X334345000Y-29980000D01*
X326000000Y-28680000D02*
X326000000Y-29500000D01*
X326000000Y-28680000D02*
X334220000Y-28680000D01*
X326000000Y-29500000D02*
X326210000Y-29500000D01*
X326210000Y-29500000D02*
X326210000Y-30896000D01*
X326210000Y-33284000D02*
X326210000Y-34500000D01*
X326510000Y-81200000D02*
X324872061Y-81200000D01*
X333710000Y-81200000D02*
X326510000Y-81200000D01*
X334010000Y-29500000D02*
X334010000Y-30896000D01*
X334010000Y-33284000D02*
X334010000Y-34500000D01*
X334010000Y-34500000D02*
X326210000Y-34500000D01*
X334220000Y-28680000D02*
X334220000Y-29500000D01*
X334220000Y-29500000D02*
X334010000Y-29500000D01*
X334345000Y-29980000D02*
X335347939Y-29980000D01*
X335347939Y-81200000D02*
X333710000Y-81200000D01*
X336272061Y-29980000D02*
X337620000Y-29980000D01*
X336272061Y-81200000D02*
X340110000Y-81200000D01*
X337620000Y-29980000D02*
X337620000Y-30893520D01*
X337620000Y-33286480D02*
X337620000Y-77893520D01*
X337620000Y-80286480D02*
X337620000Y-81200000D01*
X340110000Y-29980000D02*
X337620000Y-29980000D01*
X340380000Y-81137000D02*
X340380000Y-30043000D01*
X340720000Y-30590000D02*
X340720000Y-80590000D01*
X319500000Y-30590000D02*
G75*
G02*
X320110000Y-29980000I610000J0D01*
G01*
X320110000Y-81200000D02*
G75*
G02*
X319500000Y-80590000I-99J609901D01*
G01*
X340110000Y-29980000D02*
G75*
G02*
X340720000Y-30590000I0J-610000D01*
G01*
X340720000Y-80590000D02*
G75*
G02*
X340110000Y-81200000I-610000J0D01*
G01*
%TO.C,D51*%
X194142500Y-107007500D02*
X196382500Y-107007500D01*
X194142500Y-107127500D02*
X196382500Y-107127500D01*
X194142500Y-107247500D02*
X196382500Y-107247500D01*
X195262500Y-102957500D02*
X195262500Y-103607500D01*
X195262500Y-108497500D02*
X195262500Y-107847500D01*
X194142500Y-103607500D02*
X196382500Y-103607500D01*
X196382500Y-107847500D01*
X194142500Y-107847500D01*
X194142500Y-103607500D01*
%TO.C,D47*%
X117942500Y-107007500D02*
X120182500Y-107007500D01*
X117942500Y-107127500D02*
X120182500Y-107127500D01*
X117942500Y-107247500D02*
X120182500Y-107247500D01*
X119062500Y-102957500D02*
X119062500Y-103607500D01*
X119062500Y-108497500D02*
X119062500Y-107847500D01*
X117942500Y-103607500D02*
X120182500Y-103607500D01*
X120182500Y-107847500D01*
X117942500Y-107847500D01*
X117942500Y-103607500D01*
%TO.C,D65*%
X222717500Y-126057500D02*
X224957500Y-126057500D01*
X222717500Y-126177500D02*
X224957500Y-126177500D01*
X222717500Y-126297500D02*
X224957500Y-126297500D01*
X223837500Y-122007500D02*
X223837500Y-122657500D01*
X223837500Y-127547500D02*
X223837500Y-126897500D01*
X222717500Y-122657500D02*
X224957500Y-122657500D01*
X224957500Y-126897500D01*
X222717500Y-126897500D01*
X222717500Y-122657500D01*
%TO.C,D68*%
X287011250Y-126057500D02*
X289251250Y-126057500D01*
X287011250Y-126177500D02*
X289251250Y-126177500D01*
X287011250Y-126297500D02*
X289251250Y-126297500D01*
X288131250Y-122007500D02*
X288131250Y-122657500D01*
X288131250Y-127547500D02*
X288131250Y-126897500D01*
X287011250Y-122657500D02*
X289251250Y-122657500D01*
X289251250Y-126897500D01*
X287011250Y-126897500D01*
X287011250Y-122657500D01*
%TO.C,D36*%
X170330000Y-87957500D02*
X172570000Y-87957500D01*
X170330000Y-88077500D02*
X172570000Y-88077500D01*
X170330000Y-88197500D02*
X172570000Y-88197500D01*
X171450000Y-83907500D02*
X171450000Y-84557500D01*
X171450000Y-89447500D02*
X171450000Y-88797500D01*
X170330000Y-84557500D02*
X172570000Y-84557500D01*
X172570000Y-88797500D01*
X170330000Y-88797500D01*
X170330000Y-84557500D01*
%TO.C,D28*%
X275105000Y-68907500D02*
X277345000Y-68907500D01*
X275105000Y-69027500D02*
X277345000Y-69027500D01*
X275105000Y-69147500D02*
X277345000Y-69147500D01*
X276225000Y-64857500D02*
X276225000Y-65507500D01*
X276225000Y-70397500D02*
X276225000Y-69747500D01*
X275105000Y-65507500D02*
X277345000Y-65507500D01*
X277345000Y-69747500D01*
X275105000Y-69747500D01*
X275105000Y-65507500D01*
%TO.C,D48*%
X136992500Y-107007500D02*
X139232500Y-107007500D01*
X136992500Y-107127500D02*
X139232500Y-107127500D01*
X136992500Y-107247500D02*
X139232500Y-107247500D01*
X138112500Y-102957500D02*
X138112500Y-103607500D01*
X138112500Y-108497500D02*
X138112500Y-107847500D01*
X136992500Y-103607500D02*
X139232500Y-103607500D01*
X139232500Y-107847500D01*
X136992500Y-107847500D01*
X136992500Y-103607500D01*
%TO.C,D34*%
X132230000Y-87957500D02*
X134470000Y-87957500D01*
X132230000Y-88077500D02*
X134470000Y-88077500D01*
X132230000Y-88197500D02*
X134470000Y-88197500D01*
X133350000Y-83907500D02*
X133350000Y-84557500D01*
X133350000Y-89447500D02*
X133350000Y-88797500D01*
X132230000Y-84557500D02*
X134470000Y-84557500D01*
X134470000Y-88797500D01*
X132230000Y-88797500D01*
X132230000Y-84557500D01*
%TO.C,D21*%
X141755000Y-68907500D02*
X143995000Y-68907500D01*
X141755000Y-69027500D02*
X143995000Y-69027500D01*
X141755000Y-69147500D02*
X143995000Y-69147500D01*
X142875000Y-64857500D02*
X142875000Y-65507500D01*
X142875000Y-70397500D02*
X142875000Y-69747500D01*
X141755000Y-65507500D02*
X143995000Y-65507500D01*
X143995000Y-69747500D01*
X141755000Y-69747500D01*
X141755000Y-65507500D01*
%TO.C,D4*%
X108417500Y-45095000D02*
X110657500Y-45095000D01*
X108417500Y-45215000D02*
X110657500Y-45215000D01*
X108417500Y-45335000D02*
X110657500Y-45335000D01*
X109537500Y-41045000D02*
X109537500Y-41695000D01*
X109537500Y-46585000D02*
X109537500Y-45935000D01*
X108417500Y-41695000D02*
X110657500Y-41695000D01*
X110657500Y-45935000D01*
X108417500Y-45935000D01*
X108417500Y-41695000D01*
%TO.C,D64*%
X203667500Y-126057500D02*
X205907500Y-126057500D01*
X203667500Y-126177500D02*
X205907500Y-126177500D01*
X203667500Y-126297500D02*
X205907500Y-126297500D01*
X204787500Y-122007500D02*
X204787500Y-122657500D01*
X204787500Y-127547500D02*
X204787500Y-126897500D01*
X203667500Y-122657500D02*
X205907500Y-122657500D01*
X205907500Y-126897500D01*
X203667500Y-126897500D01*
X203667500Y-122657500D01*
%TO.C,D29*%
X303680000Y-68907500D02*
X305920000Y-68907500D01*
X303680000Y-69027500D02*
X305920000Y-69027500D01*
X303680000Y-69147500D02*
X305920000Y-69147500D01*
X304800000Y-64857500D02*
X304800000Y-65507500D01*
X304800000Y-70397500D02*
X304800000Y-69747500D01*
X303680000Y-65507500D02*
X305920000Y-65507500D01*
X305920000Y-69747500D01*
X303680000Y-69747500D01*
X303680000Y-65507500D01*
%TO.C,D75*%
X258436250Y-145107500D02*
X260676250Y-145107500D01*
X258436250Y-145227500D02*
X260676250Y-145227500D01*
X258436250Y-145347500D02*
X260676250Y-145347500D01*
X259556250Y-141057500D02*
X259556250Y-141707500D01*
X259556250Y-146597500D02*
X259556250Y-145947500D01*
X258436250Y-141707500D02*
X260676250Y-141707500D01*
X260676250Y-145947500D01*
X258436250Y-145947500D01*
X258436250Y-141707500D01*
%TO.C,D8*%
X189380000Y-45095000D02*
X191620000Y-45095000D01*
X189380000Y-45215000D02*
X191620000Y-45215000D01*
X189380000Y-45335000D02*
X191620000Y-45335000D01*
X190500000Y-41045000D02*
X190500000Y-41695000D01*
X190500000Y-46585000D02*
X190500000Y-45935000D01*
X189380000Y-41695000D02*
X191620000Y-41695000D01*
X191620000Y-45935000D01*
X189380000Y-45935000D01*
X189380000Y-41695000D01*
%TO.C,D6*%
X151280000Y-45095000D02*
X153520000Y-45095000D01*
X151280000Y-45215000D02*
X153520000Y-45215000D01*
X151280000Y-45335000D02*
X153520000Y-45335000D01*
X152400000Y-41045000D02*
X152400000Y-41695000D01*
X152400000Y-46585000D02*
X152400000Y-45935000D01*
X151280000Y-41695000D02*
X153520000Y-41695000D01*
X153520000Y-45935000D01*
X151280000Y-45935000D01*
X151280000Y-41695000D01*
%TO.C,D70*%
X51267500Y-145107500D02*
X53507500Y-145107500D01*
X51267500Y-145227500D02*
X53507500Y-145227500D01*
X51267500Y-145347500D02*
X53507500Y-145347500D01*
X52387500Y-141057500D02*
X52387500Y-141707500D01*
X52387500Y-146597500D02*
X52387500Y-145947500D01*
X51267500Y-141707500D02*
X53507500Y-141707500D01*
X53507500Y-145947500D01*
X51267500Y-145947500D01*
X51267500Y-141707500D01*
%TO.C,D61*%
X146517500Y-126057500D02*
X148757500Y-126057500D01*
X146517500Y-126177500D02*
X148757500Y-126177500D01*
X146517500Y-126297500D02*
X148757500Y-126297500D01*
X147637500Y-122007500D02*
X147637500Y-122657500D01*
X147637500Y-127547500D02*
X147637500Y-126897500D01*
X146517500Y-122657500D02*
X148757500Y-122657500D01*
X148757500Y-126897500D01*
X146517500Y-126897500D01*
X146517500Y-122657500D01*
%TO.C,D78*%
X320348750Y-148679375D02*
X322588750Y-148679375D01*
X320348750Y-148799375D02*
X322588750Y-148799375D01*
X320348750Y-148919375D02*
X322588750Y-148919375D01*
X321468750Y-144629375D02*
X321468750Y-145279375D01*
X321468750Y-150169375D02*
X321468750Y-149519375D01*
X320348750Y-145279375D02*
X322588750Y-145279375D01*
X322588750Y-149519375D01*
X320348750Y-149519375D01*
X320348750Y-145279375D01*
%TO.C,D7*%
X170330000Y-45095000D02*
X172570000Y-45095000D01*
X170330000Y-45215000D02*
X172570000Y-45215000D01*
X170330000Y-45335000D02*
X172570000Y-45335000D01*
X171450000Y-41045000D02*
X171450000Y-41695000D01*
X171450000Y-46585000D02*
X171450000Y-45935000D01*
X170330000Y-41695000D02*
X172570000Y-41695000D01*
X172570000Y-45935000D01*
X170330000Y-45935000D01*
X170330000Y-41695000D01*
%TO.C,D50*%
X175092500Y-107007500D02*
X177332500Y-107007500D01*
X175092500Y-107127500D02*
X177332500Y-107127500D01*
X175092500Y-107247500D02*
X177332500Y-107247500D01*
X176212500Y-102957500D02*
X176212500Y-103607500D01*
X176212500Y-108497500D02*
X176212500Y-107847500D01*
X175092500Y-103607500D02*
X177332500Y-103607500D01*
X177332500Y-107847500D01*
X175092500Y-107847500D01*
X175092500Y-103607500D01*
%TO.C,D39*%
X227480000Y-87957500D02*
X229720000Y-87957500D01*
X227480000Y-88077500D02*
X229720000Y-88077500D01*
X227480000Y-88197500D02*
X229720000Y-88197500D01*
X228600000Y-83907500D02*
X228600000Y-84557500D01*
X228600000Y-89447500D02*
X228600000Y-88797500D01*
X227480000Y-84557500D02*
X229720000Y-84557500D01*
X229720000Y-88797500D01*
X227480000Y-88797500D01*
X227480000Y-84557500D01*
%TO.C,D19*%
X103655000Y-68907500D02*
X105895000Y-68907500D01*
X103655000Y-69027500D02*
X105895000Y-69027500D01*
X103655000Y-69147500D02*
X105895000Y-69147500D01*
X104775000Y-64857500D02*
X104775000Y-65507500D01*
X104775000Y-70397500D02*
X104775000Y-69747500D01*
X103655000Y-65507500D02*
X105895000Y-65507500D01*
X105895000Y-69747500D01*
X103655000Y-69747500D01*
X103655000Y-65507500D01*
%TO.C,D71*%
X75080000Y-145107500D02*
X77320000Y-145107500D01*
X75080000Y-145227500D02*
X77320000Y-145227500D01*
X75080000Y-145347500D02*
X77320000Y-145347500D01*
X76200000Y-141057500D02*
X76200000Y-141707500D01*
X76200000Y-146597500D02*
X76200000Y-145947500D01*
X75080000Y-141707500D02*
X77320000Y-141707500D01*
X77320000Y-145947500D01*
X75080000Y-145947500D01*
X75080000Y-141707500D01*
%TO.C,D62*%
X165567500Y-126057500D02*
X167807500Y-126057500D01*
X165567500Y-126177500D02*
X167807500Y-126177500D01*
X165567500Y-126297500D02*
X167807500Y-126297500D01*
X166687500Y-122007500D02*
X166687500Y-122657500D01*
X166687500Y-127547500D02*
X166687500Y-126897500D01*
X165567500Y-122657500D02*
X167807500Y-122657500D01*
X167807500Y-126897500D01*
X165567500Y-126897500D01*
X165567500Y-122657500D01*
%TO.C,D66*%
X241767500Y-126057500D02*
X244007500Y-126057500D01*
X241767500Y-126177500D02*
X244007500Y-126177500D01*
X241767500Y-126297500D02*
X244007500Y-126297500D01*
X242887500Y-122007500D02*
X242887500Y-122657500D01*
X242887500Y-127547500D02*
X242887500Y-126897500D01*
X241767500Y-122657500D02*
X244007500Y-122657500D01*
X244007500Y-126897500D01*
X241767500Y-126897500D01*
X241767500Y-122657500D01*
%TO.C,D38*%
X208430000Y-87957500D02*
X210670000Y-87957500D01*
X208430000Y-88077500D02*
X210670000Y-88077500D01*
X208430000Y-88197500D02*
X210670000Y-88197500D01*
X209550000Y-83907500D02*
X209550000Y-84557500D01*
X209550000Y-89447500D02*
X209550000Y-88797500D01*
X208430000Y-84557500D02*
X210670000Y-84557500D01*
X210670000Y-88797500D01*
X208430000Y-88797500D01*
X208430000Y-84557500D01*
%TO.C,D5*%
X129848750Y-45095000D02*
X132088750Y-45095000D01*
X129848750Y-45215000D02*
X132088750Y-45215000D01*
X129848750Y-45335000D02*
X132088750Y-45335000D01*
X130968750Y-41045000D02*
X130968750Y-41695000D01*
X130968750Y-46585000D02*
X130968750Y-45935000D01*
X129848750Y-41695000D02*
X132088750Y-41695000D01*
X132088750Y-45935000D01*
X129848750Y-45935000D01*
X129848750Y-41695000D01*
%TO.C,D27*%
X256055000Y-68907500D02*
X258295000Y-68907500D01*
X256055000Y-69027500D02*
X258295000Y-69027500D01*
X256055000Y-69147500D02*
X258295000Y-69147500D01*
X257175000Y-64857500D02*
X257175000Y-65507500D01*
X257175000Y-70397500D02*
X257175000Y-69747500D01*
X256055000Y-65507500D02*
X258295000Y-65507500D01*
X258295000Y-69747500D01*
X256055000Y-69747500D01*
X256055000Y-65507500D01*
%TO.C,D24*%
X198905000Y-68907500D02*
X201145000Y-68907500D01*
X198905000Y-69027500D02*
X201145000Y-69027500D01*
X198905000Y-69147500D02*
X201145000Y-69147500D01*
X200025000Y-64857500D02*
X200025000Y-65507500D01*
X200025000Y-70397500D02*
X200025000Y-69747500D01*
X198905000Y-65507500D02*
X201145000Y-65507500D01*
X201145000Y-69747500D01*
X198905000Y-69747500D01*
X198905000Y-65507500D01*
%TO.C,D17*%
X65555000Y-68907500D02*
X67795000Y-68907500D01*
X65555000Y-69027500D02*
X67795000Y-69027500D01*
X65555000Y-69147500D02*
X67795000Y-69147500D01*
X66675000Y-64857500D02*
X66675000Y-65507500D01*
X66675000Y-70397500D02*
X66675000Y-69747500D01*
X65555000Y-65507500D02*
X67795000Y-65507500D01*
X67795000Y-69747500D01*
X65555000Y-69747500D01*
X65555000Y-65507500D01*
%TO.C,D2*%
X70317500Y-45095000D02*
X72557500Y-45095000D01*
X70317500Y-45215000D02*
X72557500Y-45215000D01*
X70317500Y-45335000D02*
X72557500Y-45335000D01*
X71437500Y-41045000D02*
X71437500Y-41695000D01*
X71437500Y-46585000D02*
X71437500Y-45935000D01*
X70317500Y-41695000D02*
X72557500Y-41695000D01*
X72557500Y-45935000D01*
X70317500Y-45935000D01*
X70317500Y-41695000D01*
%TO.C,D35*%
X151280000Y-87957500D02*
X153520000Y-87957500D01*
X151280000Y-88077500D02*
X153520000Y-88077500D01*
X151280000Y-88197500D02*
X153520000Y-88197500D01*
X152400000Y-83907500D02*
X152400000Y-84557500D01*
X152400000Y-89447500D02*
X152400000Y-88797500D01*
X151280000Y-84557500D02*
X153520000Y-84557500D01*
X153520000Y-88797500D01*
X151280000Y-88797500D01*
X151280000Y-84557500D01*
%TO.C,D79*%
X339398750Y-148679375D02*
X341638750Y-148679375D01*
X339398750Y-148799375D02*
X341638750Y-148799375D01*
X339398750Y-148919375D02*
X341638750Y-148919375D01*
X340518750Y-144629375D02*
X340518750Y-145279375D01*
X340518750Y-150169375D02*
X340518750Y-149519375D01*
X339398750Y-145279375D02*
X341638750Y-145279375D01*
X341638750Y-149519375D01*
X339398750Y-149519375D01*
X339398750Y-145279375D01*
%TO.C,D58*%
X89367500Y-126057500D02*
X91607500Y-126057500D01*
X89367500Y-126177500D02*
X91607500Y-126177500D01*
X89367500Y-126297500D02*
X91607500Y-126297500D01*
X90487500Y-122007500D02*
X90487500Y-122657500D01*
X90487500Y-127547500D02*
X90487500Y-126897500D01*
X89367500Y-122657500D02*
X91607500Y-122657500D01*
X91607500Y-126897500D01*
X89367500Y-126897500D01*
X89367500Y-122657500D01*
%TO.C,D18*%
X84605000Y-68907500D02*
X86845000Y-68907500D01*
X84605000Y-69027500D02*
X86845000Y-69027500D01*
X84605000Y-69147500D02*
X86845000Y-69147500D01*
X85725000Y-64857500D02*
X85725000Y-65507500D01*
X85725000Y-70397500D02*
X85725000Y-69747500D01*
X84605000Y-65507500D02*
X86845000Y-65507500D01*
X86845000Y-69747500D01*
X84605000Y-69747500D01*
X84605000Y-65507500D01*
%TO.C,D72*%
X98892500Y-145107500D02*
X101132500Y-145107500D01*
X98892500Y-145227500D02*
X101132500Y-145227500D01*
X98892500Y-145347500D02*
X101132500Y-145347500D01*
X100012500Y-141057500D02*
X100012500Y-141707500D01*
X100012500Y-146597500D02*
X100012500Y-145947500D01*
X98892500Y-141707500D02*
X101132500Y-141707500D01*
X101132500Y-145947500D01*
X98892500Y-145947500D01*
X98892500Y-141707500D01*
%TO.C,D60*%
X127467500Y-126057500D02*
X129707500Y-126057500D01*
X127467500Y-126177500D02*
X129707500Y-126177500D01*
X127467500Y-126297500D02*
X129707500Y-126297500D01*
X128587500Y-122007500D02*
X128587500Y-122657500D01*
X128587500Y-127547500D02*
X128587500Y-126897500D01*
X127467500Y-122657500D02*
X129707500Y-122657500D01*
X129707500Y-126897500D01*
X127467500Y-126897500D01*
X127467500Y-122657500D01*
%TO.C,D10*%
X232242500Y-45095000D02*
X234482500Y-45095000D01*
X232242500Y-45215000D02*
X234482500Y-45215000D01*
X232242500Y-45335000D02*
X234482500Y-45335000D01*
X233362500Y-41045000D02*
X233362500Y-41695000D01*
X233362500Y-46585000D02*
X233362500Y-45935000D01*
X232242500Y-41695000D02*
X234482500Y-41695000D01*
X234482500Y-45935000D01*
X232242500Y-45935000D01*
X232242500Y-41695000D01*
%TO.C,D31*%
X75080000Y-87957500D02*
X77320000Y-87957500D01*
X75080000Y-88077500D02*
X77320000Y-88077500D01*
X75080000Y-88197500D02*
X77320000Y-88197500D01*
X76200000Y-83907500D02*
X76200000Y-84557500D01*
X76200000Y-89447500D02*
X76200000Y-88797500D01*
X75080000Y-84557500D02*
X77320000Y-84557500D01*
X77320000Y-88797500D01*
X75080000Y-88797500D01*
X75080000Y-84557500D01*
%TO.C,D32*%
X94130000Y-87957500D02*
X96370000Y-87957500D01*
X94130000Y-88077500D02*
X96370000Y-88077500D01*
X94130000Y-88197500D02*
X96370000Y-88197500D01*
X95250000Y-83907500D02*
X95250000Y-84557500D01*
X95250000Y-89447500D02*
X95250000Y-88797500D01*
X94130000Y-84557500D02*
X96370000Y-84557500D01*
X96370000Y-88797500D01*
X94130000Y-88797500D01*
X94130000Y-84557500D01*
%TO.C,D67*%
X260817500Y-126057500D02*
X263057500Y-126057500D01*
X260817500Y-126177500D02*
X263057500Y-126177500D01*
X260817500Y-126297500D02*
X263057500Y-126297500D01*
X261937500Y-122007500D02*
X261937500Y-122657500D01*
X261937500Y-127547500D02*
X261937500Y-126897500D01*
X260817500Y-122657500D02*
X263057500Y-122657500D01*
X263057500Y-126897500D01*
X260817500Y-126897500D01*
X260817500Y-122657500D01*
%TO.C,D76*%
X277486250Y-145107500D02*
X279726250Y-145107500D01*
X277486250Y-145227500D02*
X279726250Y-145227500D01*
X277486250Y-145347500D02*
X279726250Y-145347500D01*
X278606250Y-141057500D02*
X278606250Y-141707500D01*
X278606250Y-146597500D02*
X278606250Y-145947500D01*
X277486250Y-141707500D02*
X279726250Y-141707500D01*
X279726250Y-145947500D01*
X277486250Y-145947500D01*
X277486250Y-141707500D01*
%TO.C,D23*%
X179855000Y-68907500D02*
X182095000Y-68907500D01*
X179855000Y-69027500D02*
X182095000Y-69027500D01*
X179855000Y-69147500D02*
X182095000Y-69147500D01*
X180975000Y-64857500D02*
X180975000Y-65507500D01*
X180975000Y-70397500D02*
X180975000Y-69747500D01*
X179855000Y-65507500D02*
X182095000Y-65507500D01*
X182095000Y-69747500D01*
X179855000Y-69747500D01*
X179855000Y-65507500D01*
%TO.C,D41*%
X265580000Y-87957500D02*
X267820000Y-87957500D01*
X265580000Y-88077500D02*
X267820000Y-88077500D01*
X265580000Y-88197500D02*
X267820000Y-88197500D01*
X266700000Y-83907500D02*
X266700000Y-84557500D01*
X266700000Y-89447500D02*
X266700000Y-88797500D01*
X265580000Y-84557500D02*
X267820000Y-84557500D01*
X267820000Y-88797500D01*
X265580000Y-88797500D01*
X265580000Y-84557500D01*
%TO.C,D11*%
X251292500Y-45095000D02*
X253532500Y-45095000D01*
X251292500Y-45215000D02*
X253532500Y-45215000D01*
X251292500Y-45335000D02*
X253532500Y-45335000D01*
X252412500Y-41045000D02*
X252412500Y-41695000D01*
X252412500Y-46585000D02*
X252412500Y-45935000D01*
X251292500Y-41695000D02*
X253532500Y-41695000D01*
X253532500Y-45935000D01*
X251292500Y-45935000D01*
X251292500Y-41695000D01*
%TO.C,D53*%
X232242500Y-107007500D02*
X234482500Y-107007500D01*
X232242500Y-107127500D02*
X234482500Y-107127500D01*
X232242500Y-107247500D02*
X234482500Y-107247500D01*
X233362500Y-102957500D02*
X233362500Y-103607500D01*
X233362500Y-108497500D02*
X233362500Y-107847500D01*
X232242500Y-103607500D02*
X234482500Y-103607500D01*
X234482500Y-107847500D01*
X232242500Y-107847500D01*
X232242500Y-103607500D01*
%TO.C,D77*%
X301298750Y-148679375D02*
X303538750Y-148679375D01*
X301298750Y-148799375D02*
X303538750Y-148799375D01*
X301298750Y-148919375D02*
X303538750Y-148919375D01*
X302418750Y-144629375D02*
X302418750Y-145279375D01*
X302418750Y-150169375D02*
X302418750Y-149519375D01*
X301298750Y-145279375D02*
X303538750Y-145279375D01*
X303538750Y-149519375D01*
X301298750Y-149519375D01*
X301298750Y-145279375D01*
%TO.C,D44*%
X56030000Y-107007500D02*
X58270000Y-107007500D01*
X56030000Y-107127500D02*
X58270000Y-107127500D01*
X56030000Y-107247500D02*
X58270000Y-107247500D01*
X57150000Y-102957500D02*
X57150000Y-103607500D01*
X57150000Y-108497500D02*
X57150000Y-107847500D01*
X56030000Y-103607500D02*
X58270000Y-103607500D01*
X58270000Y-107847500D01*
X56030000Y-107847500D01*
X56030000Y-103607500D01*
%TO.C,D59*%
X108417500Y-126057500D02*
X110657500Y-126057500D01*
X108417500Y-126177500D02*
X110657500Y-126177500D01*
X108417500Y-126297500D02*
X110657500Y-126297500D01*
X109537500Y-122007500D02*
X109537500Y-122657500D01*
X109537500Y-127547500D02*
X109537500Y-126897500D01*
X108417500Y-122657500D02*
X110657500Y-122657500D01*
X110657500Y-126897500D01*
X108417500Y-126897500D01*
X108417500Y-122657500D01*
%TO.C,D55*%
X270342500Y-107007500D02*
X272582500Y-107007500D01*
X270342500Y-107127500D02*
X272582500Y-107127500D01*
X270342500Y-107247500D02*
X272582500Y-107247500D01*
X271462500Y-102957500D02*
X271462500Y-103607500D01*
X271462500Y-108497500D02*
X271462500Y-107847500D01*
X270342500Y-103607500D02*
X272582500Y-103607500D01*
X272582500Y-107847500D01*
X270342500Y-107847500D01*
X270342500Y-103607500D01*
%TO.C,D37*%
X189380000Y-87957500D02*
X191620000Y-87957500D01*
X189380000Y-88077500D02*
X191620000Y-88077500D01*
X189380000Y-88197500D02*
X191620000Y-88197500D01*
X190500000Y-83907500D02*
X190500000Y-84557500D01*
X190500000Y-89447500D02*
X190500000Y-88797500D01*
X189380000Y-84557500D02*
X191620000Y-84557500D01*
X191620000Y-88797500D01*
X189380000Y-88797500D01*
X189380000Y-84557500D01*
%TO.C,D54*%
X251292500Y-107007500D02*
X253532500Y-107007500D01*
X251292500Y-107127500D02*
X253532500Y-107127500D01*
X251292500Y-107247500D02*
X253532500Y-107247500D01*
X252412500Y-102957500D02*
X252412500Y-103607500D01*
X252412500Y-108497500D02*
X252412500Y-107847500D01*
X251292500Y-103607500D02*
X253532500Y-103607500D01*
X253532500Y-107847500D01*
X251292500Y-107847500D01*
X251292500Y-103607500D01*
%TO.C,D57*%
X66952000Y-126057500D02*
X69192000Y-126057500D01*
X66952000Y-126177500D02*
X69192000Y-126177500D01*
X66952000Y-126297500D02*
X69192000Y-126297500D01*
X68072000Y-122007500D02*
X68072000Y-122657500D01*
X68072000Y-127547500D02*
X68072000Y-126897500D01*
X66952000Y-122657500D02*
X69192000Y-122657500D01*
X69192000Y-126897500D01*
X66952000Y-126897500D01*
X66952000Y-122657500D01*
%TO.C,D22*%
X160805000Y-68907500D02*
X163045000Y-68907500D01*
X160805000Y-69027500D02*
X163045000Y-69027500D01*
X160805000Y-69147500D02*
X163045000Y-69147500D01*
X161925000Y-64857500D02*
X161925000Y-65507500D01*
X161925000Y-70397500D02*
X161925000Y-69747500D01*
X160805000Y-65507500D02*
X163045000Y-65507500D01*
X163045000Y-69747500D01*
X160805000Y-69747500D01*
X160805000Y-65507500D01*
%TO.C,D49*%
X156042500Y-107007500D02*
X158282500Y-107007500D01*
X156042500Y-107127500D02*
X158282500Y-107127500D01*
X156042500Y-107247500D02*
X158282500Y-107247500D01*
X157162500Y-102957500D02*
X157162500Y-103607500D01*
X157162500Y-108497500D02*
X157162500Y-107847500D01*
X156042500Y-103607500D02*
X158282500Y-103607500D01*
X158282500Y-107847500D01*
X156042500Y-107847500D01*
X156042500Y-103607500D01*
%TO.C,D13*%
X289392500Y-45095000D02*
X291632500Y-45095000D01*
X289392500Y-45215000D02*
X291632500Y-45215000D01*
X289392500Y-45335000D02*
X291632500Y-45335000D01*
X290512500Y-41045000D02*
X290512500Y-41695000D01*
X290512500Y-46585000D02*
X290512500Y-45935000D01*
X289392500Y-41695000D02*
X291632500Y-41695000D01*
X291632500Y-45935000D01*
X289392500Y-45935000D01*
X289392500Y-41695000D01*
%TO.C,D52*%
X213192500Y-107007500D02*
X215432500Y-107007500D01*
X213192500Y-107127500D02*
X215432500Y-107127500D01*
X213192500Y-107247500D02*
X215432500Y-107247500D01*
X214312500Y-102957500D02*
X214312500Y-103607500D01*
X214312500Y-108497500D02*
X214312500Y-107847500D01*
X213192500Y-103607500D02*
X215432500Y-103607500D01*
X215432500Y-107847500D01*
X213192500Y-107847500D01*
X213192500Y-103607500D01*
%TO.C,D46*%
X98892500Y-107007500D02*
X101132500Y-107007500D01*
X98892500Y-107127500D02*
X101132500Y-107127500D01*
X98892500Y-107247500D02*
X101132500Y-107247500D01*
X100012500Y-102957500D02*
X100012500Y-103607500D01*
X100012500Y-108497500D02*
X100012500Y-107847500D01*
X98892500Y-103607500D02*
X101132500Y-103607500D01*
X101132500Y-107847500D01*
X98892500Y-107847500D01*
X98892500Y-103607500D01*
%TO.C,D25*%
X217955000Y-68907500D02*
X220195000Y-68907500D01*
X217955000Y-69027500D02*
X220195000Y-69027500D01*
X217955000Y-69147500D02*
X220195000Y-69147500D01*
X219075000Y-64857500D02*
X219075000Y-65507500D01*
X219075000Y-70397500D02*
X219075000Y-69747500D01*
X217955000Y-65507500D02*
X220195000Y-65507500D01*
X220195000Y-69747500D01*
X217955000Y-69747500D01*
X217955000Y-65507500D01*
%TO.C,D63*%
X184617500Y-126057500D02*
X186857500Y-126057500D01*
X184617500Y-126177500D02*
X186857500Y-126177500D01*
X184617500Y-126297500D02*
X186857500Y-126297500D01*
X185737500Y-122007500D02*
X185737500Y-122657500D01*
X185737500Y-127547500D02*
X185737500Y-126897500D01*
X184617500Y-122657500D02*
X186857500Y-122657500D01*
X186857500Y-126897500D01*
X184617500Y-126897500D01*
X184617500Y-122657500D01*
%TO.C,D9*%
X210811250Y-45095000D02*
X213051250Y-45095000D01*
X210811250Y-45215000D02*
X213051250Y-45215000D01*
X210811250Y-45335000D02*
X213051250Y-45335000D01*
X211931250Y-41045000D02*
X211931250Y-41695000D01*
X211931250Y-46585000D02*
X211931250Y-45935000D01*
X210811250Y-41695000D02*
X213051250Y-41695000D01*
X213051250Y-45935000D01*
X210811250Y-45935000D01*
X210811250Y-41695000D01*
%TO.C,D3*%
X89367500Y-45095000D02*
X91607500Y-45095000D01*
X89367500Y-45215000D02*
X91607500Y-45215000D01*
X89367500Y-45335000D02*
X91607500Y-45335000D01*
X90487500Y-41045000D02*
X90487500Y-41695000D01*
X90487500Y-46585000D02*
X90487500Y-45935000D01*
X89367500Y-41695000D02*
X91607500Y-41695000D01*
X91607500Y-45935000D01*
X89367500Y-45935000D01*
X89367500Y-41695000D01*
%TO.C,D26*%
X237005000Y-68907500D02*
X239245000Y-68907500D01*
X237005000Y-69027500D02*
X239245000Y-69027500D01*
X237005000Y-69147500D02*
X239245000Y-69147500D01*
X238125000Y-64857500D02*
X238125000Y-65507500D01*
X238125000Y-70397500D02*
X238125000Y-69747500D01*
X237005000Y-65507500D02*
X239245000Y-65507500D01*
X239245000Y-69747500D01*
X237005000Y-69747500D01*
X237005000Y-65507500D01*
%TO.C,D16*%
X46505000Y-68907500D02*
X48745000Y-68907500D01*
X46505000Y-69027500D02*
X48745000Y-69027500D01*
X46505000Y-69147500D02*
X48745000Y-69147500D01*
X47625000Y-64857500D02*
X47625000Y-65507500D01*
X47625000Y-70397500D02*
X47625000Y-69747500D01*
X46505000Y-65507500D02*
X48745000Y-65507500D01*
X48745000Y-69747500D01*
X46505000Y-69747500D01*
X46505000Y-65507500D01*
%TO.C,D69*%
X320348750Y-130820000D02*
X322588750Y-130820000D01*
X320348750Y-130940000D02*
X322588750Y-130940000D01*
X320348750Y-131060000D02*
X322588750Y-131060000D01*
X321468750Y-126770000D02*
X321468750Y-127420000D01*
X321468750Y-132310000D02*
X321468750Y-131660000D01*
X320348750Y-127420000D02*
X322588750Y-127420000D01*
X322588750Y-131660000D01*
X320348750Y-131660000D01*
X320348750Y-127420000D01*
%TO.C,D20*%
X122705000Y-68907500D02*
X124945000Y-68907500D01*
X122705000Y-69027500D02*
X124945000Y-69027500D01*
X122705000Y-69147500D02*
X124945000Y-69147500D01*
X123825000Y-64857500D02*
X123825000Y-65507500D01*
X123825000Y-70397500D02*
X123825000Y-69747500D01*
X122705000Y-65507500D02*
X124945000Y-65507500D01*
X124945000Y-69747500D01*
X122705000Y-69747500D01*
X122705000Y-65507500D01*
%TO.C,D12*%
X270342500Y-45095000D02*
X272582500Y-45095000D01*
X270342500Y-45215000D02*
X272582500Y-45215000D01*
X270342500Y-45335000D02*
X272582500Y-45335000D01*
X271462500Y-41045000D02*
X271462500Y-41695000D01*
X271462500Y-46585000D02*
X271462500Y-45935000D01*
X270342500Y-41695000D02*
X272582500Y-41695000D01*
X272582500Y-45935000D01*
X270342500Y-45935000D01*
X270342500Y-41695000D01*
%TO.C,D33*%
X113180000Y-87957500D02*
X115420000Y-87957500D01*
X113180000Y-88077500D02*
X115420000Y-88077500D01*
X113180000Y-88197500D02*
X115420000Y-88197500D01*
X114300000Y-83907500D02*
X114300000Y-84557500D01*
X114300000Y-89447500D02*
X114300000Y-88797500D01*
X113180000Y-84557500D02*
X115420000Y-84557500D01*
X115420000Y-88797500D01*
X113180000Y-88797500D01*
X113180000Y-84557500D01*
%TO.C,D56*%
X308442500Y-107007500D02*
X310682500Y-107007500D01*
X308442500Y-107127500D02*
X310682500Y-107127500D01*
X308442500Y-107247500D02*
X310682500Y-107247500D01*
X309562500Y-102957500D02*
X309562500Y-103607500D01*
X309562500Y-108497500D02*
X309562500Y-107847500D01*
X308442500Y-103607500D02*
X310682500Y-103607500D01*
X310682500Y-107847500D01*
X308442500Y-107847500D01*
X308442500Y-103607500D01*
%TO.C,D73*%
X175092500Y-145107500D02*
X177332500Y-145107500D01*
X175092500Y-145227500D02*
X177332500Y-145227500D01*
X175092500Y-145347500D02*
X177332500Y-145347500D01*
X176212500Y-141057500D02*
X176212500Y-141707500D01*
X176212500Y-146597500D02*
X176212500Y-145947500D01*
X175092500Y-141707500D02*
X177332500Y-141707500D01*
X177332500Y-145947500D01*
X175092500Y-145947500D01*
X175092500Y-141707500D01*
%TO.C,D1*%
X48886250Y-45095000D02*
X51126250Y-45095000D01*
X48886250Y-45215000D02*
X51126250Y-45215000D01*
X48886250Y-45335000D02*
X51126250Y-45335000D01*
X50006250Y-41045000D02*
X50006250Y-41695000D01*
X50006250Y-46585000D02*
X50006250Y-45935000D01*
X48886250Y-41695000D02*
X51126250Y-41695000D01*
X51126250Y-45935000D01*
X48886250Y-45935000D01*
X48886250Y-41695000D01*
%TO.C,D30*%
X51267500Y-87957500D02*
X53507500Y-87957500D01*
X51267500Y-88077500D02*
X53507500Y-88077500D01*
X51267500Y-88197500D02*
X53507500Y-88197500D01*
X52387500Y-83907500D02*
X52387500Y-84557500D01*
X52387500Y-89447500D02*
X52387500Y-88797500D01*
X51267500Y-84557500D02*
X53507500Y-84557500D01*
X53507500Y-88797500D01*
X51267500Y-88797500D01*
X51267500Y-84557500D01*
%TO.C,D74*%
X239386250Y-145107500D02*
X241626250Y-145107500D01*
X239386250Y-145227500D02*
X241626250Y-145227500D01*
X239386250Y-145347500D02*
X241626250Y-145347500D01*
X240506250Y-141057500D02*
X240506250Y-141707500D01*
X240506250Y-146597500D02*
X240506250Y-145947500D01*
X239386250Y-141707500D02*
X241626250Y-141707500D01*
X241626250Y-145947500D01*
X239386250Y-145947500D01*
X239386250Y-141707500D01*
%TO.C,D43*%
X308760000Y-87957500D02*
X311000000Y-87957500D01*
X308760000Y-88077500D02*
X311000000Y-88077500D01*
X308760000Y-88197500D02*
X311000000Y-88197500D01*
X309880000Y-83907500D02*
X309880000Y-84557500D01*
X309880000Y-89447500D02*
X309880000Y-88797500D01*
X308760000Y-84557500D02*
X311000000Y-84557500D01*
X311000000Y-88797500D01*
X308760000Y-88797500D01*
X308760000Y-84557500D01*
%TO.C,D42*%
X284630000Y-87957500D02*
X286870000Y-87957500D01*
X284630000Y-88077500D02*
X286870000Y-88077500D01*
X284630000Y-88197500D02*
X286870000Y-88197500D01*
X285750000Y-83907500D02*
X285750000Y-84557500D01*
X285750000Y-89447500D02*
X285750000Y-88797500D01*
X284630000Y-84557500D02*
X286870000Y-84557500D01*
X286870000Y-88797500D01*
X284630000Y-88797500D01*
X284630000Y-84557500D01*
%TO.C,D45*%
X79842500Y-107007500D02*
X82082500Y-107007500D01*
X79842500Y-107127500D02*
X82082500Y-107127500D01*
X79842500Y-107247500D02*
X82082500Y-107247500D01*
X80962500Y-102957500D02*
X80962500Y-103607500D01*
X80962500Y-108497500D02*
X80962500Y-107847500D01*
X79842500Y-103607500D02*
X82082500Y-103607500D01*
X82082500Y-107847500D01*
X79842500Y-107847500D01*
X79842500Y-103607500D01*
%TO.C,D40*%
X246530000Y-87957500D02*
X248770000Y-87957500D01*
X246530000Y-88077500D02*
X248770000Y-88077500D01*
X246530000Y-88197500D02*
X248770000Y-88197500D01*
X247650000Y-83907500D02*
X247650000Y-84557500D01*
X247650000Y-89447500D02*
X247650000Y-88797500D01*
X246530000Y-84557500D02*
X248770000Y-84557500D01*
X248770000Y-88797500D01*
X246530000Y-88797500D01*
X246530000Y-84557500D01*
%TD*%
M02*
